<svg width="364" height="146" viewBox="0 0 364 146" fill="none" xmlns="http://www.w3.org/2000/svg">
<path d="M17.5238 9.44201L21.0106 9.47508C21.0523 9.47587 21.0932 9.48724 21.1293 9.50811C21.1654 9.52897 21.1957 9.55866 21.2173 9.5944L22.9893 12.5975C23.0165 12.6429 23.0578 12.6782 23.1069 12.6981C23.156 12.718 23.2102 12.7213 23.2614 12.7076C23.3126 12.6939 23.3579 12.6639 23.3905 12.6221C23.4231 12.5804 23.4412 12.5291 23.442 12.4762L23.4751 8.98941C23.4759 8.94768 23.4873 8.90684 23.5081 8.8707C23.529 8.83455 23.5587 8.80429 23.5944 8.78274L26.5975 7.01073C26.6429 6.98349 26.6783 6.9422 26.6981 6.89309C26.718 6.84399 26.7213 6.78975 26.7076 6.73858C26.6939 6.68741 26.6639 6.64211 26.6221 6.60951C26.5804 6.57692 26.5291 6.55882 26.4762 6.55795L22.9894 6.52488C22.9477 6.52409 22.9069 6.51272 22.8707 6.49185C22.8346 6.47099 22.8043 6.4413 22.7828 6.40556L21.0108 3.40249C20.9835 3.35705 20.9422 3.32173 20.8931 3.30186C20.844 3.28199 20.7898 3.27866 20.7386 3.29237C20.6874 3.30608 20.6421 3.33609 20.6095 3.37785C20.577 3.4196 20.5589 3.47084 20.558 3.52381L20.5249 7.01055C20.5241 7.05228 20.5128 7.09312 20.4919 7.12926C20.471 7.16541 20.4413 7.19567 20.4056 7.21722L17.4025 8.98923C17.3571 9.01647 17.3218 9.05776 17.3019 9.10687C17.282 9.15597 17.2787 9.21021 17.2924 9.26138C17.3061 9.31255 17.3361 9.35785 17.3779 9.39045C17.4196 9.42304 17.4709 9.44114 17.5238 9.44201Z" stroke="#145DB8" stroke-width="0.46875" stroke-linecap="round" stroke-linejoin="round"/>
<path d="M49.5238 9.44201L53.0106 9.47508C53.0523 9.47587 53.0932 9.48724 53.1293 9.50811C53.1654 9.52897 53.1957 9.55866 53.2173 9.5944L54.9893 12.5975C55.0165 12.6429 55.0578 12.6782 55.1069 12.6981C55.156 12.718 55.2102 12.7213 55.2614 12.7076C55.3126 12.6939 55.3579 12.6639 55.3905 12.6221C55.4231 12.5804 55.4412 12.5291 55.442 12.4762L55.4751 8.98941C55.4759 8.94768 55.4873 8.90684 55.5081 8.8707C55.529 8.83455 55.5587 8.80429 55.5944 8.78274L58.5975 7.01073C58.6429 6.98349 58.6783 6.9422 58.6981 6.89309C58.718 6.84399 58.7213 6.78975 58.7076 6.73858C58.6939 6.68741 58.6639 6.64211 58.6221 6.60951C58.5804 6.57692 58.5291 6.55882 58.4762 6.55795L54.9894 6.52488C54.9477 6.52409 54.9069 6.51272 54.8707 6.49185C54.8346 6.47099 54.8043 6.4413 54.7828 6.40556L53.0108 3.40249C52.9835 3.35705 52.9422 3.32173 52.8931 3.30186C52.844 3.28199 52.7898 3.27866 52.7386 3.29237C52.6874 3.30608 52.6421 3.33609 52.6095 3.37785C52.577 3.4196 52.5589 3.47084 52.558 3.52381L52.5249 7.01055C52.5241 7.05228 52.5128 7.09312 52.4919 7.12926C52.471 7.16541 52.4413 7.19567 52.4056 7.21722L49.4025 8.98923C49.3571 9.01647 49.3218 9.05776 49.3019 9.10687C49.282 9.15597 49.2787 9.21021 49.2924 9.26138C49.3061 9.31255 49.3361 9.35785 49.3779 9.39045C49.4196 9.42304 49.4709 9.44114 49.5238 9.44201Z" stroke="#145DB8" stroke-width="0.46875" stroke-linecap="round" stroke-linejoin="round"/>
<path d="M81.5238 9.44201L85.0106 9.47508C85.0523 9.47587 85.0932 9.48724 85.1293 9.50811C85.1654 9.52897 85.1957 9.55866 85.2173 9.5944L86.9893 12.5975C87.0165 12.6429 87.0578 12.6782 87.1069 12.6981C87.156 12.718 87.2102 12.7213 87.2614 12.7076C87.3126 12.6939 87.3579 12.6639 87.3905 12.6221C87.4231 12.5804 87.4412 12.5291 87.442 12.4762L87.4751 8.98941C87.4759 8.94768 87.4873 8.90684 87.5081 8.8707C87.529 8.83455 87.5587 8.80429 87.5944 8.78274L90.5975 7.01073C90.6429 6.98349 90.6783 6.9422 90.6981 6.89309C90.718 6.84399 90.7213 6.78975 90.7076 6.73858C90.6939 6.68741 90.6639 6.64211 90.6221 6.60951C90.5804 6.57692 90.5291 6.55882 90.4762 6.55795L86.9894 6.52488C86.9477 6.52409 86.9069 6.51272 86.8707 6.49185C86.8346 6.47099 86.8043 6.4413 86.7828 6.40556L85.0108 3.40249C84.9835 3.35705 84.9422 3.32173 84.8931 3.30186C84.844 3.28199 84.7898 3.27866 84.7386 3.29237C84.6874 3.30608 84.6421 3.33609 84.6095 3.37785C84.577 3.4196 84.5589 3.47084 84.558 3.52381L84.5249 7.01055C84.5241 7.05228 84.5128 7.09312 84.4919 7.12926C84.471 7.16541 84.4413 7.19567 84.4056 7.21722L81.4025 8.98923C81.3571 9.01647 81.3218 9.05776 81.3019 9.10687C81.282 9.15597 81.2787 9.21021 81.2924 9.26138C81.3061 9.31255 81.3361 9.35785 81.3779 9.39045C81.4196 9.42304 81.4709 9.44114 81.5238 9.44201Z" fill="url(#paint0_linear_1114_4155)" stroke="#145DB8" stroke-width="0.125" stroke-linecap="round" stroke-linejoin="round"/>
<path d="M113.524 9.44201L117.011 9.47508C117.052 9.47587 117.093 9.48724 117.129 9.50811C117.165 9.52897 117.196 9.55866 117.217 9.5944L118.989 12.5975C119.017 12.6429 119.058 12.6782 119.107 12.6981C119.156 12.718 119.21 12.7213 119.261 12.7076C119.313 12.6939 119.358 12.6639 119.39 12.6221C119.423 12.5804 119.441 12.5291 119.442 12.4762L119.475 8.98941C119.476 8.94768 119.487 8.90684 119.508 8.8707C119.529 8.83455 119.559 8.80429 119.594 8.78274L122.598 7.01073C122.643 6.98349 122.678 6.9422 122.698 6.89309C122.718 6.84399 122.721 6.78975 122.708 6.73858C122.694 6.68741 122.664 6.64211 122.622 6.60951C122.58 6.57692 122.529 6.55882 122.476 6.55795L118.989 6.52488C118.948 6.52409 118.907 6.51272 118.871 6.49185C118.835 6.47099 118.804 6.4413 118.783 6.40556L117.011 3.40249C116.984 3.35705 116.942 3.32173 116.893 3.30186C116.844 3.28199 116.79 3.27866 116.739 3.29237C116.687 3.30608 116.642 3.33609 116.61 3.37785C116.577 3.4196 116.559 3.47084 116.558 3.52381L116.525 7.01055C116.524 7.05228 116.513 7.09312 116.492 7.12926C116.471 7.16541 116.441 7.19567 116.406 7.21722L113.403 8.98923C113.357 9.01647 113.322 9.05776 113.302 9.10687C113.282 9.15597 113.279 9.21021 113.292 9.26138C113.306 9.31255 113.336 9.35785 113.378 9.39045C113.42 9.42304 113.471 9.44114 113.524 9.44201Z" stroke="#145DB8" stroke-width="0.46875" stroke-linecap="round" stroke-linejoin="round"/>
<path d="M145.524 9.44201L149.011 9.47508C149.052 9.47587 149.093 9.48724 149.129 9.50811C149.165 9.52897 149.196 9.55866 149.217 9.5944L150.989 12.5975C151.017 12.6429 151.058 12.6782 151.107 12.6981C151.156 12.718 151.21 12.7213 151.261 12.7076C151.313 12.6939 151.358 12.6639 151.39 12.6221C151.423 12.5804 151.441 12.5291 151.442 12.4762L151.475 8.98941C151.476 8.94768 151.487 8.90684 151.508 8.8707C151.529 8.83455 151.559 8.80429 151.594 8.78274L154.598 7.01073C154.643 6.98349 154.678 6.9422 154.698 6.89309C154.718 6.84399 154.721 6.78975 154.708 6.73858C154.694 6.68741 154.664 6.64211 154.622 6.60951C154.58 6.57692 154.529 6.55882 154.476 6.55795L150.989 6.52488C150.948 6.52409 150.907 6.51272 150.871 6.49185C150.835 6.47099 150.804 6.4413 150.783 6.40556L149.011 3.40249C148.984 3.35705 148.942 3.32173 148.893 3.30186C148.844 3.28199 148.79 3.27866 148.739 3.29237C148.687 3.30608 148.642 3.33609 148.61 3.37785C148.577 3.4196 148.559 3.47084 148.558 3.52381L148.525 7.01055C148.524 7.05228 148.513 7.09312 148.492 7.12926C148.471 7.16541 148.441 7.19567 148.406 7.21722L145.403 8.98923C145.357 9.01647 145.322 9.05776 145.302 9.10687C145.282 9.15597 145.279 9.21021 145.292 9.26138C145.306 9.31255 145.336 9.35785 145.378 9.39045C145.42 9.42304 145.471 9.44114 145.524 9.44201Z" stroke="#145DB8" stroke-width="0.46875" stroke-linecap="round" stroke-linejoin="round"/>
<path d="M177.524 9.44201L181.011 9.47508C181.052 9.47587 181.093 9.48724 181.129 9.50811C181.165 9.52897 181.196 9.55866 181.217 9.5944L182.989 12.5975C183.017 12.6429 183.058 12.6782 183.107 12.6981C183.156 12.718 183.21 12.7213 183.261 12.7076C183.313 12.6939 183.358 12.6639 183.39 12.6221C183.423 12.5804 183.441 12.5291 183.442 12.4762L183.475 8.98941C183.476 8.94768 183.487 8.90684 183.508 8.8707C183.529 8.83455 183.559 8.80429 183.594 8.78274L186.598 7.01073C186.643 6.98349 186.678 6.9422 186.698 6.89309C186.718 6.84399 186.721 6.78975 186.708 6.73858C186.694 6.68741 186.664 6.64211 186.622 6.60951C186.58 6.57692 186.529 6.55882 186.476 6.55795L182.989 6.52488C182.948 6.52409 182.907 6.51272 182.871 6.49185C182.835 6.47099 182.804 6.4413 182.783 6.40556L181.011 3.40249C180.984 3.35705 180.942 3.32173 180.893 3.30186C180.844 3.28199 180.79 3.27866 180.739 3.29237C180.687 3.30608 180.642 3.33609 180.61 3.37785C180.577 3.4196 180.559 3.47084 180.558 3.52381L180.525 7.01055C180.524 7.05228 180.513 7.09312 180.492 7.12926C180.471 7.16541 180.441 7.19567 180.406 7.21722L177.403 8.98923C177.357 9.01647 177.322 9.05776 177.302 9.10687C177.282 9.15597 177.279 9.21021 177.292 9.26138C177.306 9.31255 177.336 9.35785 177.378 9.39045C177.42 9.42304 177.471 9.44114 177.524 9.44201Z" stroke="#145DB8" stroke-width="0.46875" stroke-linecap="round" stroke-linejoin="round"/>
<path d="M209.524 9.44201L213.011 9.47508C213.052 9.47587 213.093 9.48724 213.129 9.50811C213.165 9.52897 213.196 9.55866 213.217 9.5944L214.989 12.5975C215.017 12.6429 215.058 12.6782 215.107 12.6981C215.156 12.718 215.21 12.7213 215.261 12.7076C215.313 12.6939 215.358 12.6639 215.39 12.6221C215.423 12.5804 215.441 12.5291 215.442 12.4762L215.475 8.98941C215.476 8.94768 215.487 8.90684 215.508 8.8707C215.529 8.83455 215.559 8.80429 215.594 8.78274L218.598 7.01073C218.643 6.98349 218.678 6.9422 218.698 6.89309C218.718 6.84399 218.721 6.78975 218.708 6.73858C218.694 6.68741 218.664 6.64211 218.622 6.60951C218.58 6.57692 218.529 6.55882 218.476 6.55795L214.989 6.52488C214.948 6.52409 214.907 6.51272 214.871 6.49185C214.835 6.47099 214.804 6.4413 214.783 6.40556L213.011 3.40249C212.984 3.35705 212.942 3.32173 212.893 3.30186C212.844 3.28199 212.79 3.27866 212.739 3.29237C212.687 3.30608 212.642 3.33609 212.61 3.37785C212.577 3.4196 212.559 3.47084 212.558 3.52381L212.525 7.01055C212.524 7.05228 212.513 7.09312 212.492 7.12926C212.471 7.16541 212.441 7.19567 212.406 7.21722L209.403 8.98923C209.357 9.01647 209.322 9.05776 209.302 9.10687C209.282 9.15597 209.279 9.21021 209.292 9.26138C209.306 9.31255 209.336 9.35785 209.378 9.39045C209.42 9.42304 209.471 9.44114 209.524 9.44201Z" fill="url(#paint1_linear_1114_4155)" stroke="#145DB8" stroke-width="0.125" stroke-linecap="round" stroke-linejoin="round"/>
<path d="M241.524 9.44201L245.011 9.47508C245.052 9.47587 245.093 9.48724 245.129 9.50811C245.165 9.52897 245.196 9.55866 245.217 9.5944L246.989 12.5975C247.017 12.6429 247.058 12.6782 247.107 12.6981C247.156 12.718 247.21 12.7213 247.261 12.7076C247.313 12.6939 247.358 12.6639 247.39 12.6221C247.423 12.5804 247.441 12.5291 247.442 12.4762L247.475 8.98941C247.476 8.94768 247.487 8.90684 247.508 8.8707C247.529 8.83455 247.559 8.80429 247.594 8.78274L250.598 7.01073C250.643 6.98349 250.678 6.9422 250.698 6.89309C250.718 6.84399 250.721 6.78975 250.708 6.73858C250.694 6.68741 250.664 6.64211 250.622 6.60951C250.58 6.57692 250.529 6.55882 250.476 6.55795L246.989 6.52488C246.948 6.52409 246.907 6.51272 246.871 6.49185C246.835 6.47099 246.804 6.4413 246.783 6.40556L245.011 3.40249C244.984 3.35705 244.942 3.32173 244.893 3.30186C244.844 3.28199 244.79 3.27866 244.739 3.29237C244.687 3.30608 244.642 3.33609 244.61 3.37785C244.577 3.4196 244.559 3.47084 244.558 3.52381L244.525 7.01055C244.524 7.05228 244.513 7.09312 244.492 7.12926C244.471 7.16541 244.441 7.19567 244.406 7.21722L241.403 8.98923C241.357 9.01647 241.322 9.05776 241.302 9.10687C241.282 9.15597 241.279 9.21021 241.292 9.26138C241.306 9.31255 241.336 9.35785 241.378 9.39045C241.42 9.42304 241.471 9.44114 241.524 9.44201Z" stroke="#145DB8" stroke-width="0.46875" stroke-linecap="round" stroke-linejoin="round"/>
<path d="M273.524 9.44201L277.011 9.47508C277.052 9.47587 277.093 9.48724 277.129 9.50811C277.165 9.52897 277.196 9.55866 277.217 9.5944L278.989 12.5975C279.017 12.6429 279.058 12.6782 279.107 12.6981C279.156 12.718 279.21 12.7213 279.261 12.7076C279.313 12.6939 279.358 12.6639 279.39 12.6221C279.423 12.5804 279.441 12.5291 279.442 12.4762L279.475 8.98941C279.476 8.94768 279.487 8.90684 279.508 8.8707C279.529 8.83455 279.559 8.80429 279.594 8.78274L282.598 7.01073C282.643 6.98349 282.678 6.9422 282.698 6.89309C282.718 6.84399 282.721 6.78975 282.708 6.73858C282.694 6.68741 282.664 6.64211 282.622 6.60951C282.58 6.57692 282.529 6.55882 282.476 6.55795L278.989 6.52488C278.948 6.52409 278.907 6.51272 278.871 6.49185C278.835 6.47099 278.804 6.4413 278.783 6.40556L277.011 3.40249C276.984 3.35705 276.942 3.32173 276.893 3.30186C276.844 3.28199 276.79 3.27866 276.739 3.29237C276.687 3.30608 276.642 3.33609 276.61 3.37785C276.577 3.4196 276.559 3.47084 276.558 3.52381L276.525 7.01055C276.524 7.05228 276.513 7.09312 276.492 7.12926C276.471 7.16541 276.441 7.19567 276.406 7.21722L273.403 8.98923C273.357 9.01647 273.322 9.05776 273.302 9.10687C273.282 9.15597 273.279 9.21021 273.292 9.26138C273.306 9.31255 273.336 9.35785 273.378 9.39045C273.42 9.42304 273.471 9.44114 273.524 9.44201Z" stroke="#145DB8" stroke-width="0.46875" stroke-linecap="round" stroke-linejoin="round"/>
<path d="M305.524 9.44201L309.011 9.47508C309.052 9.47587 309.093 9.48724 309.129 9.50811C309.165 9.52897 309.196 9.55866 309.217 9.5944L310.989 12.5975C311.017 12.6429 311.058 12.6782 311.107 12.6981C311.156 12.718 311.21 12.7213 311.261 12.7076C311.313 12.6939 311.358 12.6639 311.39 12.6221C311.423 12.5804 311.441 12.5291 311.442 12.4762L311.475 8.98941C311.476 8.94768 311.487 8.90684 311.508 8.8707C311.529 8.83455 311.559 8.80429 311.594 8.78274L314.598 7.01073C314.643 6.98349 314.678 6.9422 314.698 6.89309C314.718 6.84399 314.721 6.78975 314.708 6.73858C314.694 6.68741 314.664 6.64211 314.622 6.60951C314.58 6.57692 314.529 6.55882 314.476 6.55795L310.989 6.52488C310.948 6.52409 310.907 6.51272 310.871 6.49185C310.835 6.47099 310.804 6.4413 310.783 6.40556L309.011 3.40249C308.984 3.35705 308.942 3.32173 308.893 3.30186C308.844 3.28199 308.79 3.27866 308.739 3.29237C308.687 3.30608 308.642 3.33609 308.61 3.37785C308.577 3.4196 308.559 3.47084 308.558 3.52381L308.525 7.01055C308.524 7.05228 308.513 7.09312 308.492 7.12926C308.471 7.16541 308.441 7.19567 308.406 7.21722L305.403 8.98923C305.357 9.01647 305.322 9.05776 305.302 9.10687C305.282 9.15597 305.279 9.21021 305.292 9.26138C305.306 9.31255 305.336 9.35785 305.378 9.39045C305.42 9.42304 305.471 9.44114 305.524 9.44201Z" stroke="#145DB8" stroke-width="0.46875" stroke-linecap="round" stroke-linejoin="round"/>
<path d="M337.524 9.44201L341.011 9.47508C341.052 9.47587 341.093 9.48724 341.129 9.50811C341.165 9.52897 341.196 9.55866 341.217 9.5944L342.989 12.5975C343.017 12.6429 343.058 12.6782 343.107 12.6981C343.156 12.718 343.21 12.7213 343.261 12.7076C343.313 12.6939 343.358 12.6639 343.39 12.6221C343.423 12.5804 343.441 12.5291 343.442 12.4762L343.475 8.98941C343.476 8.94768 343.487 8.90684 343.508 8.8707C343.529 8.83455 343.559 8.80429 343.594 8.78274L346.598 7.01073C346.643 6.98349 346.678 6.9422 346.698 6.89309C346.718 6.84399 346.721 6.78975 346.708 6.73858C346.694 6.68741 346.664 6.64211 346.622 6.60951C346.58 6.57692 346.529 6.55882 346.476 6.55795L342.989 6.52488C342.948 6.52409 342.907 6.51272 342.871 6.49185C342.835 6.47099 342.804 6.4413 342.783 6.40556L341.011 3.40249C340.984 3.35705 340.942 3.32173 340.893 3.30186C340.844 3.28199 340.79 3.27866 340.739 3.29237C340.687 3.30608 340.642 3.33609 340.61 3.37785C340.577 3.4196 340.559 3.47084 340.558 3.52381L340.525 7.01055C340.524 7.05228 340.513 7.09312 340.492 7.12926C340.471 7.16541 340.441 7.19567 340.406 7.21722L337.403 8.98923C337.357 9.01647 337.322 9.05776 337.302 9.10687C337.282 9.15597 337.279 9.21021 337.292 9.26138C337.306 9.31255 337.336 9.35785 337.378 9.39045C337.42 9.42304 337.471 9.44114 337.524 9.44201Z" fill="url(#paint2_linear_1114_4155)" stroke="#145DB8" stroke-width="0.125" stroke-linecap="round" stroke-linejoin="round"/>
<path d="M17.5238 36.442L21.0106 36.4751C21.0523 36.4759 21.0932 36.4872 21.1293 36.5081C21.1654 36.529 21.1957 36.5587 21.2173 36.5944L22.9893 39.5975C23.0165 39.6429 23.0578 39.6782 23.1069 39.6981C23.156 39.718 23.2102 39.7213 23.2614 39.7076C23.3126 39.6939 23.3579 39.6639 23.3905 39.6221C23.4231 39.5804 23.4412 39.5291 23.442 39.4762L23.4751 35.9894C23.4759 35.9477 23.4873 35.9068 23.5081 35.8707C23.529 35.8346 23.5587 35.8043 23.5944 35.7827L26.5975 34.0107C26.6429 33.9835 26.6783 33.9422 26.6981 33.8931C26.718 33.844 26.7213 33.7897 26.7076 33.7386C26.6939 33.6874 26.6639 33.6421 26.6221 33.6095C26.5804 33.5769 26.5291 33.5588 26.4762 33.558L22.9894 33.5249C22.9477 33.5241 22.9069 33.5127 22.8707 33.4919C22.8346 33.471 22.8043 33.4413 22.7828 33.4056L21.0108 30.4025C20.9835 30.3571 20.9422 30.3217 20.8931 30.3019C20.844 30.282 20.7898 30.2787 20.7386 30.2924C20.6874 30.3061 20.6421 30.3361 20.6095 30.3778C20.577 30.4196 20.5589 30.4708 20.558 30.5238L20.5249 34.0105C20.5241 34.0523 20.5128 34.0931 20.4919 34.1293C20.471 34.1654 20.4413 34.1957 20.4056 34.2172L17.4025 35.9892C17.3571 36.0165 17.3218 36.0578 17.3019 36.1069C17.282 36.156 17.2787 36.2102 17.2924 36.2614C17.3061 36.3125 17.3361 36.3579 17.3779 36.3904C17.4196 36.423 17.4709 36.4411 17.5238 36.442Z" stroke="#145DB8" stroke-width="0.46875" stroke-linecap="round" stroke-linejoin="round"/>
<path d="M49.5238 36.442L53.0106 36.4751C53.0523 36.4759 53.0932 36.4872 53.1293 36.5081C53.1654 36.529 53.1957 36.5587 53.2173 36.5944L54.9893 39.5975C55.0165 39.6429 55.0578 39.6782 55.1069 39.6981C55.156 39.718 55.2102 39.7213 55.2614 39.7076C55.3126 39.6939 55.3579 39.6639 55.3905 39.6221C55.4231 39.5804 55.4412 39.5291 55.442 39.4762L55.4751 35.9894C55.4759 35.9477 55.4873 35.9068 55.5081 35.8707C55.529 35.8346 55.5587 35.8043 55.5944 35.7827L58.5975 34.0107C58.6429 33.9835 58.6783 33.9422 58.6981 33.8931C58.718 33.844 58.7213 33.7897 58.7076 33.7386C58.6939 33.6874 58.6639 33.6421 58.6221 33.6095C58.5804 33.5769 58.5291 33.5588 58.4762 33.558L54.9894 33.5249C54.9477 33.5241 54.9069 33.5127 54.8707 33.4919C54.8346 33.471 54.8043 33.4413 54.7828 33.4056L53.0108 30.4025C52.9835 30.3571 52.9422 30.3217 52.8931 30.3019C52.844 30.282 52.7898 30.2787 52.7386 30.2924C52.6874 30.3061 52.6421 30.3361 52.6095 30.3778C52.577 30.4196 52.5589 30.4708 52.558 30.5238L52.5249 34.0105C52.5241 34.0523 52.5128 34.0931 52.4919 34.1293C52.471 34.1654 52.4413 34.1957 52.4056 34.2172L49.4025 35.9892C49.3571 36.0165 49.3218 36.0578 49.3019 36.1069C49.282 36.156 49.2787 36.2102 49.2924 36.2614C49.3061 36.3125 49.3361 36.3579 49.3779 36.3904C49.4196 36.423 49.4709 36.4411 49.5238 36.442Z" stroke="#145DB8" stroke-width="0.46875" stroke-linecap="round" stroke-linejoin="round"/>
<path d="M81.5238 36.442L85.0106 36.4751C85.0523 36.4759 85.0932 36.4872 85.1293 36.5081C85.1654 36.529 85.1957 36.5587 85.2173 36.5944L86.9893 39.5975C87.0165 39.6429 87.0578 39.6782 87.1069 39.6981C87.156 39.718 87.2102 39.7213 87.2614 39.7076C87.3126 39.6939 87.3579 39.6639 87.3905 39.6221C87.4231 39.5804 87.4412 39.5291 87.442 39.4762L87.4751 35.9894C87.4759 35.9477 87.4873 35.9068 87.5081 35.8707C87.529 35.8346 87.5587 35.8043 87.5944 35.7827L90.5975 34.0107C90.6429 33.9835 90.6783 33.9422 90.6981 33.8931C90.718 33.844 90.7213 33.7897 90.7076 33.7386C90.6939 33.6874 90.6639 33.6421 90.6221 33.6095C90.5804 33.5769 90.5291 33.5588 90.4762 33.558L86.9894 33.5249C86.9477 33.5241 86.9069 33.5127 86.8707 33.4919C86.8346 33.471 86.8043 33.4413 86.7828 33.4056L85.0108 30.4025C84.9835 30.3571 84.9422 30.3217 84.8931 30.3019C84.844 30.282 84.7898 30.2787 84.7386 30.2924C84.6874 30.3061 84.6421 30.3361 84.6095 30.3778C84.577 30.4196 84.5589 30.4708 84.558 30.5238L84.5249 34.0105C84.5241 34.0523 84.5128 34.0931 84.4919 34.1293C84.471 34.1654 84.4413 34.1957 84.4056 34.2172L81.4025 35.9892C81.3571 36.0165 81.3218 36.0578 81.3019 36.1069C81.282 36.156 81.2787 36.2102 81.2924 36.2614C81.3061 36.3125 81.3361 36.3579 81.3779 36.3904C81.4196 36.423 81.4709 36.4411 81.5238 36.442Z" fill="url(#paint3_linear_1114_4155)" stroke="#145DB8" stroke-width="0.125" stroke-linecap="round" stroke-linejoin="round"/>
<path d="M113.524 36.442L117.011 36.4751C117.052 36.4759 117.093 36.4872 117.129 36.5081C117.165 36.529 117.196 36.5587 117.217 36.5944L118.989 39.5975C119.017 39.6429 119.058 39.6782 119.107 39.6981C119.156 39.718 119.21 39.7213 119.261 39.7076C119.313 39.6939 119.358 39.6639 119.39 39.6221C119.423 39.5804 119.441 39.5291 119.442 39.4762L119.475 35.9894C119.476 35.9477 119.487 35.9068 119.508 35.8707C119.529 35.8346 119.559 35.8043 119.594 35.7827L122.598 34.0107C122.643 33.9835 122.678 33.9422 122.698 33.8931C122.718 33.844 122.721 33.7897 122.708 33.7386C122.694 33.6874 122.664 33.6421 122.622 33.6095C122.58 33.5769 122.529 33.5588 122.476 33.558L118.989 33.5249C118.948 33.5241 118.907 33.5127 118.871 33.4919C118.835 33.471 118.804 33.4413 118.783 33.4056L117.011 30.4025C116.984 30.3571 116.942 30.3217 116.893 30.3019C116.844 30.282 116.79 30.2787 116.739 30.2924C116.687 30.3061 116.642 30.3361 116.61 30.3778C116.577 30.4196 116.559 30.4708 116.558 30.5238L116.525 34.0105C116.524 34.0523 116.513 34.0931 116.492 34.1293C116.471 34.1654 116.441 34.1957 116.406 34.2172L113.403 35.9892C113.357 36.0165 113.322 36.0578 113.302 36.1069C113.282 36.156 113.279 36.2102 113.292 36.2614C113.306 36.3125 113.336 36.3579 113.378 36.3904C113.42 36.423 113.471 36.4411 113.524 36.442Z" stroke="#145DB8" stroke-width="0.46875" stroke-linecap="round" stroke-linejoin="round"/>
<path d="M145.524 36.442L149.011 36.4751C149.052 36.4759 149.093 36.4872 149.129 36.5081C149.165 36.529 149.196 36.5587 149.217 36.5944L150.989 39.5975C151.017 39.6429 151.058 39.6782 151.107 39.6981C151.156 39.718 151.21 39.7213 151.261 39.7076C151.313 39.6939 151.358 39.6639 151.39 39.6221C151.423 39.5804 151.441 39.5291 151.442 39.4762L151.475 35.9894C151.476 35.9477 151.487 35.9068 151.508 35.8707C151.529 35.8346 151.559 35.8043 151.594 35.7827L154.598 34.0107C154.643 33.9835 154.678 33.9422 154.698 33.8931C154.718 33.844 154.721 33.7897 154.708 33.7386C154.694 33.6874 154.664 33.6421 154.622 33.6095C154.58 33.5769 154.529 33.5588 154.476 33.558L150.989 33.5249C150.948 33.5241 150.907 33.5127 150.871 33.4919C150.835 33.471 150.804 33.4413 150.783 33.4056L149.011 30.4025C148.984 30.3571 148.942 30.3217 148.893 30.3019C148.844 30.282 148.79 30.2787 148.739 30.2924C148.687 30.3061 148.642 30.3361 148.61 30.3778C148.577 30.4196 148.559 30.4708 148.558 30.5238L148.525 34.0105C148.524 34.0523 148.513 34.0931 148.492 34.1293C148.471 34.1654 148.441 34.1957 148.406 34.2172L145.403 35.9892C145.357 36.0165 145.322 36.0578 145.302 36.1069C145.282 36.156 145.279 36.2102 145.292 36.2614C145.306 36.3125 145.336 36.3579 145.378 36.3904C145.42 36.423 145.471 36.4411 145.524 36.442Z" stroke="#145DB8" stroke-width="0.46875" stroke-linecap="round" stroke-linejoin="round"/>
<path d="M177.524 36.442L181.011 36.4751C181.052 36.4759 181.093 36.4872 181.129 36.5081C181.165 36.529 181.196 36.5587 181.217 36.5944L182.989 39.5975C183.017 39.6429 183.058 39.6782 183.107 39.6981C183.156 39.718 183.21 39.7213 183.261 39.7076C183.313 39.6939 183.358 39.6639 183.39 39.6221C183.423 39.5804 183.441 39.5291 183.442 39.4762L183.475 35.9894C183.476 35.9477 183.487 35.9068 183.508 35.8707C183.529 35.8346 183.559 35.8043 183.594 35.7827L186.598 34.0107C186.643 33.9835 186.678 33.9422 186.698 33.8931C186.718 33.844 186.721 33.7897 186.708 33.7386C186.694 33.6874 186.664 33.6421 186.622 33.6095C186.58 33.5769 186.529 33.5588 186.476 33.558L182.989 33.5249C182.948 33.5241 182.907 33.5127 182.871 33.4919C182.835 33.471 182.804 33.4413 182.783 33.4056L181.011 30.4025C180.984 30.3571 180.942 30.3217 180.893 30.3019C180.844 30.282 180.79 30.2787 180.739 30.2924C180.687 30.3061 180.642 30.3361 180.61 30.3778C180.577 30.4196 180.559 30.4708 180.558 30.5238L180.525 34.0105C180.524 34.0523 180.513 34.0931 180.492 34.1293C180.471 34.1654 180.441 34.1957 180.406 34.2172L177.403 35.9892C177.357 36.0165 177.322 36.0578 177.302 36.1069C177.282 36.156 177.279 36.2102 177.292 36.2614C177.306 36.3125 177.336 36.3579 177.378 36.3904C177.42 36.423 177.471 36.4411 177.524 36.442Z" stroke="#145DB8" stroke-width="0.46875" stroke-linecap="round" stroke-linejoin="round"/>
<path d="M209.524 36.442L213.011 36.4751C213.052 36.4759 213.093 36.4872 213.129 36.5081C213.165 36.529 213.196 36.5587 213.217 36.5944L214.989 39.5975C215.017 39.6429 215.058 39.6782 215.107 39.6981C215.156 39.718 215.21 39.7213 215.261 39.7076C215.313 39.6939 215.358 39.6639 215.39 39.6221C215.423 39.5804 215.441 39.5291 215.442 39.4762L215.475 35.9894C215.476 35.9477 215.487 35.9068 215.508 35.8707C215.529 35.8346 215.559 35.8043 215.594 35.7827L218.598 34.0107C218.643 33.9835 218.678 33.9422 218.698 33.8931C218.718 33.844 218.721 33.7897 218.708 33.7386C218.694 33.6874 218.664 33.6421 218.622 33.6095C218.58 33.5769 218.529 33.5588 218.476 33.558L214.989 33.5249C214.948 33.5241 214.907 33.5127 214.871 33.4919C214.835 33.471 214.804 33.4413 214.783 33.4056L213.011 30.4025C212.984 30.3571 212.942 30.3217 212.893 30.3019C212.844 30.282 212.79 30.2787 212.739 30.2924C212.687 30.3061 212.642 30.3361 212.61 30.3778C212.577 30.4196 212.559 30.4708 212.558 30.5238L212.525 34.0105C212.524 34.0523 212.513 34.0931 212.492 34.1293C212.471 34.1654 212.441 34.1957 212.406 34.2172L209.403 35.9892C209.357 36.0165 209.322 36.0578 209.302 36.1069C209.282 36.156 209.279 36.2102 209.292 36.2614C209.306 36.3125 209.336 36.3579 209.378 36.3904C209.42 36.423 209.471 36.4411 209.524 36.442Z" fill="url(#paint4_linear_1114_4155)" stroke="#145DB8" stroke-width="0.125" stroke-linecap="round" stroke-linejoin="round"/>
<path d="M241.524 36.442L245.011 36.4751C245.052 36.4759 245.093 36.4872 245.129 36.5081C245.165 36.529 245.196 36.5587 245.217 36.5944L246.989 39.5975C247.017 39.6429 247.058 39.6782 247.107 39.6981C247.156 39.718 247.21 39.7213 247.261 39.7076C247.313 39.6939 247.358 39.6639 247.39 39.6221C247.423 39.5804 247.441 39.5291 247.442 39.4762L247.475 35.9894C247.476 35.9477 247.487 35.9068 247.508 35.8707C247.529 35.8346 247.559 35.8043 247.594 35.7827L250.598 34.0107C250.643 33.9835 250.678 33.9422 250.698 33.8931C250.718 33.844 250.721 33.7897 250.708 33.7386C250.694 33.6874 250.664 33.6421 250.622 33.6095C250.58 33.5769 250.529 33.5588 250.476 33.558L246.989 33.5249C246.948 33.5241 246.907 33.5127 246.871 33.4919C246.835 33.471 246.804 33.4413 246.783 33.4056L245.011 30.4025C244.984 30.3571 244.942 30.3217 244.893 30.3019C244.844 30.282 244.79 30.2787 244.739 30.2924C244.687 30.3061 244.642 30.3361 244.61 30.3778C244.577 30.4196 244.559 30.4708 244.558 30.5238L244.525 34.0105C244.524 34.0523 244.513 34.0931 244.492 34.1293C244.471 34.1654 244.441 34.1957 244.406 34.2172L241.403 35.9892C241.357 36.0165 241.322 36.0578 241.302 36.1069C241.282 36.156 241.279 36.2102 241.292 36.2614C241.306 36.3125 241.336 36.3579 241.378 36.3904C241.42 36.423 241.471 36.4411 241.524 36.442Z" stroke="#145DB8" stroke-width="0.46875" stroke-linecap="round" stroke-linejoin="round"/>
<path d="M273.524 36.442L277.011 36.4751C277.052 36.4759 277.093 36.4872 277.129 36.5081C277.165 36.529 277.196 36.5587 277.217 36.5944L278.989 39.5975C279.017 39.6429 279.058 39.6782 279.107 39.6981C279.156 39.718 279.21 39.7213 279.261 39.7076C279.313 39.6939 279.358 39.6639 279.39 39.6221C279.423 39.5804 279.441 39.5291 279.442 39.4762L279.475 35.9894C279.476 35.9477 279.487 35.9068 279.508 35.8707C279.529 35.8346 279.559 35.8043 279.594 35.7827L282.598 34.0107C282.643 33.9835 282.678 33.9422 282.698 33.8931C282.718 33.844 282.721 33.7897 282.708 33.7386C282.694 33.6874 282.664 33.6421 282.622 33.6095C282.58 33.5769 282.529 33.5588 282.476 33.558L278.989 33.5249C278.948 33.5241 278.907 33.5127 278.871 33.4919C278.835 33.471 278.804 33.4413 278.783 33.4056L277.011 30.4025C276.984 30.3571 276.942 30.3217 276.893 30.3019C276.844 30.282 276.79 30.2787 276.739 30.2924C276.687 30.3061 276.642 30.3361 276.61 30.3778C276.577 30.4196 276.559 30.4708 276.558 30.5238L276.525 34.0105C276.524 34.0523 276.513 34.0931 276.492 34.1293C276.471 34.1654 276.441 34.1957 276.406 34.2172L273.403 35.9892C273.357 36.0165 273.322 36.0578 273.302 36.1069C273.282 36.156 273.279 36.2102 273.292 36.2614C273.306 36.3125 273.336 36.3579 273.378 36.3904C273.42 36.423 273.471 36.4411 273.524 36.442Z" stroke="#145DB8" stroke-width="0.46875" stroke-linecap="round" stroke-linejoin="round"/>
<path d="M305.524 36.442L309.011 36.4751C309.052 36.4759 309.093 36.4872 309.129 36.5081C309.165 36.529 309.196 36.5587 309.217 36.5944L310.989 39.5975C311.017 39.6429 311.058 39.6782 311.107 39.6981C311.156 39.718 311.21 39.7213 311.261 39.7076C311.313 39.6939 311.358 39.6639 311.39 39.6221C311.423 39.5804 311.441 39.5291 311.442 39.4762L311.475 35.9894C311.476 35.9477 311.487 35.9068 311.508 35.8707C311.529 35.8346 311.559 35.8043 311.594 35.7827L314.598 34.0107C314.643 33.9835 314.678 33.9422 314.698 33.8931C314.718 33.844 314.721 33.7897 314.708 33.7386C314.694 33.6874 314.664 33.6421 314.622 33.6095C314.58 33.5769 314.529 33.5588 314.476 33.558L310.989 33.5249C310.948 33.5241 310.907 33.5127 310.871 33.4919C310.835 33.471 310.804 33.4413 310.783 33.4056L309.011 30.4025C308.984 30.3571 308.942 30.3217 308.893 30.3019C308.844 30.282 308.79 30.2787 308.739 30.2924C308.687 30.3061 308.642 30.3361 308.61 30.3778C308.577 30.4196 308.559 30.4708 308.558 30.5238L308.525 34.0105C308.524 34.0523 308.513 34.0931 308.492 34.1293C308.471 34.1654 308.441 34.1957 308.406 34.2172L305.403 35.9892C305.357 36.0165 305.322 36.0578 305.302 36.1069C305.282 36.156 305.279 36.2102 305.292 36.2614C305.306 36.3125 305.336 36.3579 305.378 36.3904C305.42 36.423 305.471 36.4411 305.524 36.442Z" stroke="#145DB8" stroke-width="0.46875" stroke-linecap="round" stroke-linejoin="round"/>
<path d="M337.524 36.442L341.011 36.4751C341.052 36.4759 341.093 36.4872 341.129 36.5081C341.165 36.529 341.196 36.5587 341.217 36.5944L342.989 39.5975C343.017 39.6429 343.058 39.6782 343.107 39.6981C343.156 39.718 343.21 39.7213 343.261 39.7076C343.313 39.6939 343.358 39.6639 343.39 39.6221C343.423 39.5804 343.441 39.5291 343.442 39.4762L343.475 35.9894C343.476 35.9477 343.487 35.9068 343.508 35.8707C343.529 35.8346 343.559 35.8043 343.594 35.7827L346.598 34.0107C346.643 33.9835 346.678 33.9422 346.698 33.8931C346.718 33.844 346.721 33.7897 346.708 33.7386C346.694 33.6874 346.664 33.6421 346.622 33.6095C346.58 33.5769 346.529 33.5588 346.476 33.558L342.989 33.5249C342.948 33.5241 342.907 33.5127 342.871 33.4919C342.835 33.471 342.804 33.4413 342.783 33.4056L341.011 30.4025C340.984 30.3571 340.942 30.3217 340.893 30.3019C340.844 30.282 340.79 30.2787 340.739 30.2924C340.687 30.3061 340.642 30.3361 340.61 30.3778C340.577 30.4196 340.559 30.4708 340.558 30.5238L340.525 34.0105C340.524 34.0523 340.513 34.0931 340.492 34.1293C340.471 34.1654 340.441 34.1957 340.406 34.2172L337.403 35.9892C337.357 36.0165 337.322 36.0578 337.302 36.1069C337.282 36.156 337.279 36.2102 337.292 36.2614C337.306 36.3125 337.336 36.3579 337.378 36.3904C337.42 36.423 337.471 36.4411 337.524 36.442Z" fill="url(#paint5_linear_1114_4155)" stroke="#145DB8" stroke-width="0.125" stroke-linecap="round" stroke-linejoin="round"/>
<g filter="url(#filter0_d_1114_4155)">
<g clip-path="url(#clip0_1114_4155)">
<rect x="12.5" y="51" width="339" height="44" rx="12" fill="white"/>
<path d="M63.3011 70.3636C63.2415 69.8598 62.9995 69.4688 62.5753 69.1903C62.151 68.9119 61.6307 68.7727 61.0142 68.7727C60.5634 68.7727 60.169 68.8456 59.831 68.9915C59.4962 69.1373 59.2344 69.3378 59.0455 69.593C58.8598 69.8482 58.767 70.1383 58.767 70.4631C58.767 70.7348 58.8317 70.9685 58.9609 71.1641C59.0935 71.3563 59.2625 71.517 59.468 71.6463C59.6735 71.7723 59.889 71.8767 60.1143 71.9595C60.3397 72.0391 60.5469 72.1037 60.7358 72.1534L61.7699 72.4318C62.035 72.5014 62.33 72.5975 62.6548 72.7202C62.983 72.8428 63.2962 73.0102 63.5945 73.2223C63.8961 73.4311 64.1446 73.6996 64.3402 74.0277C64.5357 74.3558 64.6335 74.7585 64.6335 75.2358C64.6335 75.786 64.4893 76.2831 64.201 76.7273C63.916 77.1714 63.4983 77.5244 62.9482 77.7862C62.4013 78.0481 61.7367 78.179 60.9545 78.179C60.2254 78.179 59.594 78.0613 59.0604 77.826C58.5301 77.5907 58.1125 77.2625 57.8075 76.8416C57.5059 76.4207 57.3352 75.9318 57.2955 75.375H58.5682C58.6013 75.7595 58.7306 76.0777 58.956 76.3295C59.1847 76.5781 59.473 76.7637 59.821 76.8864C60.1723 77.0057 60.5502 77.0653 60.9545 77.0653C61.4252 77.0653 61.8478 76.9891 62.2223 76.8366C62.5968 76.6809 62.8935 76.4654 63.1122 76.1903C63.331 75.9119 63.4403 75.5871 63.4403 75.2159C63.4403 74.8778 63.3459 74.6027 63.157 74.3906C62.968 74.1785 62.7195 74.0062 62.4112 73.8736C62.103 73.741 61.7699 73.625 61.4119 73.5256L60.1591 73.1676C59.3636 72.9389 58.7339 72.6125 58.2699 72.1882C57.8059 71.764 57.5739 71.2088 57.5739 70.5227C57.5739 69.9527 57.728 69.4555 58.0362 69.0312C58.3478 68.6037 58.7654 68.2723 59.2891 68.0369C59.8161 67.7983 60.4044 67.679 61.054 67.679C61.7102 67.679 62.2936 67.7966 62.804 68.032C63.3144 68.264 63.7188 68.5821 64.017 68.9865C64.3187 69.3909 64.4777 69.8499 64.4943 70.3636H63.3011ZM69.7033 78.1591C68.9675 78.1591 68.3328 77.9967 67.7992 77.6719C67.2689 77.3438 66.8596 76.8864 66.5712 76.2997C66.2862 75.7098 66.1436 75.0237 66.1436 74.2415C66.1436 73.4593 66.2862 72.7699 66.5712 72.1733C66.8596 71.5734 67.2606 71.1061 67.7743 70.7713C68.2914 70.4332 68.8946 70.2642 69.584 70.2642C69.9817 70.2642 70.3745 70.3305 70.7623 70.4631C71.15 70.5956 71.503 70.8111 71.8212 71.1094C72.1394 71.4044 72.3929 71.7955 72.5819 72.2827C72.7708 72.7699 72.8652 73.3698 72.8652 74.0824V74.5795H66.9789V73.5653H71.6721C71.6721 73.1345 71.5859 72.75 71.4135 72.4119C71.2445 72.0739 71.0025 71.8071 70.6877 71.6115C70.3761 71.416 70.0082 71.3182 69.584 71.3182C69.1167 71.3182 68.7123 71.4342 68.3709 71.6662C68.0328 71.8949 67.7727 72.1932 67.5904 72.5611C67.4081 72.929 67.3169 73.3234 67.3169 73.7443V74.4205C67.3169 74.9972 67.4164 75.486 67.6152 75.8871C67.8174 76.2848 68.0975 76.5881 68.4554 76.7969C68.8134 77.0024 69.2293 77.1051 69.7033 77.1051C70.0115 77.1051 70.29 77.062 70.5385 76.9759C70.7904 76.8864 71.0075 76.7538 71.1898 76.5781C71.3721 76.3991 71.513 76.1771 71.6124 75.9119L72.7459 76.2301C72.6266 76.6146 72.4261 76.9527 72.1444 77.2443C71.8626 77.5327 71.5146 77.758 71.1003 77.9205C70.686 78.0795 70.2203 78.1591 69.7033 78.1591ZM76.8972 78.179C76.4133 78.179 75.9741 78.0878 75.5797 77.9055C75.1853 77.7199 74.8721 77.4531 74.6401 77.1051C74.4081 76.7538 74.2921 76.3295 74.2921 75.8324C74.2921 75.3949 74.3783 75.0402 74.5506 74.7685C74.723 74.4934 74.9533 74.2779 75.2417 74.1222C75.53 73.9664 75.8482 73.8504 76.1962 73.7741C76.5475 73.6946 76.9005 73.6316 77.2551 73.5852C77.7192 73.5256 78.0953 73.4808 78.3837 73.451C78.6754 73.4179 78.8875 73.3632 79.0201 73.2869C79.156 73.2107 79.2239 73.0781 79.2239 72.8892V72.8494C79.2239 72.3589 79.0897 71.9777 78.8212 71.706C78.556 71.4342 78.1534 71.2983 77.6131 71.2983C77.053 71.2983 76.6138 71.4209 76.2956 71.6662C75.9775 71.9115 75.7537 72.1733 75.6245 72.4517L74.5108 72.054C74.7097 71.59 74.9748 71.2287 75.3063 70.9702C75.641 70.7083 76.0056 70.526 76.4 70.4233C76.7978 70.3172 77.1889 70.2642 77.5733 70.2642C77.8186 70.2642 78.1003 70.294 78.4185 70.3537C78.74 70.41 79.0499 70.5277 79.3482 70.7067C79.6498 70.8857 79.9 71.1558 80.0989 71.517C80.2978 71.8783 80.3972 72.3622 80.3972 72.9688V78H79.2239V76.9659H79.1642C79.0847 77.1316 78.9521 77.3089 78.7665 77.4979C78.5809 77.6868 78.334 77.8475 78.0257 77.9801C77.7175 78.1127 77.3413 78.179 76.8972 78.179ZM77.0762 77.125C77.5402 77.125 77.9313 77.0339 78.2495 76.8516C78.571 76.6693 78.8129 76.4339 78.9753 76.1456C79.141 75.8572 79.2239 75.554 79.2239 75.2358V74.1619C79.1742 74.2216 79.0648 74.2763 78.8958 74.326C78.7301 74.3724 78.5378 74.4138 78.3191 74.4503C78.1036 74.4834 77.8932 74.5133 77.6877 74.5398C77.4855 74.563 77.3214 74.5829 77.1955 74.5994C76.8906 74.6392 76.6055 74.7038 76.3404 74.7933C76.0785 74.8795 75.8664 75.0104 75.704 75.1861C75.5449 75.3584 75.4654 75.5937 75.4654 75.892C75.4654 76.2997 75.6162 76.608 75.9178 76.8168C76.2227 77.0223 76.6088 77.125 77.0762 77.125ZM82.5387 78V70.3636H83.6722V71.517H83.7518C83.891 71.1392 84.1429 70.8326 84.5075 70.5973C84.872 70.362 85.283 70.2443 85.7404 70.2443C85.8266 70.2443 85.9343 70.246 86.0636 70.2493C86.1928 70.2526 86.2906 70.2576 86.3569 70.2642V71.4574C86.3171 71.4474 86.226 71.4325 86.0835 71.4126C85.9442 71.3894 85.7968 71.3778 85.641 71.3778C85.2698 71.3778 84.9383 71.4557 84.6467 71.6115C84.3583 71.764 84.1296 71.9761 83.9606 72.2479C83.7949 72.5163 83.712 72.8229 83.712 73.1676V78H82.5387ZM90.6175 78.1591C89.9016 78.1591 89.2852 77.9901 88.7681 77.652C88.2511 77.3139 87.8533 76.8482 87.5749 76.255C87.2965 75.6617 87.1573 74.9839 87.1573 74.2216C87.1573 73.446 87.2998 72.7616 87.5849 72.1683C87.8732 71.5717 88.2743 71.1061 88.788 70.7713C89.305 70.4332 89.9083 70.2642 90.5977 70.2642C91.1346 70.2642 91.6185 70.3636 92.0494 70.5625C92.4802 70.7614 92.8332 71.0398 93.1083 71.3977C93.3834 71.7557 93.5541 72.1733 93.6204 72.6506H92.4471C92.3576 72.3026 92.1587 71.9943 91.8505 71.7259C91.5456 71.4541 91.1346 71.3182 90.6175 71.3182C90.1602 71.3182 89.7591 71.4375 89.4144 71.6761C89.073 71.9115 88.8062 72.2446 88.614 72.6754C88.4251 73.103 88.3306 73.6051 88.3306 74.1818C88.3306 74.7718 88.4234 75.2855 88.609 75.723C88.7979 76.1605 89.0631 76.5002 89.4045 76.7422C89.7492 76.9841 90.1535 77.1051 90.6175 77.1051C90.9225 77.1051 91.1992 77.0521 91.4478 76.946C91.6964 76.84 91.9068 76.6875 92.0792 76.4886C92.2515 76.2898 92.3742 76.0511 92.4471 75.7727H93.6204C93.5541 76.2235 93.39 76.6295 93.1282 76.9908C92.8697 77.3487 92.5266 77.6338 92.0991 77.8459C91.6748 78.0547 91.181 78.1591 90.6175 78.1591ZM96.5089 73.4062V78H95.3356V67.8182H96.5089V71.5568H96.6083C96.7873 71.1624 97.0558 70.8492 97.4137 70.6172C97.775 70.3819 98.2556 70.2642 98.8555 70.2642C99.3758 70.2642 99.8316 70.3686 100.223 70.5774C100.614 70.7829 100.917 71.0994 101.132 71.527C101.351 71.9512 101.461 72.4915 101.461 73.1477V78H100.287V73.2273C100.287 72.6207 100.13 72.1518 99.815 71.8203C99.5034 71.4856 99.0709 71.3182 98.5174 71.3182C98.1329 71.3182 97.7882 71.3994 97.4833 71.5618C97.1817 71.7242 96.9431 71.9612 96.7674 72.2727C96.5951 72.5843 96.5089 72.9621 96.5089 73.4062ZM107.704 78V67.8182H108.877V71.5767H108.976C109.063 71.4441 109.182 71.2751 109.334 71.0696C109.49 70.8608 109.712 70.6752 110.001 70.5128C110.292 70.3471 110.687 70.2642 111.184 70.2642C111.827 70.2642 112.394 70.425 112.884 70.7464C113.375 71.0679 113.757 71.5237 114.032 72.1136C114.308 72.7036 114.445 73.3996 114.445 74.2017C114.445 75.0104 114.308 75.7114 114.032 76.3047C113.757 76.8946 113.376 77.352 112.889 77.6768C112.402 77.9983 111.84 78.1591 111.204 78.1591C110.713 78.1591 110.32 78.0779 110.025 77.9155C109.73 77.7498 109.503 77.5625 109.344 77.3537C109.185 77.1416 109.063 76.9659 108.976 76.8267H108.837V78H107.704ZM108.857 74.1818C108.857 74.7585 108.942 75.2673 109.111 75.7081C109.28 76.1456 109.527 76.4886 109.851 76.7372C110.176 76.9825 110.574 77.1051 111.045 77.1051C111.535 77.1051 111.944 76.9759 112.273 76.7173C112.604 76.4555 112.853 76.1042 113.018 75.6634C113.187 75.2192 113.272 74.7254 113.272 74.1818C113.272 73.6449 113.189 73.161 113.023 72.7301C112.861 72.2959 112.614 71.9529 112.282 71.701C111.954 71.4458 111.542 71.3182 111.045 71.3182C110.567 71.3182 110.166 71.4392 109.841 71.6811C109.517 71.9197 109.271 72.2545 109.106 72.6854C108.94 73.1129 108.857 73.6117 108.857 74.1818ZM116.722 80.8636C116.523 80.8636 116.346 80.8471 116.19 80.8139C116.034 80.7841 115.927 80.7543 115.867 80.7244L116.165 79.6903C116.45 79.7633 116.702 79.7898 116.921 79.7699C117.14 79.75 117.334 79.6522 117.503 79.4766C117.675 79.3042 117.832 79.0241 117.975 78.6364L118.194 78.0398L115.37 70.3636H116.643L118.751 76.4489H118.83L120.938 70.3636H122.211L118.969 79.1136C118.823 79.508 118.643 79.8345 118.427 80.093C118.212 80.3549 117.962 80.5488 117.677 80.6747C117.395 80.8007 117.077 80.8636 116.722 80.8636Z" fill="#333333"/>
<path d="M134.983 72.0739L133.929 72.3722C133.863 72.1965 133.765 72.0258 133.636 71.8601C133.51 71.6911 133.337 71.5518 133.119 71.4425C132.9 71.3331 132.62 71.2784 132.278 71.2784C131.811 71.2784 131.422 71.3861 131.11 71.6016C130.802 71.8137 130.648 72.0838 130.648 72.4119C130.648 72.7036 130.754 72.9339 130.966 73.103C131.178 73.272 131.509 73.4129 131.96 73.5256L133.094 73.804C133.777 73.9697 134.285 74.2232 134.62 74.5646C134.955 74.9027 135.122 75.3385 135.122 75.8722C135.122 76.3097 134.996 76.7008 134.744 77.0455C134.496 77.3902 134.148 77.6619 133.7 77.8608C133.253 78.0597 132.732 78.1591 132.139 78.1591C131.36 78.1591 130.716 77.9901 130.205 77.652C129.695 77.3139 129.372 76.8201 129.236 76.1705L130.349 75.892C130.455 76.303 130.656 76.6113 130.951 76.8168C131.249 77.0223 131.639 77.125 132.119 77.125C132.666 77.125 133.1 77.009 133.422 76.777C133.747 76.5417 133.909 76.2599 133.909 75.9318C133.909 75.6667 133.816 75.4446 133.631 75.2656C133.445 75.0833 133.16 74.9474 132.776 74.858L131.503 74.5597C130.804 74.3939 130.29 74.1371 129.962 73.7891C129.637 73.4377 129.474 72.9986 129.474 72.4716C129.474 72.0407 129.595 71.6596 129.837 71.3281C130.083 70.9967 130.416 70.7365 130.837 70.5476C131.261 70.3587 131.741 70.2642 132.278 70.2642C133.034 70.2642 133.627 70.4299 134.058 70.7614C134.492 71.0928 134.801 71.5303 134.983 72.0739ZM136.888 80.8636V70.3636H138.022V71.5767H138.161C138.247 71.4441 138.367 71.2751 138.519 71.0696C138.675 70.8608 138.897 70.6752 139.185 70.5128C139.477 70.3471 139.871 70.2642 140.368 70.2642C141.011 70.2642 141.578 70.425 142.069 70.7464C142.559 71.0679 142.942 71.5237 143.217 72.1136C143.492 72.7036 143.63 73.3996 143.63 74.2017C143.63 75.0104 143.492 75.7114 143.217 76.3047C142.942 76.8946 142.561 77.352 142.074 77.6768C141.586 77.9983 141.025 78.1591 140.388 78.1591C139.898 78.1591 139.505 78.0779 139.21 77.9155C138.915 77.7498 138.688 77.5625 138.529 77.3537C138.37 77.1416 138.247 76.9659 138.161 76.8267H138.062V80.8636H136.888ZM138.042 74.1818C138.042 74.7585 138.126 75.2673 138.295 75.7081C138.464 76.1456 138.711 76.4886 139.036 76.7372C139.361 76.9825 139.759 77.1051 140.229 77.1051C140.72 77.1051 141.129 76.9759 141.457 76.7173C141.789 76.4555 142.037 76.1042 142.203 75.6634C142.372 75.2192 142.456 74.7254 142.456 74.1818C142.456 73.6449 142.374 73.161 142.208 72.7301C142.046 72.2959 141.799 71.9529 141.467 71.701C141.139 71.4458 140.726 71.3182 140.229 71.3182C139.752 71.3182 139.351 71.4392 139.026 71.6811C138.701 71.9197 138.456 72.2545 138.29 72.6854C138.125 73.1129 138.042 73.6117 138.042 74.1818ZM148.621 78.1591C147.885 78.1591 147.251 77.9967 146.717 77.6719C146.187 77.3438 145.778 76.8864 145.489 76.2997C145.204 75.7098 145.062 75.0237 145.062 74.2415C145.062 73.4593 145.204 72.7699 145.489 72.1733C145.778 71.5734 146.179 71.1061 146.692 70.7713C147.209 70.4332 147.813 70.2642 148.502 70.2642C148.9 70.2642 149.292 70.3305 149.68 70.4631C150.068 70.5956 150.421 70.8111 150.739 71.1094C151.057 71.4044 151.311 71.7955 151.5 72.2827C151.689 72.7699 151.783 73.3698 151.783 74.0824V74.5795H145.897V73.5653H150.59C150.59 73.1345 150.504 72.75 150.331 72.4119C150.162 72.0739 149.921 71.8071 149.606 71.6115C149.294 71.416 148.926 71.3182 148.502 71.3182C148.035 71.3182 147.63 71.4342 147.289 71.6662C146.951 71.8949 146.691 72.1932 146.508 72.5611C146.326 72.929 146.235 73.3234 146.235 73.7443V74.4205C146.235 74.9972 146.334 75.486 146.533 75.8871C146.735 76.2848 147.015 76.5881 147.373 76.7969C147.731 77.0024 148.147 77.1051 148.621 77.1051C148.93 77.1051 149.208 77.062 149.456 76.9759C149.708 76.8864 149.925 76.7538 150.108 76.5781C150.29 76.3991 150.431 76.1771 150.53 75.9119L151.664 76.2301C151.545 76.6146 151.344 76.9527 151.062 77.2443C150.781 77.5327 150.433 77.758 150.018 77.9205C149.604 78.0795 149.138 78.1591 148.621 78.1591ZM156.67 78.1591C155.954 78.1591 155.338 77.9901 154.821 77.652C154.304 77.3139 153.906 76.8482 153.628 76.255C153.349 75.6617 153.21 74.9839 153.21 74.2216C153.21 73.446 153.353 72.7616 153.638 72.1683C153.926 71.5717 154.327 71.1061 154.841 70.7713C155.358 70.4332 155.961 70.2642 156.65 70.2642C157.187 70.2642 157.671 70.3636 158.102 70.5625C158.533 70.7614 158.886 71.0398 159.161 71.3977C159.436 71.7557 159.607 72.1733 159.673 72.6506H158.5C158.41 72.3026 158.211 71.9943 157.903 71.7259C157.598 71.4541 157.187 71.3182 156.67 71.3182C156.213 71.3182 155.812 71.4375 155.467 71.6761C155.126 71.9115 154.859 72.2446 154.667 72.6754C154.478 73.103 154.383 73.6051 154.383 74.1818C154.383 74.7718 154.476 75.2855 154.662 75.723C154.851 76.1605 155.116 76.5002 155.457 76.7422C155.802 76.9841 156.206 77.1051 156.67 77.1051C156.975 77.1051 157.252 77.0521 157.501 76.946C157.749 76.84 157.96 76.6875 158.132 76.4886C158.304 76.2898 158.427 76.0511 158.5 75.7727H159.673C159.607 76.2235 159.443 76.6295 159.181 76.9908C158.922 77.3487 158.579 77.6338 158.152 77.8459C157.728 78.0547 157.234 78.1591 156.67 78.1591ZM161.388 78V70.3636H162.562V78H161.388ZM161.985 69.0909C161.756 69.0909 161.559 69.013 161.393 68.8572C161.231 68.7015 161.15 68.5142 161.15 68.2955C161.15 68.0767 161.231 67.8894 161.393 67.7337C161.559 67.5779 161.756 67.5 161.985 67.5C162.214 67.5 162.409 67.5779 162.572 67.7337C162.737 67.8894 162.82 68.0767 162.82 68.2955C162.82 68.5142 162.737 68.7015 162.572 68.8572C162.409 69.013 162.214 69.0909 161.985 69.0909ZM166.958 78.179C166.474 78.179 166.035 78.0878 165.64 77.9055C165.246 77.7199 164.933 77.4531 164.701 77.1051C164.469 76.7538 164.353 76.3295 164.353 75.8324C164.353 75.3949 164.439 75.0402 164.611 74.7685C164.783 74.4934 165.014 74.2779 165.302 74.1222C165.591 73.9664 165.909 73.8504 166.257 73.7741C166.608 73.6946 166.961 73.6316 167.316 73.5852C167.78 73.5256 168.156 73.4808 168.444 73.451C168.736 73.4179 168.948 73.3632 169.081 73.2869C169.217 73.2107 169.284 73.0781 169.284 72.8892V72.8494C169.284 72.3589 169.15 71.9777 168.882 71.706C168.617 71.4342 168.214 71.2983 167.674 71.2983C167.114 71.2983 166.674 71.4209 166.356 71.6662C166.038 71.9115 165.814 72.1733 165.685 72.4517L164.571 72.054C164.77 71.59 165.035 71.2287 165.367 70.9702C165.702 70.7083 166.066 70.526 166.461 70.4233C166.858 70.3172 167.249 70.2642 167.634 70.2642C167.879 70.2642 168.161 70.294 168.479 70.3537C168.801 70.41 169.11 70.5277 169.409 70.7067C169.71 70.8857 169.961 71.1558 170.159 71.517C170.358 71.8783 170.458 72.3622 170.458 72.9688V78H169.284V76.9659H169.225C169.145 77.1316 169.013 77.3089 168.827 77.4979C168.641 77.6868 168.395 77.8475 168.086 77.9801C167.778 78.1127 167.402 78.179 166.958 78.179ZM167.137 77.125C167.601 77.125 167.992 77.0339 168.31 76.8516C168.632 76.6693 168.873 76.4339 169.036 76.1456C169.202 75.8572 169.284 75.554 169.284 75.2358V74.1619C169.235 74.2216 169.125 74.2763 168.956 74.326C168.791 74.3724 168.598 74.4138 168.38 74.4503C168.164 74.4834 167.954 74.5133 167.748 74.5398C167.546 74.563 167.382 74.5829 167.256 74.5994C166.951 74.6392 166.666 74.7038 166.401 74.7933C166.139 74.8795 165.927 75.0104 165.765 75.1861C165.605 75.3584 165.526 75.5937 165.526 75.892C165.526 76.2997 165.677 76.608 165.978 76.8168C166.283 77.0223 166.669 77.125 167.137 77.125ZM173.773 67.8182V78H172.599V67.8182H173.773ZM179.243 70.3636V71.358H175.285V70.3636H179.243ZM176.439 68.5341H177.612V75.8125C177.612 76.1439 177.66 76.3925 177.756 76.5582C177.855 76.7206 177.981 76.83 178.134 76.8864C178.29 76.9394 178.454 76.9659 178.626 76.9659C178.755 76.9659 178.861 76.9593 178.944 76.946C179.027 76.9295 179.093 76.9162 179.143 76.9062L179.382 77.9602C179.302 77.9901 179.191 78.0199 179.049 78.0497C178.906 78.0829 178.725 78.0994 178.507 78.0994C178.175 78.0994 177.85 78.0282 177.532 77.8857C177.217 77.7431 176.956 77.526 176.747 77.2344C176.541 76.9427 176.439 76.5748 176.439 76.1307V68.5341ZM181.763 80.8636C181.564 80.8636 181.387 80.8471 181.231 80.8139C181.075 80.7841 180.968 80.7543 180.908 80.7244L181.206 79.6903C181.491 79.7633 181.743 79.7898 181.962 79.7699C182.181 79.75 182.375 79.6522 182.544 79.4766C182.716 79.3042 182.873 79.0241 183.016 78.6364L183.235 78.0398L180.411 70.3636H181.684L183.792 76.4489H183.871L185.979 70.3636H187.252L184.01 79.1136C183.864 79.508 183.684 79.8345 183.468 80.093C183.253 80.3549 183.003 80.5488 182.718 80.6747C182.436 80.8007 182.118 80.8636 181.763 80.8636Z" fill="#333333"/>
<path d="M46 80.5L42.3808 76.8808M42.3808 76.8808C42.9999 76.2617 43.491 75.5268 43.826 74.7179C44.161 73.9091 44.3335 73.0422 44.3335 72.1667C44.3335 71.2912 44.1611 70.4242 43.826 69.6154C43.491 68.8065 42.9999 68.0716 42.3808 67.4525C41.7617 66.8334 41.0268 66.3423 40.2179 66.0073C39.4091 65.6723 38.5422 65.4998 37.6667 65.4998C36.7912 65.4998 35.9242 65.6723 35.1154 66.0073C34.3065 66.3423 33.5716 66.8334 32.9525 67.4525C31.7022 68.7028 30.9998 70.3985 30.9998 72.1667C30.9998 73.9348 31.7022 75.6305 32.9525 76.8808C34.2028 78.1311 35.8985 78.8335 37.6667 78.8335C39.4348 78.8335 41.1305 78.1311 42.3808 76.8808Z" stroke="#333333" stroke-width="0.833333" stroke-linecap="round" stroke-linejoin="round"/>
<rect x="12.5" y="83" width="343" height="12" fill="url(#paint6_linear_1114_4155)"/>
<rect x="355.5" y="63" width="343" height="12" transform="rotate(-180 355.5 63)" fill="url(#paint7_linear_1114_4155)"/>
</g>
<rect x="12.75" y="51.25" width="338.5" height="43.5" rx="11.75" stroke="#145DB8" stroke-width="0.5"/>
</g>
<path d="M17.5238 112.442L21.0106 112.475C21.0523 112.476 21.0932 112.487 21.1293 112.508C21.1654 112.529 21.1957 112.559 21.2173 112.594L22.9893 115.597C23.0165 115.643 23.0578 115.678 23.1069 115.698C23.156 115.718 23.2102 115.721 23.2614 115.708C23.3126 115.694 23.3579 115.664 23.3905 115.622C23.4231 115.58 23.4412 115.529 23.442 115.476L23.4751 111.989C23.4759 111.948 23.4873 111.907 23.5081 111.871C23.529 111.835 23.5587 111.804 23.5944 111.783L26.5975 110.011C26.6429 109.983 26.6783 109.942 26.6981 109.893C26.718 109.844 26.7213 109.79 26.7076 109.739C26.6939 109.687 26.6639 109.642 26.6221 109.61C26.5804 109.577 26.5291 109.559 26.4762 109.558L22.9894 109.525C22.9477 109.524 22.9069 109.513 22.8707 109.492C22.8346 109.471 22.8043 109.441 22.7828 109.406L21.0108 106.402C20.9835 106.357 20.9422 106.322 20.8931 106.302C20.844 106.282 20.7898 106.279 20.7386 106.292C20.6874 106.306 20.6421 106.336 20.6095 106.378C20.577 106.42 20.5589 106.471 20.558 106.524L20.5249 110.011C20.5241 110.052 20.5128 110.093 20.4919 110.129C20.471 110.165 20.4413 110.196 20.4056 110.217L17.4025 111.989C17.3571 112.016 17.3218 112.058 17.3019 112.107C17.282 112.156 17.2787 112.21 17.2924 112.261C17.3061 112.313 17.3361 112.358 17.3779 112.39C17.4196 112.423 17.4709 112.441 17.5238 112.442Z" stroke="#145DB8" stroke-width="0.46875" stroke-linecap="round" stroke-linejoin="round"/>
<path d="M49.5238 112.442L53.0106 112.475C53.0523 112.476 53.0932 112.487 53.1293 112.508C53.1654 112.529 53.1957 112.559 53.2173 112.594L54.9893 115.597C55.0165 115.643 55.0578 115.678 55.1069 115.698C55.156 115.718 55.2102 115.721 55.2614 115.708C55.3126 115.694 55.3579 115.664 55.3905 115.622C55.4231 115.58 55.4412 115.529 55.442 115.476L55.4751 111.989C55.4759 111.948 55.4873 111.907 55.5081 111.871C55.529 111.835 55.5587 111.804 55.5944 111.783L58.5975 110.011C58.6429 109.983 58.6783 109.942 58.6981 109.893C58.718 109.844 58.7213 109.79 58.7076 109.739C58.6939 109.687 58.6639 109.642 58.6221 109.61C58.5804 109.577 58.5291 109.559 58.4762 109.558L54.9894 109.525C54.9477 109.524 54.9069 109.513 54.8707 109.492C54.8346 109.471 54.8043 109.441 54.7828 109.406L53.0108 106.402C52.9835 106.357 52.9422 106.322 52.8931 106.302C52.844 106.282 52.7898 106.279 52.7386 106.292C52.6874 106.306 52.6421 106.336 52.6095 106.378C52.577 106.42 52.5589 106.471 52.558 106.524L52.5249 110.011C52.5241 110.052 52.5128 110.093 52.4919 110.129C52.471 110.165 52.4413 110.196 52.4056 110.217L49.4025 111.989C49.3571 112.016 49.3218 112.058 49.3019 112.107C49.282 112.156 49.2787 112.21 49.2924 112.261C49.3061 112.313 49.3361 112.358 49.3779 112.39C49.4196 112.423 49.4709 112.441 49.5238 112.442Z" stroke="#145DB8" stroke-width="0.46875" stroke-linecap="round" stroke-linejoin="round"/>
<path d="M81.5238 112.442L85.0106 112.475C85.0523 112.476 85.0932 112.487 85.1293 112.508C85.1654 112.529 85.1957 112.559 85.2173 112.594L86.9893 115.597C87.0165 115.643 87.0578 115.678 87.1069 115.698C87.156 115.718 87.2102 115.721 87.2614 115.708C87.3126 115.694 87.3579 115.664 87.3905 115.622C87.4231 115.58 87.4412 115.529 87.442 115.476L87.4751 111.989C87.4759 111.948 87.4873 111.907 87.5081 111.871C87.529 111.835 87.5587 111.804 87.5944 111.783L90.5975 110.011C90.6429 109.983 90.6783 109.942 90.6981 109.893C90.718 109.844 90.7213 109.79 90.7076 109.739C90.6939 109.687 90.6639 109.642 90.6221 109.61C90.5804 109.577 90.5291 109.559 90.4762 109.558L86.9894 109.525C86.9477 109.524 86.9069 109.513 86.8707 109.492C86.8346 109.471 86.8043 109.441 86.7828 109.406L85.0108 106.402C84.9835 106.357 84.9422 106.322 84.8931 106.302C84.844 106.282 84.7898 106.279 84.7386 106.292C84.6874 106.306 84.6421 106.336 84.6095 106.378C84.577 106.42 84.5589 106.471 84.558 106.524L84.5249 110.011C84.5241 110.052 84.5128 110.093 84.4919 110.129C84.471 110.165 84.4413 110.196 84.4056 110.217L81.4025 111.989C81.3571 112.016 81.3218 112.058 81.3019 112.107C81.282 112.156 81.2787 112.21 81.2924 112.261C81.3061 112.313 81.3361 112.358 81.3779 112.39C81.4196 112.423 81.4709 112.441 81.5238 112.442Z" fill="url(#paint8_linear_1114_4155)" stroke="#145DB8" stroke-width="0.125" stroke-linecap="round" stroke-linejoin="round"/>
<path d="M113.524 112.442L117.011 112.475C117.052 112.476 117.093 112.487 117.129 112.508C117.165 112.529 117.196 112.559 117.217 112.594L118.989 115.597C119.017 115.643 119.058 115.678 119.107 115.698C119.156 115.718 119.21 115.721 119.261 115.708C119.313 115.694 119.358 115.664 119.39 115.622C119.423 115.58 119.441 115.529 119.442 115.476L119.475 111.989C119.476 111.948 119.487 111.907 119.508 111.871C119.529 111.835 119.559 111.804 119.594 111.783L122.598 110.011C122.643 109.983 122.678 109.942 122.698 109.893C122.718 109.844 122.721 109.79 122.708 109.739C122.694 109.687 122.664 109.642 122.622 109.61C122.58 109.577 122.529 109.559 122.476 109.558L118.989 109.525C118.948 109.524 118.907 109.513 118.871 109.492C118.835 109.471 118.804 109.441 118.783 109.406L117.011 106.402C116.984 106.357 116.942 106.322 116.893 106.302C116.844 106.282 116.79 106.279 116.739 106.292C116.687 106.306 116.642 106.336 116.61 106.378C116.577 106.42 116.559 106.471 116.558 106.524L116.525 110.011C116.524 110.052 116.513 110.093 116.492 110.129C116.471 110.165 116.441 110.196 116.406 110.217L113.403 111.989C113.357 112.016 113.322 112.058 113.302 112.107C113.282 112.156 113.279 112.21 113.292 112.261C113.306 112.313 113.336 112.358 113.378 112.39C113.42 112.423 113.471 112.441 113.524 112.442Z" stroke="#145DB8" stroke-width="0.46875" stroke-linecap="round" stroke-linejoin="round"/>
<path d="M145.524 112.442L149.011 112.475C149.052 112.476 149.093 112.487 149.129 112.508C149.165 112.529 149.196 112.559 149.217 112.594L150.989 115.597C151.017 115.643 151.058 115.678 151.107 115.698C151.156 115.718 151.21 115.721 151.261 115.708C151.313 115.694 151.358 115.664 151.39 115.622C151.423 115.58 151.441 115.529 151.442 115.476L151.475 111.989C151.476 111.948 151.487 111.907 151.508 111.871C151.529 111.835 151.559 111.804 151.594 111.783L154.598 110.011C154.643 109.983 154.678 109.942 154.698 109.893C154.718 109.844 154.721 109.79 154.708 109.739C154.694 109.687 154.664 109.642 154.622 109.61C154.58 109.577 154.529 109.559 154.476 109.558L150.989 109.525C150.948 109.524 150.907 109.513 150.871 109.492C150.835 109.471 150.804 109.441 150.783 109.406L149.011 106.402C148.984 106.357 148.942 106.322 148.893 106.302C148.844 106.282 148.79 106.279 148.739 106.292C148.687 106.306 148.642 106.336 148.61 106.378C148.577 106.42 148.559 106.471 148.558 106.524L148.525 110.011C148.524 110.052 148.513 110.093 148.492 110.129C148.471 110.165 148.441 110.196 148.406 110.217L145.403 111.989C145.357 112.016 145.322 112.058 145.302 112.107C145.282 112.156 145.279 112.21 145.292 112.261C145.306 112.313 145.336 112.358 145.378 112.39C145.42 112.423 145.471 112.441 145.524 112.442Z" stroke="#145DB8" stroke-width="0.46875" stroke-linecap="round" stroke-linejoin="round"/>
<path d="M177.524 112.442L181.011 112.475C181.052 112.476 181.093 112.487 181.129 112.508C181.165 112.529 181.196 112.559 181.217 112.594L182.989 115.597C183.017 115.643 183.058 115.678 183.107 115.698C183.156 115.718 183.21 115.721 183.261 115.708C183.313 115.694 183.358 115.664 183.39 115.622C183.423 115.58 183.441 115.529 183.442 115.476L183.475 111.989C183.476 111.948 183.487 111.907 183.508 111.871C183.529 111.835 183.559 111.804 183.594 111.783L186.598 110.011C186.643 109.983 186.678 109.942 186.698 109.893C186.718 109.844 186.721 109.79 186.708 109.739C186.694 109.687 186.664 109.642 186.622 109.61C186.58 109.577 186.529 109.559 186.476 109.558L182.989 109.525C182.948 109.524 182.907 109.513 182.871 109.492C182.835 109.471 182.804 109.441 182.783 109.406L181.011 106.402C180.984 106.357 180.942 106.322 180.893 106.302C180.844 106.282 180.79 106.279 180.739 106.292C180.687 106.306 180.642 106.336 180.61 106.378C180.577 106.42 180.559 106.471 180.558 106.524L180.525 110.011C180.524 110.052 180.513 110.093 180.492 110.129C180.471 110.165 180.441 110.196 180.406 110.217L177.403 111.989C177.357 112.016 177.322 112.058 177.302 112.107C177.282 112.156 177.279 112.21 177.292 112.261C177.306 112.313 177.336 112.358 177.378 112.39C177.42 112.423 177.471 112.441 177.524 112.442Z" stroke="#145DB8" stroke-width="0.46875" stroke-linecap="round" stroke-linejoin="round"/>
<path d="M209.524 112.442L213.011 112.475C213.052 112.476 213.093 112.487 213.129 112.508C213.165 112.529 213.196 112.559 213.217 112.594L214.989 115.597C215.017 115.643 215.058 115.678 215.107 115.698C215.156 115.718 215.21 115.721 215.261 115.708C215.313 115.694 215.358 115.664 215.39 115.622C215.423 115.58 215.441 115.529 215.442 115.476L215.475 111.989C215.476 111.948 215.487 111.907 215.508 111.871C215.529 111.835 215.559 111.804 215.594 111.783L218.598 110.011C218.643 109.983 218.678 109.942 218.698 109.893C218.718 109.844 218.721 109.79 218.708 109.739C218.694 109.687 218.664 109.642 218.622 109.61C218.58 109.577 218.529 109.559 218.476 109.558L214.989 109.525C214.948 109.524 214.907 109.513 214.871 109.492C214.835 109.471 214.804 109.441 214.783 109.406L213.011 106.402C212.984 106.357 212.942 106.322 212.893 106.302C212.844 106.282 212.79 106.279 212.739 106.292C212.687 106.306 212.642 106.336 212.61 106.378C212.577 106.42 212.559 106.471 212.558 106.524L212.525 110.011C212.524 110.052 212.513 110.093 212.492 110.129C212.471 110.165 212.441 110.196 212.406 110.217L209.403 111.989C209.357 112.016 209.322 112.058 209.302 112.107C209.282 112.156 209.279 112.21 209.292 112.261C209.306 112.313 209.336 112.358 209.378 112.39C209.42 112.423 209.471 112.441 209.524 112.442Z" fill="url(#paint9_linear_1114_4155)" stroke="#145DB8" stroke-width="0.125" stroke-linecap="round" stroke-linejoin="round"/>
<path d="M241.524 112.442L245.011 112.475C245.052 112.476 245.093 112.487 245.129 112.508C245.165 112.529 245.196 112.559 245.217 112.594L246.989 115.597C247.017 115.643 247.058 115.678 247.107 115.698C247.156 115.718 247.21 115.721 247.261 115.708C247.313 115.694 247.358 115.664 247.39 115.622C247.423 115.58 247.441 115.529 247.442 115.476L247.475 111.989C247.476 111.948 247.487 111.907 247.508 111.871C247.529 111.835 247.559 111.804 247.594 111.783L250.598 110.011C250.643 109.983 250.678 109.942 250.698 109.893C250.718 109.844 250.721 109.79 250.708 109.739C250.694 109.687 250.664 109.642 250.622 109.61C250.58 109.577 250.529 109.559 250.476 109.558L246.989 109.525C246.948 109.524 246.907 109.513 246.871 109.492C246.835 109.471 246.804 109.441 246.783 109.406L245.011 106.402C244.984 106.357 244.942 106.322 244.893 106.302C244.844 106.282 244.79 106.279 244.739 106.292C244.687 106.306 244.642 106.336 244.61 106.378C244.577 106.42 244.559 106.471 244.558 106.524L244.525 110.011C244.524 110.052 244.513 110.093 244.492 110.129C244.471 110.165 244.441 110.196 244.406 110.217L241.403 111.989C241.357 112.016 241.322 112.058 241.302 112.107C241.282 112.156 241.279 112.21 241.292 112.261C241.306 112.313 241.336 112.358 241.378 112.39C241.42 112.423 241.471 112.441 241.524 112.442Z" stroke="#145DB8" stroke-width="0.46875" stroke-linecap="round" stroke-linejoin="round"/>
<path d="M273.524 112.442L277.011 112.475C277.052 112.476 277.093 112.487 277.129 112.508C277.165 112.529 277.196 112.559 277.217 112.594L278.989 115.597C279.017 115.643 279.058 115.678 279.107 115.698C279.156 115.718 279.21 115.721 279.261 115.708C279.313 115.694 279.358 115.664 279.39 115.622C279.423 115.58 279.441 115.529 279.442 115.476L279.475 111.989C279.476 111.948 279.487 111.907 279.508 111.871C279.529 111.835 279.559 111.804 279.594 111.783L282.598 110.011C282.643 109.983 282.678 109.942 282.698 109.893C282.718 109.844 282.721 109.79 282.708 109.739C282.694 109.687 282.664 109.642 282.622 109.61C282.58 109.577 282.529 109.559 282.476 109.558L278.989 109.525C278.948 109.524 278.907 109.513 278.871 109.492C278.835 109.471 278.804 109.441 278.783 109.406L277.011 106.402C276.984 106.357 276.942 106.322 276.893 106.302C276.844 106.282 276.79 106.279 276.739 106.292C276.687 106.306 276.642 106.336 276.61 106.378C276.577 106.42 276.559 106.471 276.558 106.524L276.525 110.011C276.524 110.052 276.513 110.093 276.492 110.129C276.471 110.165 276.441 110.196 276.406 110.217L273.403 111.989C273.357 112.016 273.322 112.058 273.302 112.107C273.282 112.156 273.279 112.21 273.292 112.261C273.306 112.313 273.336 112.358 273.378 112.39C273.42 112.423 273.471 112.441 273.524 112.442Z" stroke="#145DB8" stroke-width="0.46875" stroke-linecap="round" stroke-linejoin="round"/>
<path d="M305.524 112.442L309.011 112.475C309.052 112.476 309.093 112.487 309.129 112.508C309.165 112.529 309.196 112.559 309.217 112.594L310.989 115.597C311.017 115.643 311.058 115.678 311.107 115.698C311.156 115.718 311.21 115.721 311.261 115.708C311.313 115.694 311.358 115.664 311.39 115.622C311.423 115.58 311.441 115.529 311.442 115.476L311.475 111.989C311.476 111.948 311.487 111.907 311.508 111.871C311.529 111.835 311.559 111.804 311.594 111.783L314.598 110.011C314.643 109.983 314.678 109.942 314.698 109.893C314.718 109.844 314.721 109.79 314.708 109.739C314.694 109.687 314.664 109.642 314.622 109.61C314.58 109.577 314.529 109.559 314.476 109.558L310.989 109.525C310.948 109.524 310.907 109.513 310.871 109.492C310.835 109.471 310.804 109.441 310.783 109.406L309.011 106.402C308.984 106.357 308.942 106.322 308.893 106.302C308.844 106.282 308.79 106.279 308.739 106.292C308.687 106.306 308.642 106.336 308.61 106.378C308.577 106.42 308.559 106.471 308.558 106.524L308.525 110.011C308.524 110.052 308.513 110.093 308.492 110.129C308.471 110.165 308.441 110.196 308.406 110.217L305.403 111.989C305.357 112.016 305.322 112.058 305.302 112.107C305.282 112.156 305.279 112.21 305.292 112.261C305.306 112.313 305.336 112.358 305.378 112.39C305.42 112.423 305.471 112.441 305.524 112.442Z" stroke="#145DB8" stroke-width="0.46875" stroke-linecap="round" stroke-linejoin="round"/>
<path d="M337.524 112.442L341.011 112.475C341.052 112.476 341.093 112.487 341.129 112.508C341.165 112.529 341.196 112.559 341.217 112.594L342.989 115.597C343.017 115.643 343.058 115.678 343.107 115.698C343.156 115.718 343.21 115.721 343.261 115.708C343.313 115.694 343.358 115.664 343.39 115.622C343.423 115.58 343.441 115.529 343.442 115.476L343.475 111.989C343.476 111.948 343.487 111.907 343.508 111.871C343.529 111.835 343.559 111.804 343.594 111.783L346.598 110.011C346.643 109.983 346.678 109.942 346.698 109.893C346.718 109.844 346.721 109.79 346.708 109.739C346.694 109.687 346.664 109.642 346.622 109.61C346.58 109.577 346.529 109.559 346.476 109.558L342.989 109.525C342.948 109.524 342.907 109.513 342.871 109.492C342.835 109.471 342.804 109.441 342.783 109.406L341.011 106.402C340.984 106.357 340.942 106.322 340.893 106.302C340.844 106.282 340.79 106.279 340.739 106.292C340.687 106.306 340.642 106.336 340.61 106.378C340.577 106.42 340.559 106.471 340.558 106.524L340.525 110.011C340.524 110.052 340.513 110.093 340.492 110.129C340.471 110.165 340.441 110.196 340.406 110.217L337.403 111.989C337.357 112.016 337.322 112.058 337.302 112.107C337.282 112.156 337.279 112.21 337.292 112.261C337.306 112.313 337.336 112.358 337.378 112.39C337.42 112.423 337.471 112.441 337.524 112.442Z" fill="url(#paint10_linear_1114_4155)" stroke="#145DB8" stroke-width="0.125" stroke-linecap="round" stroke-linejoin="round"/>
<path d="M17.5238 139.442L21.0106 139.475C21.0523 139.476 21.0932 139.487 21.1293 139.508C21.1654 139.529 21.1957 139.559 21.2173 139.594L22.9893 142.597C23.0165 142.643 23.0578 142.678 23.1069 142.698C23.156 142.718 23.2102 142.721 23.2614 142.708C23.3126 142.694 23.3579 142.664 23.3905 142.622C23.4231 142.58 23.4412 142.529 23.442 142.476L23.4751 138.989C23.4759 138.948 23.4873 138.907 23.5081 138.871C23.529 138.835 23.5587 138.804 23.5944 138.783L26.5975 137.011C26.6429 136.983 26.6783 136.942 26.6981 136.893C26.718 136.844 26.7213 136.79 26.7076 136.739C26.6939 136.687 26.6639 136.642 26.6221 136.61C26.5804 136.577 26.5291 136.559 26.4762 136.558L22.9894 136.525C22.9477 136.524 22.9069 136.513 22.8707 136.492C22.8346 136.471 22.8043 136.441 22.7828 136.406L21.0108 133.402C20.9835 133.357 20.9422 133.322 20.8931 133.302C20.844 133.282 20.7898 133.279 20.7386 133.292C20.6874 133.306 20.6421 133.336 20.6095 133.378C20.577 133.42 20.5589 133.471 20.558 133.524L20.5249 137.011C20.5241 137.052 20.5128 137.093 20.4919 137.129C20.471 137.165 20.4413 137.196 20.4056 137.217L17.4025 138.989C17.3571 139.016 17.3218 139.058 17.3019 139.107C17.282 139.156 17.2787 139.21 17.2924 139.261C17.3061 139.313 17.3361 139.358 17.3779 139.39C17.4196 139.423 17.4709 139.441 17.5238 139.442Z" stroke="#145DB8" stroke-width="0.46875" stroke-linecap="round" stroke-linejoin="round"/>
<path d="M49.5238 139.442L53.0106 139.475C53.0523 139.476 53.0932 139.487 53.1293 139.508C53.1654 139.529 53.1957 139.559 53.2173 139.594L54.9893 142.597C55.0165 142.643 55.0578 142.678 55.1069 142.698C55.156 142.718 55.2102 142.721 55.2614 142.708C55.3126 142.694 55.3579 142.664 55.3905 142.622C55.4231 142.58 55.4412 142.529 55.442 142.476L55.4751 138.989C55.4759 138.948 55.4873 138.907 55.5081 138.871C55.529 138.835 55.5587 138.804 55.5944 138.783L58.5975 137.011C58.6429 136.983 58.6783 136.942 58.6981 136.893C58.718 136.844 58.7213 136.79 58.7076 136.739C58.6939 136.687 58.6639 136.642 58.6221 136.61C58.5804 136.577 58.5291 136.559 58.4762 136.558L54.9894 136.525C54.9477 136.524 54.9069 136.513 54.8707 136.492C54.8346 136.471 54.8043 136.441 54.7828 136.406L53.0108 133.402C52.9835 133.357 52.9422 133.322 52.8931 133.302C52.844 133.282 52.7898 133.279 52.7386 133.292C52.6874 133.306 52.6421 133.336 52.6095 133.378C52.577 133.42 52.5589 133.471 52.558 133.524L52.5249 137.011C52.5241 137.052 52.5128 137.093 52.4919 137.129C52.471 137.165 52.4413 137.196 52.4056 137.217L49.4025 138.989C49.3571 139.016 49.3218 139.058 49.3019 139.107C49.282 139.156 49.2787 139.21 49.2924 139.261C49.3061 139.313 49.3361 139.358 49.3779 139.39C49.4196 139.423 49.4709 139.441 49.5238 139.442Z" stroke="#145DB8" stroke-width="0.46875" stroke-linecap="round" stroke-linejoin="round"/>
<path d="M81.5238 139.442L85.0106 139.475C85.0523 139.476 85.0932 139.487 85.1293 139.508C85.1654 139.529 85.1957 139.559 85.2173 139.594L86.9893 142.597C87.0165 142.643 87.0578 142.678 87.1069 142.698C87.156 142.718 87.2102 142.721 87.2614 142.708C87.3126 142.694 87.3579 142.664 87.3905 142.622C87.4231 142.58 87.4412 142.529 87.442 142.476L87.4751 138.989C87.4759 138.948 87.4873 138.907 87.5081 138.871C87.529 138.835 87.5587 138.804 87.5944 138.783L90.5975 137.011C90.6429 136.983 90.6783 136.942 90.6981 136.893C90.718 136.844 90.7213 136.79 90.7076 136.739C90.6939 136.687 90.6639 136.642 90.6221 136.61C90.5804 136.577 90.5291 136.559 90.4762 136.558L86.9894 136.525C86.9477 136.524 86.9069 136.513 86.8707 136.492C86.8346 136.471 86.8043 136.441 86.7828 136.406L85.0108 133.402C84.9835 133.357 84.9422 133.322 84.8931 133.302C84.844 133.282 84.7898 133.279 84.7386 133.292C84.6874 133.306 84.6421 133.336 84.6095 133.378C84.577 133.42 84.5589 133.471 84.558 133.524L84.5249 137.011C84.5241 137.052 84.5128 137.093 84.4919 137.129C84.471 137.165 84.4413 137.196 84.4056 137.217L81.4025 138.989C81.3571 139.016 81.3218 139.058 81.3019 139.107C81.282 139.156 81.2787 139.21 81.2924 139.261C81.3061 139.313 81.3361 139.358 81.3779 139.39C81.4196 139.423 81.4709 139.441 81.5238 139.442Z" fill="url(#paint11_linear_1114_4155)" stroke="#145DB8" stroke-width="0.125" stroke-linecap="round" stroke-linejoin="round"/>
<path d="M113.524 139.442L117.011 139.475C117.052 139.476 117.093 139.487 117.129 139.508C117.165 139.529 117.196 139.559 117.217 139.594L118.989 142.597C119.017 142.643 119.058 142.678 119.107 142.698C119.156 142.718 119.21 142.721 119.261 142.708C119.313 142.694 119.358 142.664 119.39 142.622C119.423 142.58 119.441 142.529 119.442 142.476L119.475 138.989C119.476 138.948 119.487 138.907 119.508 138.871C119.529 138.835 119.559 138.804 119.594 138.783L122.598 137.011C122.643 136.983 122.678 136.942 122.698 136.893C122.718 136.844 122.721 136.79 122.708 136.739C122.694 136.687 122.664 136.642 122.622 136.61C122.58 136.577 122.529 136.559 122.476 136.558L118.989 136.525C118.948 136.524 118.907 136.513 118.871 136.492C118.835 136.471 118.804 136.441 118.783 136.406L117.011 133.402C116.984 133.357 116.942 133.322 116.893 133.302C116.844 133.282 116.79 133.279 116.739 133.292C116.687 133.306 116.642 133.336 116.61 133.378C116.577 133.42 116.559 133.471 116.558 133.524L116.525 137.011C116.524 137.052 116.513 137.093 116.492 137.129C116.471 137.165 116.441 137.196 116.406 137.217L113.403 138.989C113.357 139.016 113.322 139.058 113.302 139.107C113.282 139.156 113.279 139.21 113.292 139.261C113.306 139.313 113.336 139.358 113.378 139.39C113.42 139.423 113.471 139.441 113.524 139.442Z" stroke="#145DB8" stroke-width="0.46875" stroke-linecap="round" stroke-linejoin="round"/>
<path d="M145.524 139.442L149.011 139.475C149.052 139.476 149.093 139.487 149.129 139.508C149.165 139.529 149.196 139.559 149.217 139.594L150.989 142.597C151.017 142.643 151.058 142.678 151.107 142.698C151.156 142.718 151.21 142.721 151.261 142.708C151.313 142.694 151.358 142.664 151.39 142.622C151.423 142.58 151.441 142.529 151.442 142.476L151.475 138.989C151.476 138.948 151.487 138.907 151.508 138.871C151.529 138.835 151.559 138.804 151.594 138.783L154.598 137.011C154.643 136.983 154.678 136.942 154.698 136.893C154.718 136.844 154.721 136.79 154.708 136.739C154.694 136.687 154.664 136.642 154.622 136.61C154.58 136.577 154.529 136.559 154.476 136.558L150.989 136.525C150.948 136.524 150.907 136.513 150.871 136.492C150.835 136.471 150.804 136.441 150.783 136.406L149.011 133.402C148.984 133.357 148.942 133.322 148.893 133.302C148.844 133.282 148.79 133.279 148.739 133.292C148.687 133.306 148.642 133.336 148.61 133.378C148.577 133.42 148.559 133.471 148.558 133.524L148.525 137.011C148.524 137.052 148.513 137.093 148.492 137.129C148.471 137.165 148.441 137.196 148.406 137.217L145.403 138.989C145.357 139.016 145.322 139.058 145.302 139.107C145.282 139.156 145.279 139.21 145.292 139.261C145.306 139.313 145.336 139.358 145.378 139.39C145.42 139.423 145.471 139.441 145.524 139.442Z" stroke="#145DB8" stroke-width="0.46875" stroke-linecap="round" stroke-linejoin="round"/>
<path d="M177.524 139.442L181.011 139.475C181.052 139.476 181.093 139.487 181.129 139.508C181.165 139.529 181.196 139.559 181.217 139.594L182.989 142.597C183.017 142.643 183.058 142.678 183.107 142.698C183.156 142.718 183.21 142.721 183.261 142.708C183.313 142.694 183.358 142.664 183.39 142.622C183.423 142.58 183.441 142.529 183.442 142.476L183.475 138.989C183.476 138.948 183.487 138.907 183.508 138.871C183.529 138.835 183.559 138.804 183.594 138.783L186.598 137.011C186.643 136.983 186.678 136.942 186.698 136.893C186.718 136.844 186.721 136.79 186.708 136.739C186.694 136.687 186.664 136.642 186.622 136.61C186.58 136.577 186.529 136.559 186.476 136.558L182.989 136.525C182.948 136.524 182.907 136.513 182.871 136.492C182.835 136.471 182.804 136.441 182.783 136.406L181.011 133.402C180.984 133.357 180.942 133.322 180.893 133.302C180.844 133.282 180.79 133.279 180.739 133.292C180.687 133.306 180.642 133.336 180.61 133.378C180.577 133.42 180.559 133.471 180.558 133.524L180.525 137.011C180.524 137.052 180.513 137.093 180.492 137.129C180.471 137.165 180.441 137.196 180.406 137.217L177.403 138.989C177.357 139.016 177.322 139.058 177.302 139.107C177.282 139.156 177.279 139.21 177.292 139.261C177.306 139.313 177.336 139.358 177.378 139.39C177.42 139.423 177.471 139.441 177.524 139.442Z" stroke="#145DB8" stroke-width="0.46875" stroke-linecap="round" stroke-linejoin="round"/>
<path d="M209.524 139.442L213.011 139.475C213.052 139.476 213.093 139.487 213.129 139.508C213.165 139.529 213.196 139.559 213.217 139.594L214.989 142.597C215.017 142.643 215.058 142.678 215.107 142.698C215.156 142.718 215.21 142.721 215.261 142.708C215.313 142.694 215.358 142.664 215.39 142.622C215.423 142.58 215.441 142.529 215.442 142.476L215.475 138.989C215.476 138.948 215.487 138.907 215.508 138.871C215.529 138.835 215.559 138.804 215.594 138.783L218.598 137.011C218.643 136.983 218.678 136.942 218.698 136.893C218.718 136.844 218.721 136.79 218.708 136.739C218.694 136.687 218.664 136.642 218.622 136.61C218.58 136.577 218.529 136.559 218.476 136.558L214.989 136.525C214.948 136.524 214.907 136.513 214.871 136.492C214.835 136.471 214.804 136.441 214.783 136.406L213.011 133.402C212.984 133.357 212.942 133.322 212.893 133.302C212.844 133.282 212.79 133.279 212.739 133.292C212.687 133.306 212.642 133.336 212.61 133.378C212.577 133.42 212.559 133.471 212.558 133.524L212.525 137.011C212.524 137.052 212.513 137.093 212.492 137.129C212.471 137.165 212.441 137.196 212.406 137.217L209.403 138.989C209.357 139.016 209.322 139.058 209.302 139.107C209.282 139.156 209.279 139.21 209.292 139.261C209.306 139.313 209.336 139.358 209.378 139.39C209.42 139.423 209.471 139.441 209.524 139.442Z" fill="url(#paint12_linear_1114_4155)" stroke="#145DB8" stroke-width="0.125" stroke-linecap="round" stroke-linejoin="round"/>
<path d="M241.524 139.442L245.011 139.475C245.052 139.476 245.093 139.487 245.129 139.508C245.165 139.529 245.196 139.559 245.217 139.594L246.989 142.597C247.017 142.643 247.058 142.678 247.107 142.698C247.156 142.718 247.21 142.721 247.261 142.708C247.313 142.694 247.358 142.664 247.39 142.622C247.423 142.58 247.441 142.529 247.442 142.476L247.475 138.989C247.476 138.948 247.487 138.907 247.508 138.871C247.529 138.835 247.559 138.804 247.594 138.783L250.598 137.011C250.643 136.983 250.678 136.942 250.698 136.893C250.718 136.844 250.721 136.79 250.708 136.739C250.694 136.687 250.664 136.642 250.622 136.61C250.58 136.577 250.529 136.559 250.476 136.558L246.989 136.525C246.948 136.524 246.907 136.513 246.871 136.492C246.835 136.471 246.804 136.441 246.783 136.406L245.011 133.402C244.984 133.357 244.942 133.322 244.893 133.302C244.844 133.282 244.79 133.279 244.739 133.292C244.687 133.306 244.642 133.336 244.61 133.378C244.577 133.42 244.559 133.471 244.558 133.524L244.525 137.011C244.524 137.052 244.513 137.093 244.492 137.129C244.471 137.165 244.441 137.196 244.406 137.217L241.403 138.989C241.357 139.016 241.322 139.058 241.302 139.107C241.282 139.156 241.279 139.21 241.292 139.261C241.306 139.313 241.336 139.358 241.378 139.39C241.42 139.423 241.471 139.441 241.524 139.442Z" stroke="#145DB8" stroke-width="0.46875" stroke-linecap="round" stroke-linejoin="round"/>
<path d="M273.524 139.442L277.011 139.475C277.052 139.476 277.093 139.487 277.129 139.508C277.165 139.529 277.196 139.559 277.217 139.594L278.989 142.597C279.017 142.643 279.058 142.678 279.107 142.698C279.156 142.718 279.21 142.721 279.261 142.708C279.313 142.694 279.358 142.664 279.39 142.622C279.423 142.58 279.441 142.529 279.442 142.476L279.475 138.989C279.476 138.948 279.487 138.907 279.508 138.871C279.529 138.835 279.559 138.804 279.594 138.783L282.598 137.011C282.643 136.983 282.678 136.942 282.698 136.893C282.718 136.844 282.721 136.79 282.708 136.739C282.694 136.687 282.664 136.642 282.622 136.61C282.58 136.577 282.529 136.559 282.476 136.558L278.989 136.525C278.948 136.524 278.907 136.513 278.871 136.492C278.835 136.471 278.804 136.441 278.783 136.406L277.011 133.402C276.984 133.357 276.942 133.322 276.893 133.302C276.844 133.282 276.79 133.279 276.739 133.292C276.687 133.306 276.642 133.336 276.61 133.378C276.577 133.42 276.559 133.471 276.558 133.524L276.525 137.011C276.524 137.052 276.513 137.093 276.492 137.129C276.471 137.165 276.441 137.196 276.406 137.217L273.403 138.989C273.357 139.016 273.322 139.058 273.302 139.107C273.282 139.156 273.279 139.21 273.292 139.261C273.306 139.313 273.336 139.358 273.378 139.39C273.42 139.423 273.471 139.441 273.524 139.442Z" stroke="#145DB8" stroke-width="0.46875" stroke-linecap="round" stroke-linejoin="round"/>
<path d="M305.524 139.442L309.011 139.475C309.052 139.476 309.093 139.487 309.129 139.508C309.165 139.529 309.196 139.559 309.217 139.594L310.989 142.597C311.017 142.643 311.058 142.678 311.107 142.698C311.156 142.718 311.21 142.721 311.261 142.708C311.313 142.694 311.358 142.664 311.39 142.622C311.423 142.58 311.441 142.529 311.442 142.476L311.475 138.989C311.476 138.948 311.487 138.907 311.508 138.871C311.529 138.835 311.559 138.804 311.594 138.783L314.598 137.011C314.643 136.983 314.678 136.942 314.698 136.893C314.718 136.844 314.721 136.79 314.708 136.739C314.694 136.687 314.664 136.642 314.622 136.61C314.58 136.577 314.529 136.559 314.476 136.558L310.989 136.525C310.948 136.524 310.907 136.513 310.871 136.492C310.835 136.471 310.804 136.441 310.783 136.406L309.011 133.402C308.984 133.357 308.942 133.322 308.893 133.302C308.844 133.282 308.79 133.279 308.739 133.292C308.687 133.306 308.642 133.336 308.61 133.378C308.577 133.42 308.559 133.471 308.558 133.524L308.525 137.011C308.524 137.052 308.513 137.093 308.492 137.129C308.471 137.165 308.441 137.196 308.406 137.217L305.403 138.989C305.357 139.016 305.322 139.058 305.302 139.107C305.282 139.156 305.279 139.21 305.292 139.261C305.306 139.313 305.336 139.358 305.378 139.39C305.42 139.423 305.471 139.441 305.524 139.442Z" stroke="#145DB8" stroke-width="0.46875" stroke-linecap="round" stroke-linejoin="round"/>
<path d="M337.524 139.442L341.011 139.475C341.052 139.476 341.093 139.487 341.129 139.508C341.165 139.529 341.196 139.559 341.217 139.594L342.989 142.597C343.017 142.643 343.058 142.678 343.107 142.698C343.156 142.718 343.21 142.721 343.261 142.708C343.313 142.694 343.358 142.664 343.39 142.622C343.423 142.58 343.441 142.529 343.442 142.476L343.475 138.989C343.476 138.948 343.487 138.907 343.508 138.871C343.529 138.835 343.559 138.804 343.594 138.783L346.598 137.011C346.643 136.983 346.678 136.942 346.698 136.893C346.718 136.844 346.721 136.79 346.708 136.739C346.694 136.687 346.664 136.642 346.622 136.61C346.58 136.577 346.529 136.559 346.476 136.558L342.989 136.525C342.948 136.524 342.907 136.513 342.871 136.492C342.835 136.471 342.804 136.441 342.783 136.406L341.011 133.402C340.984 133.357 340.942 133.322 340.893 133.302C340.844 133.282 340.79 133.279 340.739 133.292C340.687 133.306 340.642 133.336 340.61 133.378C340.577 133.42 340.559 133.471 340.558 133.524L340.525 137.011C340.524 137.052 340.513 137.093 340.492 137.129C340.471 137.165 340.441 137.196 340.406 137.217L337.403 138.989C337.357 139.016 337.322 139.058 337.302 139.107C337.282 139.156 337.279 139.21 337.292 139.261C337.306 139.313 337.336 139.358 337.378 139.39C337.42 139.423 337.471 139.441 337.524 139.442Z" fill="url(#paint13_linear_1114_4155)" stroke="#145DB8" stroke-width="0.125" stroke-linecap="round" stroke-linejoin="round"/>
<defs>
<filter id="filter0_d_1114_4155" x="0.5" y="39" width="363" height="68" filterUnits="userSpaceOnUse" color-interpolation-filters="sRGB">
<feFlood flood-opacity="0" result="BackgroundImageFix"/>
<feColorMatrix in="SourceAlpha" type="matrix" values="0 0 0 0 0 0 0 0 0 0 0 0 0 0 0 0 0 0 127 0" result="hardAlpha"/>
<feOffset/>
<feGaussianBlur stdDeviation="6"/>
<feComposite in2="hardAlpha" operator="out"/>
<feColorMatrix type="matrix" values="0 0 0 0 0.2 0 0 0 0 0.2 0 0 0 0 0.2 0 0 0 0.1 0"/>
<feBlend mode="normal" in2="BackgroundImageFix" result="effect1_dropShadow_1114_4155"/>
<feBlend mode="normal" in="SourceGraphic" in2="effect1_dropShadow_1114_4155" result="shape"/>
</filter>
<linearGradient id="paint0_linear_1114_4155" x1="82.9908" y1="4.99195" x2="89.0092" y2="11.008" gradientUnits="userSpaceOnUse">
<stop stop-color="#1877F2"/>
<stop offset="0.5" stop-color="#1877F2"/>
<stop offset="1" stop-color="#1877F2"/>
</linearGradient>
<linearGradient id="paint1_linear_1114_4155" x1="210.991" y1="4.99195" x2="217.009" y2="11.008" gradientUnits="userSpaceOnUse">
<stop stop-color="#1877F2"/>
<stop offset="0.5" stop-color="#1877F2"/>
<stop offset="1" stop-color="#1877F2"/>
</linearGradient>
<linearGradient id="paint2_linear_1114_4155" x1="338.991" y1="4.99195" x2="345.009" y2="11.008" gradientUnits="userSpaceOnUse">
<stop stop-color="#1877F2"/>
<stop offset="0.5" stop-color="#1877F2"/>
<stop offset="1" stop-color="#1877F2"/>
</linearGradient>
<linearGradient id="paint3_linear_1114_4155" x1="82.9908" y1="31.9919" x2="89.0092" y2="38.008" gradientUnits="userSpaceOnUse">
<stop stop-color="#1877F2"/>
<stop offset="0.5" stop-color="#1877F2"/>
<stop offset="1" stop-color="#1877F2"/>
</linearGradient>
<linearGradient id="paint4_linear_1114_4155" x1="210.991" y1="31.9919" x2="217.009" y2="38.008" gradientUnits="userSpaceOnUse">
<stop stop-color="#1877F2"/>
<stop offset="0.5" stop-color="#1877F2"/>
<stop offset="1" stop-color="#1877F2"/>
</linearGradient>
<linearGradient id="paint5_linear_1114_4155" x1="338.991" y1="31.9919" x2="345.009" y2="38.008" gradientUnits="userSpaceOnUse">
<stop stop-color="#1877F2"/>
<stop offset="0.5" stop-color="#1877F2"/>
<stop offset="1" stop-color="#1877F2"/>
</linearGradient>
<linearGradient id="paint6_linear_1114_4155" x1="184" y1="83" x2="184" y2="95" gradientUnits="userSpaceOnUse">
<stop stop-color="white" stop-opacity="0"/>
<stop offset="1" stop-color="white"/>
</linearGradient>
<linearGradient id="paint7_linear_1114_4155" x1="527" y1="63" x2="527" y2="75" gradientUnits="userSpaceOnUse">
<stop stop-color="white" stop-opacity="0"/>
<stop offset="1" stop-color="white"/>
</linearGradient>
<linearGradient id="paint8_linear_1114_4155" x1="82.9908" y1="107.992" x2="89.0092" y2="114.008" gradientUnits="userSpaceOnUse">
<stop stop-color="#1877F2"/>
<stop offset="0.5" stop-color="#1877F2"/>
<stop offset="1" stop-color="#1877F2"/>
</linearGradient>
<linearGradient id="paint9_linear_1114_4155" x1="210.991" y1="107.992" x2="217.009" y2="114.008" gradientUnits="userSpaceOnUse">
<stop stop-color="#1877F2"/>
<stop offset="0.5" stop-color="#1877F2"/>
<stop offset="1" stop-color="#1877F2"/>
</linearGradient>
<linearGradient id="paint10_linear_1114_4155" x1="338.991" y1="107.992" x2="345.009" y2="114.008" gradientUnits="userSpaceOnUse">
<stop stop-color="#1877F2"/>
<stop offset="0.5" stop-color="#1877F2"/>
<stop offset="1" stop-color="#1877F2"/>
</linearGradient>
<linearGradient id="paint11_linear_1114_4155" x1="82.9908" y1="134.992" x2="89.0092" y2="141.008" gradientUnits="userSpaceOnUse">
<stop stop-color="#1877F2"/>
<stop offset="0.5" stop-color="#1877F2"/>
<stop offset="1" stop-color="#1877F2"/>
</linearGradient>
<linearGradient id="paint12_linear_1114_4155" x1="210.991" y1="134.992" x2="217.009" y2="141.008" gradientUnits="userSpaceOnUse">
<stop stop-color="#1877F2"/>
<stop offset="0.5" stop-color="#1877F2"/>
<stop offset="1" stop-color="#1877F2"/>
</linearGradient>
<linearGradient id="paint13_linear_1114_4155" x1="338.991" y1="134.992" x2="345.009" y2="141.008" gradientUnits="userSpaceOnUse">
<stop stop-color="#1877F2"/>
<stop offset="0.5" stop-color="#1877F2"/>
<stop offset="1" stop-color="#1877F2"/>
</linearGradient>
<clipPath id="clip0_1114_4155">
<rect x="12.5" y="51" width="339" height="44" rx="12" fill="white"/>
</clipPath>
</defs>
</svg>
