<svg width="338" height="190" viewBox="0 0 338 190" fill="none" xmlns="http://www.w3.org/2000/svg">
<path d="M23.25 1V33.5C23.25 36.8137 25.9363 39.5 29.25 39.5H330.75C334.064 39.5 336.75 42.1863 336.75 45.5V94C336.75 97.3137 334.064 100 330.75 100H7.25001C3.9363 100 1.25 102.686 1.25 106V155.5C1.25 158.814 3.93629 161.5 7.25 161.5H40.25" stroke="url(#paint0_linear_1131_4789)" stroke-width="1.5" stroke-linecap="round"/>
<g filter="url(#filter0_d_1131_4789)">
<rect x="28.5" y="141.5" width="281" height="36" rx="4" fill="white" shape-rendering="crispEdges"/>
<path d="M44.775 160.325C44.8583 160.325 46.7917 160.408 47.9417 160.125H47.95C49.275 159.8 51.1167 158.867 51.5917 155.817C51.5917 155.817 52.65 152 47.4 152H42.8917C42.4833 152 42.1333 152.3 42.0667 152.7L40.15 164.833C40.1083 165.083 40.3083 165.317 40.5583 165.317H43.4167L44.1167 160.883C44.1667 160.567 44.4417 160.325 44.775 160.325Z" fill="#011F63"/>
<path d="M52.325 156.408C51.65 159.517 49.525 161.158 46.1417 161.158H44.9167L44.0583 166.592C44.025 166.808 44.1917 167 44.4083 167H45.9917C46.275 167 46.525 166.792 46.5667 166.508C46.6333 166.175 47 163.742 47.075 163.325C47.1167 163.042 47.3667 162.833 47.65 162.833H48.0167C50.3667 162.833 52.2083 161.875 52.75 159.117C52.9667 158 52.85 157.083 52.325 156.408Z" fill="#0296D7"/>
<path d="M62.66 159.356H67.1V160.112H62.66V159.356ZM62.756 163.232H67.808V164H61.868V155.6H67.628V156.368H62.756V163.232ZM73.5696 164V162.608L73.5336 162.38V160.052C73.5336 159.516 73.3816 159.104 73.0776 158.816C72.7816 158.528 72.3376 158.384 71.7456 158.384C71.3376 158.384 70.9496 158.452 70.5816 158.588C70.2136 158.724 69.9016 158.904 69.6456 159.128L69.2616 158.492C69.5816 158.22 69.9656 158.012 70.4136 157.868C70.8616 157.716 71.3336 157.64 71.8296 157.64C72.6456 157.64 73.2736 157.844 73.7136 158.252C74.1616 158.652 74.3856 159.264 74.3856 160.088V164H73.5696ZM71.3976 164.06C70.9256 164.06 70.5136 163.984 70.1616 163.832C69.8176 163.672 69.5536 163.456 69.3696 163.184C69.1856 162.904 69.0936 162.584 69.0936 162.224C69.0936 161.896 69.1696 161.6 69.3216 161.336C69.4816 161.064 69.7376 160.848 70.0896 160.688C70.4496 160.52 70.9296 160.436 71.5296 160.436H73.7016V161.072H71.5536C70.9456 161.072 70.5216 161.18 70.2816 161.396C70.0496 161.612 69.9336 161.88 69.9336 162.2C69.9336 162.56 70.0736 162.848 70.3536 163.064C70.6336 163.28 71.0256 163.388 71.5296 163.388C72.0096 163.388 72.4216 163.28 72.7656 163.064C73.1176 162.84 73.3736 162.52 73.5336 162.104L73.7256 162.692C73.5656 163.108 73.2856 163.44 72.8856 163.688C72.4936 163.936 71.9976 164.06 71.3976 164.06ZM78.3917 164.06C77.8717 164.06 77.3797 163.988 76.9157 163.844C76.4517 163.692 76.0877 163.504 75.8237 163.28L76.2077 162.608C76.4637 162.8 76.7917 162.968 77.1917 163.112C77.5917 163.248 78.0117 163.316 78.4517 163.316C79.0517 163.316 79.4837 163.224 79.7477 163.04C80.0117 162.848 80.1437 162.596 80.1437 162.284C80.1437 162.052 80.0677 161.872 79.9157 161.744C79.7717 161.608 79.5797 161.508 79.3397 161.444C79.0997 161.372 78.8317 161.312 78.5357 161.264C78.2397 161.216 77.9437 161.16 77.6477 161.096C77.3597 161.032 77.0957 160.94 76.8557 160.82C76.6157 160.692 76.4197 160.52 76.2677 160.304C76.1237 160.088 76.0517 159.8 76.0517 159.44C76.0517 159.096 76.1477 158.788 76.3397 158.516C76.5317 158.244 76.8117 158.032 77.1797 157.88C77.5557 157.72 78.0117 157.64 78.5477 157.64C78.9557 157.64 79.3637 157.696 79.7717 157.808C80.1797 157.912 80.5157 158.052 80.7797 158.228L80.4077 158.912C80.1277 158.72 79.8277 158.584 79.5077 158.504C79.1877 158.416 78.8677 158.372 78.5477 158.372C77.9797 158.372 77.5597 158.472 77.2877 158.672C77.0237 158.864 76.8917 159.112 76.8917 159.416C76.8917 159.656 76.9637 159.844 77.1077 159.98C77.2597 160.116 77.4557 160.224 77.6957 160.304C77.9437 160.376 78.2117 160.436 78.4997 160.484C78.7957 160.532 79.0877 160.592 79.3757 160.664C79.6717 160.728 79.9397 160.82 80.1797 160.94C80.4277 161.052 80.6237 161.216 80.7677 161.432C80.9197 161.64 80.9957 161.916 80.9957 162.26C80.9957 162.628 80.8917 162.948 80.6837 163.22C80.4837 163.484 80.1877 163.692 79.7957 163.844C79.4117 163.988 78.9437 164.06 78.3917 164.06ZM82.4899 166.388C82.1939 166.388 81.9099 166.34 81.6379 166.244C81.3739 166.148 81.1459 166.004 80.9539 165.812L81.3499 165.176C81.5099 165.328 81.6819 165.444 81.8659 165.524C82.0579 165.612 82.2699 165.656 82.5019 165.656C82.7819 165.656 83.0219 165.576 83.2219 165.416C83.4299 165.264 83.6259 164.992 83.8099 164.6L84.2179 163.676L84.3139 163.544L86.9059 157.7H87.7459L84.5899 164.756C84.4139 165.164 84.2179 165.488 84.0019 165.728C83.7939 165.968 83.5659 166.136 83.3179 166.232C83.0699 166.336 82.7939 166.388 82.4899 166.388ZM84.1699 164.18L81.2659 157.7H82.1539L84.7219 163.484L84.1699 164.18ZM96.0344 164V162.608L95.9984 162.38V160.052C95.9984 159.516 95.8464 159.104 95.5424 158.816C95.2464 158.528 94.8024 158.384 94.2104 158.384C93.8024 158.384 93.4144 158.452 93.0464 158.588C92.6784 158.724 92.3664 158.904 92.1104 159.128L91.7264 158.492C92.0464 158.22 92.4304 158.012 92.8784 157.868C93.3264 157.716 93.7984 157.64 94.2944 157.64C95.1104 157.64 95.7384 157.844 96.1784 158.252C96.6264 158.652 96.8504 159.264 96.8504 160.088V164H96.0344ZM93.8624 164.06C93.3904 164.06 92.9784 163.984 92.6264 163.832C92.2824 163.672 92.0184 163.456 91.8344 163.184C91.6504 162.904 91.5584 162.584 91.5584 162.224C91.5584 161.896 91.6344 161.6 91.7864 161.336C91.9464 161.064 92.2024 160.848 92.5544 160.688C92.9144 160.52 93.3944 160.436 93.9944 160.436H96.1664V161.072H94.0184C93.4104 161.072 92.9864 161.18 92.7464 161.396C92.5144 161.612 92.3984 161.88 92.3984 162.2C92.3984 162.56 92.5384 162.848 92.8184 163.064C93.0984 163.28 93.4904 163.388 93.9944 163.388C94.4744 163.388 94.8864 163.28 95.2304 163.064C95.5824 162.84 95.8384 162.52 95.9984 162.104L96.1904 162.692C96.0304 163.108 95.7504 163.44 95.3504 163.688C94.9584 163.936 94.4624 164.06 93.8624 164.06ZM102.381 157.64C102.893 157.64 103.341 157.74 103.725 157.94C104.117 158.132 104.421 158.428 104.637 158.828C104.861 159.228 104.973 159.732 104.973 160.34V164H104.121V160.424C104.121 159.76 103.953 159.26 103.617 158.924C103.289 158.58 102.825 158.408 102.225 158.408C101.777 158.408 101.385 158.5 101.049 158.684C100.721 158.86 100.465 159.12 100.281 159.464C100.105 159.8 100.017 160.208 100.017 160.688V164H99.1646V157.7H99.9806V159.428L99.8486 159.104C100.049 158.648 100.369 158.292 100.809 158.036C101.249 157.772 101.773 157.64 102.381 157.64ZM109.782 164.06C109.182 164.06 108.642 163.924 108.162 163.652C107.69 163.38 107.318 163.004 107.046 162.524C106.774 162.036 106.638 161.476 106.638 160.844C106.638 160.204 106.774 159.644 107.046 159.164C107.318 158.684 107.69 158.312 108.162 158.048C108.642 157.776 109.182 157.64 109.782 157.64C110.334 157.64 110.826 157.764 111.258 158.012C111.698 158.26 112.046 158.624 112.302 159.104C112.566 159.576 112.698 160.156 112.698 160.844C112.698 161.524 112.57 162.104 112.314 162.584C112.058 163.064 111.71 163.432 111.27 163.688C110.838 163.936 110.342 164.06 109.782 164.06ZM109.842 163.304C110.29 163.304 110.69 163.204 111.042 163.004C111.402 162.796 111.682 162.508 111.882 162.14C112.09 161.764 112.194 161.332 112.194 160.844C112.194 160.348 112.09 159.916 111.882 159.548C111.682 159.18 111.402 158.896 111.042 158.696C110.69 158.488 110.29 158.384 109.842 158.384C109.402 158.384 109.006 158.488 108.654 158.696C108.302 158.896 108.022 159.18 107.814 159.548C107.606 159.916 107.502 160.348 107.502 160.844C107.502 161.332 107.606 161.764 107.814 162.14C108.022 162.508 108.302 162.796 108.654 163.004C109.006 163.204 109.402 163.304 109.842 163.304ZM112.218 164V162.104L112.302 160.832L112.182 159.56V155.096H113.034V164H112.218ZM120.239 164.06C119.719 164.06 119.227 163.988 118.763 163.844C118.299 163.692 117.935 163.504 117.671 163.28L118.055 162.608C118.311 162.8 118.639 162.968 119.039 163.112C119.439 163.248 119.859 163.316 120.299 163.316C120.899 163.316 121.331 163.224 121.595 163.04C121.859 162.848 121.991 162.596 121.991 162.284C121.991 162.052 121.915 161.872 121.763 161.744C121.619 161.608 121.427 161.508 121.187 161.444C120.947 161.372 120.679 161.312 120.383 161.264C120.087 161.216 119.791 161.16 119.495 161.096C119.207 161.032 118.943 160.94 118.703 160.82C118.463 160.692 118.267 160.52 118.115 160.304C117.971 160.088 117.899 159.8 117.899 159.44C117.899 159.096 117.995 158.788 118.187 158.516C118.379 158.244 118.659 158.032 119.027 157.88C119.403 157.72 119.859 157.64 120.395 157.64C120.803 157.64 121.211 157.696 121.619 157.808C122.027 157.912 122.363 158.052 122.627 158.228L122.255 158.912C121.975 158.72 121.675 158.584 121.355 158.504C121.035 158.416 120.715 158.372 120.395 158.372C119.827 158.372 119.407 158.472 119.135 158.672C118.871 158.864 118.739 159.112 118.739 159.416C118.739 159.656 118.811 159.844 118.955 159.98C119.107 160.116 119.303 160.224 119.543 160.304C119.791 160.376 120.059 160.436 120.347 160.484C120.643 160.532 120.935 160.592 121.223 160.664C121.519 160.728 121.787 160.82 122.027 160.94C122.275 161.052 122.471 161.216 122.615 161.432C122.767 161.64 122.843 161.916 122.843 162.26C122.843 162.628 122.739 162.948 122.531 163.22C122.331 163.484 122.035 163.692 121.643 163.844C121.259 163.988 120.791 164.06 120.239 164.06ZM128.355 164V162.608L128.319 162.38V160.052C128.319 159.516 128.167 159.104 127.863 158.816C127.567 158.528 127.123 158.384 126.531 158.384C126.123 158.384 125.735 158.452 125.367 158.588C124.999 158.724 124.687 158.904 124.431 159.128L124.047 158.492C124.367 158.22 124.751 158.012 125.199 157.868C125.647 157.716 126.119 157.64 126.615 157.64C127.431 157.64 128.059 157.844 128.499 158.252C128.947 158.652 129.171 159.264 129.171 160.088V164H128.355ZM126.183 164.06C125.711 164.06 125.299 163.984 124.947 163.832C124.603 163.672 124.339 163.456 124.155 163.184C123.971 162.904 123.879 162.584 123.879 162.224C123.879 161.896 123.955 161.6 124.107 161.336C124.267 161.064 124.523 160.848 124.875 160.688C125.235 160.52 125.715 160.436 126.315 160.436H128.487V161.072H126.339C125.731 161.072 125.307 161.18 125.067 161.396C124.835 161.612 124.719 161.88 124.719 162.2C124.719 162.56 124.859 162.848 125.139 163.064C125.419 163.28 125.811 163.388 126.315 163.388C126.795 163.388 127.207 163.28 127.551 163.064C127.903 162.84 128.159 162.52 128.319 162.104L128.511 162.692C128.351 163.108 128.071 163.44 127.671 163.688C127.279 163.936 126.783 164.06 126.183 164.06ZM131.629 164V156.908C131.629 156.348 131.793 155.896 132.121 155.552C132.449 155.208 132.921 155.036 133.537 155.036C133.777 155.036 134.009 155.068 134.233 155.132C134.457 155.196 134.645 155.296 134.797 155.432L134.509 156.068C134.389 155.964 134.249 155.888 134.089 155.84C133.929 155.784 133.757 155.756 133.573 155.756C133.213 155.756 132.937 155.856 132.745 156.056C132.553 156.256 132.457 156.552 132.457 156.944V157.904L132.481 158.3V164H131.629ZM130.501 158.408V157.7H134.401V158.408H130.501ZM138.122 164.06C137.466 164.06 136.89 163.924 136.394 163.652C135.898 163.372 135.51 162.992 135.23 162.512C134.95 162.024 134.81 161.468 134.81 160.844C134.81 160.22 134.942 159.668 135.206 159.188C135.478 158.708 135.846 158.332 136.31 158.06C136.782 157.78 137.31 157.64 137.894 157.64C138.486 157.64 139.01 157.776 139.466 158.048C139.93 158.312 140.294 158.688 140.558 159.176C140.822 159.656 140.954 160.212 140.954 160.844C140.954 160.884 140.95 160.928 140.942 160.976C140.942 161.016 140.942 161.06 140.942 161.108H135.458V160.472H140.486L140.15 160.724C140.15 160.268 140.05 159.864 139.85 159.512C139.658 159.152 139.394 158.872 139.058 158.672C138.722 158.472 138.334 158.372 137.894 158.372C137.462 158.372 137.074 158.472 136.73 158.672C136.386 158.872 136.118 159.152 135.926 159.512C135.734 159.872 135.638 160.284 135.638 160.748V160.88C135.638 161.36 135.742 161.784 135.95 162.152C136.166 162.512 136.462 162.796 136.838 163.004C137.222 163.204 137.658 163.304 138.146 163.304C138.53 163.304 138.886 163.236 139.214 163.1C139.55 162.964 139.838 162.756 140.078 162.476L140.558 163.028C140.278 163.364 139.926 163.62 139.502 163.796C139.086 163.972 138.626 164.06 138.122 164.06ZM147.113 164L144.737 157.7H145.553L147.713 163.544H147.341L149.561 157.7H150.293L152.489 163.544H152.117L154.313 157.7H155.093L152.705 164H151.901L149.789 158.504H150.041L147.917 164H147.113ZM156.376 164V157.7H157.228V164H156.376ZM156.808 156.308C156.632 156.308 156.484 156.248 156.364 156.128C156.244 156.008 156.184 155.864 156.184 155.696C156.184 155.528 156.244 155.388 156.364 155.276C156.484 155.156 156.632 155.096 156.808 155.096C156.984 155.096 157.132 155.152 157.252 155.264C157.372 155.376 157.432 155.516 157.432 155.684C157.432 155.86 157.372 156.008 157.252 156.128C157.14 156.248 156.992 156.308 156.808 156.308ZM161.59 164.06C160.998 164.06 160.542 163.9 160.222 163.58C159.902 163.26 159.742 162.808 159.742 162.224V156.308H160.594V162.176C160.594 162.544 160.686 162.828 160.87 163.028C161.062 163.228 161.334 163.328 161.686 163.328C162.062 163.328 162.374 163.22 162.622 163.004L162.922 163.616C162.754 163.768 162.55 163.88 162.31 163.952C162.078 164.024 161.838 164.06 161.59 164.06ZM158.614 158.408V157.7H162.514V158.408H158.614ZM167.689 157.64C168.201 157.64 168.649 157.74 169.033 157.94C169.425 158.132 169.729 158.428 169.945 158.828C170.169 159.228 170.281 159.732 170.281 160.34V164H169.429V160.424C169.429 159.76 169.261 159.26 168.925 158.924C168.597 158.58 168.133 158.408 167.533 158.408C167.085 158.408 166.693 158.5 166.357 158.684C166.029 158.86 165.773 159.12 165.589 159.464C165.413 159.8 165.325 160.208 165.325 160.688V164H164.473V155.096H165.325V159.428L165.157 159.104C165.357 158.648 165.677 158.292 166.117 158.036C166.557 157.772 167.081 157.64 167.689 157.64ZM175.771 166.388C175.475 166.388 175.191 166.34 174.919 166.244C174.655 166.148 174.427 166.004 174.235 165.812L174.631 165.176C174.791 165.328 174.963 165.444 175.147 165.524C175.339 165.612 175.551 165.656 175.783 165.656C176.063 165.656 176.303 165.576 176.503 165.416C176.711 165.264 176.907 164.992 177.091 164.6L177.499 163.676L177.595 163.544L180.187 157.7H181.027L177.871 164.756C177.695 165.164 177.499 165.488 177.283 165.728C177.075 165.968 176.847 166.136 176.599 166.232C176.351 166.336 176.075 166.388 175.771 166.388ZM177.451 164.18L174.547 157.7H175.435L178.003 163.484L177.451 164.18ZM184.619 164.06C184.011 164.06 183.463 163.924 182.975 163.652C182.495 163.372 182.115 162.992 181.835 162.512C181.555 162.024 181.415 161.468 181.415 160.844C181.415 160.212 181.555 159.656 181.835 159.176C182.115 158.696 182.495 158.32 182.975 158.048C183.455 157.776 184.003 157.64 184.619 157.64C185.243 157.64 185.795 157.776 186.275 158.048C186.763 158.32 187.143 158.696 187.415 159.176C187.695 159.656 187.835 160.212 187.835 160.844C187.835 161.468 187.695 162.024 187.415 162.512C187.143 162.992 186.763 163.372 186.275 163.652C185.787 163.924 185.235 164.06 184.619 164.06ZM184.619 163.304C185.075 163.304 185.479 163.204 185.831 163.004C186.183 162.796 186.459 162.508 186.659 162.14C186.867 161.764 186.971 161.332 186.971 160.844C186.971 160.348 186.867 159.916 186.659 159.548C186.459 159.18 186.183 158.896 185.831 158.696C185.479 158.488 185.079 158.384 184.631 158.384C184.183 158.384 183.783 158.488 183.431 158.696C183.079 158.896 182.799 159.18 182.591 159.548C182.383 159.916 182.279 160.348 182.279 160.844C182.279 161.332 182.383 161.764 182.591 162.14C182.799 162.508 183.079 162.796 183.431 163.004C183.783 163.204 184.179 163.304 184.619 163.304ZM192.179 164.06C191.643 164.06 191.175 163.96 190.775 163.76C190.375 163.56 190.063 163.26 189.839 162.86C189.623 162.46 189.515 161.96 189.515 161.36V157.7H190.367V161.264C190.367 161.936 190.531 162.444 190.859 162.788C191.195 163.124 191.663 163.292 192.263 163.292C192.703 163.292 193.083 163.204 193.403 163.028C193.731 162.844 193.979 162.58 194.147 162.236C194.323 161.892 194.411 161.48 194.411 161V157.7H195.263V164H194.447V162.272L194.579 162.584C194.379 163.048 194.067 163.412 193.643 163.676C193.227 163.932 192.739 164.06 192.179 164.06ZM197.637 164V157.7H198.453V159.416L198.369 159.116C198.545 158.636 198.841 158.272 199.257 158.024C199.673 157.768 200.189 157.64 200.805 157.64V158.468C200.773 158.468 200.741 158.468 200.709 158.468C200.677 158.46 200.645 158.456 200.613 158.456C199.949 158.456 199.429 158.66 199.053 159.068C198.677 159.468 198.489 160.04 198.489 160.784V164H197.637ZM205.774 164V155.6H208.918C209.63 155.6 210.242 155.716 210.754 155.948C211.266 156.172 211.658 156.5 211.93 156.932C212.21 157.356 212.35 157.872 212.35 158.48C212.35 159.072 212.21 159.584 211.93 160.016C211.658 160.44 211.266 160.768 210.754 161C210.242 161.232 209.63 161.348 208.918 161.348H206.266L206.662 160.928V164H205.774ZM206.662 161L206.266 160.568H208.894C209.734 160.568 210.37 160.388 210.802 160.028C211.242 159.66 211.462 159.144 211.462 158.48C211.462 157.808 211.242 157.288 210.802 156.92C210.37 156.552 209.734 156.368 208.894 156.368H206.266L206.662 155.948V161ZM217.98 164V162.608L217.944 162.38V160.052C217.944 159.516 217.792 159.104 217.488 158.816C217.192 158.528 216.748 158.384 216.156 158.384C215.748 158.384 215.36 158.452 214.992 158.588C214.624 158.724 214.312 158.904 214.056 159.128L213.672 158.492C213.992 158.22 214.376 158.012 214.824 157.868C215.272 157.716 215.744 157.64 216.24 157.64C217.056 157.64 217.684 157.844 218.124 158.252C218.572 158.652 218.796 159.264 218.796 160.088V164H217.98ZM215.808 164.06C215.336 164.06 214.924 163.984 214.572 163.832C214.228 163.672 213.964 163.456 213.78 163.184C213.596 162.904 213.504 162.584 213.504 162.224C213.504 161.896 213.58 161.6 213.732 161.336C213.892 161.064 214.148 160.848 214.5 160.688C214.86 160.52 215.34 160.436 215.94 160.436H218.112V161.072H215.964C215.356 161.072 214.932 161.18 214.692 161.396C214.46 161.612 214.344 161.88 214.344 162.2C214.344 162.56 214.484 162.848 214.764 163.064C215.044 163.28 215.436 163.388 215.94 163.388C216.42 163.388 216.832 163.28 217.176 163.064C217.528 162.84 217.784 162.52 217.944 162.104L218.136 162.692C217.976 163.108 217.696 163.44 217.296 163.688C216.904 163.936 216.408 164.06 215.808 164.06ZM221.041 166.388C220.745 166.388 220.461 166.34 220.189 166.244C219.925 166.148 219.697 166.004 219.505 165.812L219.901 165.176C220.061 165.328 220.233 165.444 220.417 165.524C220.609 165.612 220.821 165.656 221.053 165.656C221.333 165.656 221.573 165.576 221.773 165.416C221.981 165.264 222.177 164.992 222.361 164.6L222.769 163.676L222.865 163.544L225.457 157.7H226.297L223.141 164.756C222.965 165.164 222.769 165.488 222.553 165.728C222.345 165.968 222.117 166.136 221.869 166.232C221.621 166.336 221.345 166.388 221.041 166.388ZM222.721 164.18L219.817 157.7H220.705L223.273 163.484L222.721 164.18ZM227.677 164V155.6H230.821C231.533 155.6 232.145 155.716 232.657 155.948C233.169 156.172 233.561 156.5 233.833 156.932C234.113 157.356 234.253 157.872 234.253 158.48C234.253 159.072 234.113 159.584 233.833 160.016C233.561 160.44 233.169 160.768 232.657 161C232.145 161.232 231.533 161.348 230.821 161.348H228.169L228.565 160.928V164H227.677ZM228.565 161L228.169 160.568H230.797C231.637 160.568 232.273 160.388 232.705 160.028C233.145 159.66 233.365 159.144 233.365 158.48C233.365 157.808 233.145 157.288 232.705 156.92C232.273 156.552 231.637 156.368 230.797 156.368H228.169L228.565 155.948V161ZM239.882 164V162.608L239.846 162.38V160.052C239.846 159.516 239.694 159.104 239.39 158.816C239.094 158.528 238.65 158.384 238.058 158.384C237.65 158.384 237.262 158.452 236.894 158.588C236.526 158.724 236.214 158.904 235.958 159.128L235.574 158.492C235.894 158.22 236.278 158.012 236.726 157.868C237.174 157.716 237.646 157.64 238.142 157.64C238.958 157.64 239.586 157.844 240.026 158.252C240.474 158.652 240.698 159.264 240.698 160.088V164H239.882ZM237.71 164.06C237.238 164.06 236.826 163.984 236.474 163.832C236.13 163.672 235.866 163.456 235.682 163.184C235.498 162.904 235.406 162.584 235.406 162.224C235.406 161.896 235.482 161.6 235.634 161.336C235.794 161.064 236.05 160.848 236.402 160.688C236.762 160.52 237.242 160.436 237.842 160.436H240.014V161.072H237.866C237.258 161.072 236.834 161.18 236.594 161.396C236.362 161.612 236.246 161.88 236.246 162.2C236.246 162.56 236.386 162.848 236.666 163.064C236.946 163.28 237.338 163.388 237.842 163.388C238.322 163.388 238.734 163.28 239.078 163.064C239.43 162.84 239.686 162.52 239.846 162.104L240.038 162.692C239.878 163.108 239.598 163.44 239.198 163.688C238.806 163.936 238.31 164.06 237.71 164.06ZM243.012 164V155.096H243.864V164H243.012ZM253.324 164V162.608L253.288 162.38V160.052C253.288 159.516 253.136 159.104 252.832 158.816C252.536 158.528 252.092 158.384 251.5 158.384C251.092 158.384 250.704 158.452 250.336 158.588C249.968 158.724 249.656 158.904 249.4 159.128L249.016 158.492C249.336 158.22 249.72 158.012 250.168 157.868C250.616 157.716 251.088 157.64 251.584 157.64C252.4 157.64 253.028 157.844 253.468 158.252C253.916 158.652 254.14 159.264 254.14 160.088V164H253.324ZM251.152 164.06C250.68 164.06 250.268 163.984 249.916 163.832C249.572 163.672 249.308 163.456 249.124 163.184C248.94 162.904 248.848 162.584 248.848 162.224C248.848 161.896 248.924 161.6 249.076 161.336C249.236 161.064 249.492 160.848 249.844 160.688C250.204 160.52 250.684 160.436 251.284 160.436H253.456V161.072H251.308C250.7 161.072 250.276 161.18 250.036 161.396C249.804 161.612 249.688 161.88 249.688 162.2C249.688 162.56 249.828 162.848 250.108 163.064C250.388 163.28 250.78 163.388 251.284 163.388C251.764 163.388 252.176 163.28 252.52 163.064C252.872 162.84 253.128 162.52 253.288 162.104L253.48 162.692C253.32 163.108 253.04 163.44 252.64 163.688C252.248 163.936 251.752 164.06 251.152 164.06ZM259.07 164.06C258.446 164.06 257.886 163.924 257.39 163.652C256.902 163.372 256.518 162.992 256.238 162.512C255.958 162.024 255.818 161.468 255.818 160.844C255.818 160.212 255.958 159.656 256.238 159.176C256.518 158.696 256.902 158.32 257.39 158.048C257.886 157.776 258.446 157.64 259.07 157.64C259.606 157.64 260.09 157.744 260.522 157.952C260.954 158.16 261.294 158.472 261.542 158.888L260.906 159.32C260.69 159 260.422 158.764 260.102 158.612C259.782 158.46 259.434 158.384 259.058 158.384C258.61 158.384 258.206 158.488 257.846 158.696C257.486 158.896 257.202 159.18 256.994 159.548C256.786 159.916 256.682 160.348 256.682 160.844C256.682 161.34 256.786 161.772 256.994 162.14C257.202 162.508 257.486 162.796 257.846 163.004C258.206 163.204 258.61 163.304 259.058 163.304C259.434 163.304 259.782 163.228 260.102 163.076C260.422 162.924 260.69 162.692 260.906 162.38L261.542 162.812C261.294 163.22 260.954 163.532 260.522 163.748C260.09 163.956 259.606 164.06 259.07 164.06ZM265.726 164.06C265.102 164.06 264.542 163.924 264.046 163.652C263.558 163.372 263.174 162.992 262.894 162.512C262.614 162.024 262.474 161.468 262.474 160.844C262.474 160.212 262.614 159.656 262.894 159.176C263.174 158.696 263.558 158.32 264.046 158.048C264.542 157.776 265.102 157.64 265.726 157.64C266.262 157.64 266.746 157.744 267.178 157.952C267.61 158.16 267.95 158.472 268.198 158.888L267.562 159.32C267.346 159 267.078 158.764 266.758 158.612C266.438 158.46 266.09 158.384 265.714 158.384C265.266 158.384 264.862 158.488 264.502 158.696C264.142 158.896 263.858 159.18 263.65 159.548C263.442 159.916 263.338 160.348 263.338 160.844C263.338 161.34 263.442 161.772 263.65 162.14C263.858 162.508 264.142 162.796 264.502 163.004C264.862 163.204 265.266 163.304 265.714 163.304C266.09 163.304 266.438 163.228 266.758 163.076C267.078 162.924 267.346 162.692 267.562 162.38L268.198 162.812C267.95 163.22 267.61 163.532 267.178 163.748C266.746 163.956 266.262 164.06 265.726 164.06ZM272.334 164.06C271.726 164.06 271.178 163.924 270.69 163.652C270.21 163.372 269.83 162.992 269.55 162.512C269.27 162.024 269.13 161.468 269.13 160.844C269.13 160.212 269.27 159.656 269.55 159.176C269.83 158.696 270.21 158.32 270.69 158.048C271.17 157.776 271.718 157.64 272.334 157.64C272.958 157.64 273.51 157.776 273.99 158.048C274.478 158.32 274.858 158.696 275.13 159.176C275.41 159.656 275.55 160.212 275.55 160.844C275.55 161.468 275.41 162.024 275.13 162.512C274.858 162.992 274.478 163.372 273.99 163.652C273.502 163.924 272.95 164.06 272.334 164.06ZM272.334 163.304C272.79 163.304 273.194 163.204 273.546 163.004C273.898 162.796 274.174 162.508 274.374 162.14C274.582 161.764 274.686 161.332 274.686 160.844C274.686 160.348 274.582 159.916 274.374 159.548C274.174 159.18 273.898 158.896 273.546 158.696C273.194 158.488 272.794 158.384 272.346 158.384C271.898 158.384 271.498 158.488 271.146 158.696C270.794 158.896 270.514 159.18 270.306 159.548C270.098 159.916 269.994 160.348 269.994 160.844C269.994 161.332 270.098 161.764 270.306 162.14C270.514 162.508 270.794 162.796 271.146 163.004C271.498 163.204 271.894 163.304 272.334 163.304ZM279.894 164.06C279.358 164.06 278.89 163.96 278.49 163.76C278.09 163.56 277.778 163.26 277.554 162.86C277.338 162.46 277.23 161.96 277.23 161.36V157.7H278.082V161.264C278.082 161.936 278.246 162.444 278.574 162.788C278.91 163.124 279.378 163.292 279.978 163.292C280.418 163.292 280.798 163.204 281.118 163.028C281.446 162.844 281.694 162.58 281.862 162.236C282.038 161.892 282.126 161.48 282.126 161V157.7H282.978V164H282.162V162.272L282.294 162.584C282.094 163.048 281.782 163.412 281.358 163.676C280.942 163.932 280.454 164.06 279.894 164.06ZM288.568 157.64C289.08 157.64 289.528 157.74 289.912 157.94C290.304 158.132 290.608 158.428 290.824 158.828C291.048 159.228 291.16 159.732 291.16 160.34V164H290.308V160.424C290.308 159.76 290.14 159.26 289.804 158.924C289.476 158.58 289.012 158.408 288.412 158.408C287.964 158.408 287.572 158.5 287.236 158.684C286.908 158.86 286.652 159.12 286.468 159.464C286.292 159.8 286.204 160.208 286.204 160.688V164H285.352V157.7H286.168V159.428L286.036 159.104C286.236 158.648 286.556 158.292 286.996 158.036C287.436 157.772 287.96 157.64 288.568 157.64ZM295.453 164.06C294.861 164.06 294.405 163.9 294.085 163.58C293.765 163.26 293.605 162.808 293.605 162.224V156.308H294.457V162.176C294.457 162.544 294.549 162.828 294.733 163.028C294.925 163.228 295.197 163.328 295.549 163.328C295.925 163.328 296.237 163.22 296.485 163.004L296.785 163.616C296.617 163.768 296.413 163.88 296.173 163.952C295.941 164.024 295.701 164.06 295.453 164.06ZM292.477 158.408V157.7H296.377V158.408H292.477Z" fill="#05162C"/>
</g>
<g filter="url(#filter1_d_1131_4789)">
<rect x="13.5" y="82" width="231" height="36" rx="4" fill="white" shape-rendering="crispEdges"/>
<g clip-path="url(#clip0_1131_4789)">
<path d="M22.3 93.72C21.8583 93.72 21.5 94.0781 21.5 94.52V105.48C21.5 105.922 21.8584 106.28 22.3 106.28H40.7C41.1417 106.28 41.5 105.922 41.5 105.48V94.52C41.5 94.0782 41.1416 93.72 40.7 93.72H22.3ZM33.445 97.4631C33.9318 97.4631 34.3219 97.5706 34.5706 97.6706L34.4006 98.74L34.2881 98.6831C34.0564 98.5831 33.7587 98.4869 33.3481 98.4937C32.8566 98.4937 32.6294 98.713 32.6294 98.9181C32.6265 99.1493 32.8949 99.3017 33.3337 99.53C34.0581 99.8822 34.3929 100.309 34.3881 100.871C34.3784 101.895 33.5217 102.557 32.2019 102.557C31.6388 102.551 31.0964 102.431 30.8031 102.294L30.9794 101.189L31.1413 101.267C31.5536 101.452 31.8206 101.526 32.3231 101.526C32.684 101.526 33.0713 101.375 33.0744 101.044C33.0767 100.828 32.9125 100.674 32.4237 100.432C31.9475 100.196 31.3161 99.8009 31.3231 99.0919C31.3306 98.1326 32.2044 97.4631 33.445 97.4631ZM23.2687 97.62H25.2956C25.5686 97.6303 25.7889 97.7182 25.865 98.0144L26.3019 100.269C26.3019 100.27 26.3018 100.27 26.3019 100.271L26.4331 100.946L27.6637 97.62H28.995L27.0162 102.489L25.6862 102.49L24.6275 98.5612C25.2575 98.895 25.7938 99.2811 26.1044 99.8125C26.0243 99.6443 25.9188 99.4545 25.7838 99.2675C25.6265 99.0496 25.2869 98.7684 25.145 98.6487C24.6504 98.2318 23.9787 97.895 23.2531 97.7169L23.2687 97.62ZM29.5244 97.6256H30.8263L30.0119 102.487H28.71L29.5244 97.6256ZM36.8775 97.6256H37.8638L38.8963 102.487H37.7125C37.7125 102.487 37.5951 101.928 37.5569 101.758C37.3708 101.758 36.0695 101.756 35.9231 101.756C35.8736 101.888 35.6544 102.487 35.6544 102.487H34.315L36.2094 98.0294C36.3435 97.7126 36.5721 97.6256 36.8775 97.6256ZM36.9744 98.9331C36.9103 99.1139 36.7988 99.4059 36.8062 99.3931C36.8062 99.3931 36.4055 100.462 36.3006 100.739L37.3537 100.739C37.2559 100.275 37.158 99.8116 37.06 99.3481L36.9744 98.9331V98.9331Z" fill="#145DB8"/>
</g>
<path d="M49.184 104.572C48.56 104.572 47.96 104.472 47.384 104.272C46.816 104.064 46.376 103.8 46.064 103.48L46.412 102.796C46.708 103.084 47.104 103.328 47.6 103.528C48.104 103.72 48.632 103.816 49.184 103.816C49.712 103.816 50.14 103.752 50.468 103.624C50.804 103.488 51.048 103.308 51.2 103.084C51.36 102.86 51.44 102.612 51.44 102.34C51.44 102.012 51.344 101.748 51.152 101.548C50.968 101.348 50.724 101.192 50.42 101.08C50.116 100.96 49.78 100.856 49.412 100.768C49.044 100.68 48.676 100.588 48.308 100.492C47.94 100.388 47.6 100.252 47.288 100.084C46.984 99.916 46.736 99.696 46.544 99.424C46.36 99.144 46.268 98.78 46.268 98.332C46.268 97.916 46.376 97.536 46.592 97.192C46.816 96.84 47.156 96.56 47.612 96.352C48.068 96.136 48.652 96.028 49.364 96.028C49.836 96.028 50.304 96.096 50.768 96.232C51.232 96.36 51.632 96.54 51.968 96.772L51.668 97.48C51.308 97.24 50.924 97.064 50.516 96.952C50.116 96.84 49.728 96.784 49.352 96.784C48.848 96.784 48.432 96.852 48.104 96.988C47.776 97.124 47.532 97.308 47.372 97.54C47.22 97.764 47.144 98.02 47.144 98.308C47.144 98.636 47.236 98.9 47.42 99.1C47.612 99.3 47.86 99.456 48.164 99.568C48.476 99.68 48.816 99.78 49.184 99.868C49.552 99.956 49.916 100.052 50.276 100.156C50.644 100.26 50.98 100.396 51.284 100.564C51.596 100.724 51.844 100.94 52.028 101.212C52.22 101.484 52.316 101.84 52.316 102.28C52.316 102.688 52.204 103.068 51.98 103.42C51.756 103.764 51.412 104.044 50.948 104.26C50.492 104.468 49.904 104.572 49.184 104.572ZM56.7468 104.56C56.0908 104.56 55.5148 104.424 55.0188 104.152C54.5228 103.872 54.1348 103.492 53.8548 103.012C53.5748 102.524 53.4348 101.968 53.4348 101.344C53.4348 100.72 53.5668 100.168 53.8308 99.688C54.1028 99.208 54.4708 98.832 54.9348 98.56C55.4068 98.28 55.9348 98.14 56.5188 98.14C57.1108 98.14 57.6348 98.276 58.0908 98.548C58.5548 98.812 58.9188 99.188 59.1828 99.676C59.4468 100.156 59.5788 100.712 59.5788 101.344C59.5788 101.384 59.5748 101.428 59.5668 101.476C59.5668 101.516 59.5668 101.56 59.5668 101.608H54.0828V100.972H59.1108L58.7748 101.224C58.7748 100.768 58.6748 100.364 58.4748 100.012C58.2828 99.652 58.0188 99.372 57.6828 99.172C57.3468 98.972 56.9588 98.872 56.5188 98.872C56.0868 98.872 55.6988 98.972 55.3548 99.172C55.0108 99.372 54.7428 99.652 54.5508 100.012C54.3588 100.372 54.2628 100.784 54.2628 101.248V101.38C54.2628 101.86 54.3668 102.284 54.5748 102.652C54.7908 103.012 55.0868 103.296 55.4628 103.504C55.8468 103.704 56.2828 103.804 56.7708 103.804C57.1548 103.804 57.5108 103.736 57.8388 103.6C58.1748 103.464 58.4628 103.256 58.7028 102.976L59.1828 103.528C58.9028 103.864 58.5508 104.12 58.1268 104.296C57.7108 104.472 57.2508 104.56 56.7468 104.56ZM63.929 104.56C63.305 104.56 62.745 104.424 62.249 104.152C61.761 103.872 61.377 103.492 61.097 103.012C60.817 102.524 60.677 101.968 60.677 101.344C60.677 100.712 60.817 100.156 61.097 99.676C61.377 99.196 61.761 98.82 62.249 98.548C62.745 98.276 63.305 98.14 63.929 98.14C64.465 98.14 64.949 98.244 65.381 98.452C65.813 98.66 66.153 98.972 66.401 99.388L65.765 99.82C65.549 99.5 65.281 99.264 64.961 99.112C64.641 98.96 64.293 98.884 63.917 98.884C63.469 98.884 63.065 98.988 62.705 99.196C62.345 99.396 62.061 99.68 61.853 100.048C61.645 100.416 61.541 100.848 61.541 101.344C61.541 101.84 61.645 102.272 61.853 102.64C62.061 103.008 62.345 103.296 62.705 103.504C63.065 103.704 63.469 103.804 63.917 103.804C64.293 103.804 64.641 103.728 64.961 103.576C65.281 103.424 65.549 103.192 65.765 102.88L66.401 103.312C66.153 103.72 65.813 104.032 65.381 104.248C64.949 104.456 64.465 104.56 63.929 104.56ZM70.6787 104.56C70.1427 104.56 69.6747 104.46 69.2747 104.26C68.8747 104.06 68.5627 103.76 68.3387 103.36C68.1227 102.96 68.0147 102.46 68.0147 101.86V98.2H68.8667V101.764C68.8667 102.436 69.0307 102.944 69.3587 103.288C69.6947 103.624 70.1627 103.792 70.7627 103.792C71.2027 103.792 71.5827 103.704 71.9027 103.528C72.2307 103.344 72.4787 103.08 72.6467 102.736C72.8227 102.392 72.9107 101.98 72.9107 101.5V98.2H73.7627V104.5H72.9467V102.772L73.0787 103.084C72.8787 103.548 72.5667 103.912 72.1427 104.176C71.7267 104.432 71.2387 104.56 70.6787 104.56ZM76.1372 104.5V98.2H76.9532V99.916L76.8692 99.616C77.0452 99.136 77.3412 98.772 77.7572 98.524C78.1732 98.268 78.6892 98.14 79.3052 98.14V98.968C79.2732 98.968 79.2412 98.968 79.2092 98.968C79.1772 98.96 79.1452 98.956 79.1132 98.956C78.4492 98.956 77.9292 99.16 77.5532 99.568C77.1772 99.968 76.9892 100.54 76.9892 101.284V104.5H76.1372ZM83.4773 104.56C82.8213 104.56 82.2453 104.424 81.7493 104.152C81.2533 103.872 80.8653 103.492 80.5853 103.012C80.3053 102.524 80.1653 101.968 80.1653 101.344C80.1653 100.72 80.2973 100.168 80.5613 99.688C80.8333 99.208 81.2013 98.832 81.6653 98.56C82.1373 98.28 82.6653 98.14 83.2493 98.14C83.8413 98.14 84.3653 98.276 84.8213 98.548C85.2853 98.812 85.6493 99.188 85.9133 99.676C86.1773 100.156 86.3093 100.712 86.3093 101.344C86.3093 101.384 86.3053 101.428 86.2973 101.476C86.2973 101.516 86.2973 101.56 86.2973 101.608H80.8133V100.972H85.8413L85.5053 101.224C85.5053 100.768 85.4053 100.364 85.2053 100.012C85.0133 99.652 84.7493 99.372 84.4133 99.172C84.0773 98.972 83.6893 98.872 83.2493 98.872C82.8173 98.872 82.4293 98.972 82.0853 99.172C81.7413 99.372 81.4733 99.652 81.2813 100.012C81.0893 100.372 80.9933 100.784 80.9933 101.248V101.38C80.9933 101.86 81.0973 102.284 81.3053 102.652C81.5213 103.012 81.8173 103.296 82.1933 103.504C82.5773 103.704 83.0133 103.804 83.5013 103.804C83.8853 103.804 84.2413 103.736 84.5693 103.6C84.9053 103.464 85.1933 103.256 85.4333 102.976L85.9133 103.528C85.6333 103.864 85.2813 104.12 84.8573 104.296C84.4413 104.472 83.9813 104.56 83.4773 104.56ZM95.1321 104.5V103.108L95.0961 102.88V100.552C95.0961 100.016 94.9441 99.604 94.6401 99.316C94.3441 99.028 93.9001 98.884 93.3081 98.884C92.9001 98.884 92.5121 98.952 92.1441 99.088C91.7761 99.224 91.4641 99.404 91.2081 99.628L90.8241 98.992C91.1441 98.72 91.5281 98.512 91.9761 98.368C92.4241 98.216 92.8961 98.14 93.3921 98.14C94.2081 98.14 94.8361 98.344 95.2761 98.752C95.7241 99.152 95.9481 99.764 95.9481 100.588V104.5H95.1321ZM92.9601 104.56C92.4881 104.56 92.0761 104.484 91.7241 104.332C91.3801 104.172 91.1161 103.956 90.9321 103.684C90.7481 103.404 90.6561 103.084 90.6561 102.724C90.6561 102.396 90.7321 102.1 90.8841 101.836C91.0441 101.564 91.3001 101.348 91.6521 101.188C92.0121 101.02 92.4921 100.936 93.0921 100.936H95.2641V101.572H93.1161C92.5081 101.572 92.0841 101.68 91.8441 101.896C91.6121 102.112 91.4961 102.38 91.4961 102.7C91.4961 103.06 91.6361 103.348 91.9161 103.564C92.1961 103.78 92.5881 103.888 93.0921 103.888C93.5721 103.888 93.9841 103.78 94.3281 103.564C94.6801 103.34 94.9361 103.02 95.0961 102.604L95.2881 103.192C95.1281 103.608 94.8481 103.94 94.4481 104.188C94.0561 104.436 93.5601 104.56 92.9601 104.56ZM101.478 98.14C101.99 98.14 102.438 98.24 102.822 98.44C103.214 98.632 103.518 98.928 103.734 99.328C103.958 99.728 104.07 100.232 104.07 100.84V104.5H103.218V100.924C103.218 100.26 103.05 99.76 102.714 99.424C102.386 99.08 101.922 98.908 101.322 98.908C100.874 98.908 100.482 99 100.146 99.184C99.8182 99.36 99.5622 99.62 99.3782 99.964C99.2022 100.3 99.1142 100.708 99.1142 101.188V104.5H98.2622V98.2H99.0782V99.928L98.9462 99.604C99.1462 99.148 99.4662 98.792 99.9062 98.536C100.346 98.272 100.87 98.14 101.478 98.14ZM108.88 104.56C108.28 104.56 107.74 104.424 107.26 104.152C106.788 103.88 106.416 103.504 106.144 103.024C105.872 102.536 105.736 101.976 105.736 101.344C105.736 100.704 105.872 100.144 106.144 99.664C106.416 99.184 106.788 98.812 107.26 98.548C107.74 98.276 108.28 98.14 108.88 98.14C109.432 98.14 109.924 98.264 110.356 98.512C110.796 98.76 111.144 99.124 111.4 99.604C111.664 100.076 111.796 100.656 111.796 101.344C111.796 102.024 111.668 102.604 111.412 103.084C111.156 103.564 110.808 103.932 110.368 104.188C109.936 104.436 109.44 104.56 108.88 104.56ZM108.94 103.804C109.388 103.804 109.788 103.704 110.14 103.504C110.5 103.296 110.78 103.008 110.98 102.64C111.188 102.264 111.292 101.832 111.292 101.344C111.292 100.848 111.188 100.416 110.98 100.048C110.78 99.68 110.5 99.396 110.14 99.196C109.788 98.988 109.388 98.884 108.94 98.884C108.5 98.884 108.104 98.988 107.752 99.196C107.4 99.396 107.12 99.68 106.912 100.048C106.704 100.416 106.6 100.848 106.6 101.344C106.6 101.832 106.704 102.264 106.912 102.64C107.12 103.008 107.4 103.296 107.752 103.504C108.104 103.704 108.5 103.804 108.94 103.804ZM111.316 104.5V102.604L111.4 101.332L111.28 100.06V95.596H112.132V104.5H111.316ZM117.789 104.5V97.408C117.789 96.848 117.953 96.396 118.281 96.052C118.609 95.708 119.081 95.536 119.697 95.536C119.937 95.536 120.169 95.568 120.393 95.632C120.617 95.696 120.805 95.796 120.957 95.932L120.669 96.568C120.549 96.464 120.409 96.388 120.249 96.34C120.089 96.284 119.917 96.256 119.733 96.256C119.373 96.256 119.097 96.356 118.905 96.556C118.713 96.756 118.617 97.052 118.617 97.444V98.404L118.641 98.8V104.5H117.789ZM116.661 98.908V98.2H120.561V98.908H116.661ZM125.542 104.5V103.108L125.506 102.88V100.552C125.506 100.016 125.354 99.604 125.05 99.316C124.754 99.028 124.31 98.884 123.718 98.884C123.31 98.884 122.922 98.952 122.554 99.088C122.186 99.224 121.874 99.404 121.618 99.628L121.234 98.992C121.554 98.72 121.938 98.512 122.386 98.368C122.834 98.216 123.306 98.14 123.802 98.14C124.618 98.14 125.246 98.344 125.686 98.752C126.134 99.152 126.358 99.764 126.358 100.588V104.5H125.542ZM123.37 104.56C122.898 104.56 122.486 104.484 122.134 104.332C121.79 104.172 121.526 103.956 121.342 103.684C121.158 103.404 121.066 103.084 121.066 102.724C121.066 102.396 121.142 102.1 121.294 101.836C121.454 101.564 121.71 101.348 122.062 101.188C122.422 101.02 122.902 100.936 123.502 100.936H125.674V101.572H123.526C122.918 101.572 122.494 101.68 122.254 101.896C122.022 102.112 121.906 102.38 121.906 102.7C121.906 103.06 122.046 103.348 122.326 103.564C122.606 103.78 122.998 103.888 123.502 103.888C123.982 103.888 124.394 103.78 124.738 103.564C125.09 103.34 125.346 103.02 125.506 102.604L125.698 103.192C125.538 103.608 125.258 103.94 124.858 104.188C124.466 104.436 123.97 104.56 123.37 104.56ZM130.364 104.56C129.844 104.56 129.352 104.488 128.888 104.344C128.424 104.192 128.06 104.004 127.796 103.78L128.18 103.108C128.436 103.3 128.764 103.468 129.164 103.612C129.564 103.748 129.984 103.816 130.424 103.816C131.024 103.816 131.456 103.724 131.72 103.54C131.984 103.348 132.116 103.096 132.116 102.784C132.116 102.552 132.04 102.372 131.888 102.244C131.744 102.108 131.552 102.008 131.312 101.944C131.072 101.872 130.804 101.812 130.508 101.764C130.212 101.716 129.916 101.66 129.62 101.596C129.332 101.532 129.068 101.44 128.828 101.32C128.588 101.192 128.392 101.02 128.24 100.804C128.096 100.588 128.024 100.3 128.024 99.94C128.024 99.596 128.12 99.288 128.312 99.016C128.504 98.744 128.784 98.532 129.152 98.38C129.528 98.22 129.984 98.14 130.52 98.14C130.928 98.14 131.336 98.196 131.744 98.308C132.152 98.412 132.488 98.552 132.752 98.728L132.38 99.412C132.1 99.22 131.8 99.084 131.48 99.004C131.16 98.916 130.84 98.872 130.52 98.872C129.952 98.872 129.532 98.972 129.26 99.172C128.996 99.364 128.864 99.612 128.864 99.916C128.864 100.156 128.936 100.344 129.08 100.48C129.232 100.616 129.428 100.724 129.668 100.804C129.916 100.876 130.184 100.936 130.472 100.984C130.768 101.032 131.06 101.092 131.348 101.164C131.644 101.228 131.912 101.32 132.152 101.44C132.4 101.552 132.596 101.716 132.74 101.932C132.892 102.14 132.968 102.416 132.968 102.76C132.968 103.128 132.864 103.448 132.656 103.72C132.456 103.984 132.16 104.192 131.768 104.344C131.384 104.488 130.916 104.56 130.364 104.56ZM136.524 104.56C135.932 104.56 135.476 104.4 135.156 104.08C134.836 103.76 134.676 103.308 134.676 102.724V96.808H135.528V102.676C135.528 103.044 135.62 103.328 135.804 103.528C135.996 103.728 136.268 103.828 136.62 103.828C136.996 103.828 137.308 103.72 137.556 103.504L137.856 104.116C137.688 104.268 137.484 104.38 137.244 104.452C137.012 104.524 136.772 104.56 136.524 104.56ZM133.548 98.908V98.2H137.448V98.908H133.548ZM145.163 104.56C144.539 104.56 143.979 104.424 143.483 104.152C142.995 103.872 142.611 103.492 142.331 103.012C142.051 102.524 141.911 101.968 141.911 101.344C141.911 100.712 142.051 100.156 142.331 99.676C142.611 99.196 142.995 98.82 143.483 98.548C143.979 98.276 144.539 98.14 145.163 98.14C145.699 98.14 146.183 98.244 146.615 98.452C147.047 98.66 147.387 98.972 147.635 99.388L146.999 99.82C146.783 99.5 146.515 99.264 146.195 99.112C145.875 98.96 145.527 98.884 145.151 98.884C144.703 98.884 144.299 98.988 143.939 99.196C143.579 99.396 143.295 99.68 143.087 100.048C142.879 100.416 142.775 100.848 142.775 101.344C142.775 101.84 142.879 102.272 143.087 102.64C143.295 103.008 143.579 103.296 143.939 103.504C144.299 103.704 144.703 103.804 145.151 103.804C145.527 103.804 145.875 103.728 146.195 103.576C146.515 103.424 146.783 103.192 146.999 102.88L147.635 103.312C147.387 103.72 147.047 104.032 146.615 104.248C146.183 104.456 145.699 104.56 145.163 104.56ZM153.257 104.5V103.108L153.221 102.88V100.552C153.221 100.016 153.069 99.604 152.765 99.316C152.469 99.028 152.025 98.884 151.433 98.884C151.025 98.884 150.637 98.952 150.269 99.088C149.901 99.224 149.589 99.404 149.333 99.628L148.949 98.992C149.269 98.72 149.653 98.512 150.101 98.368C150.549 98.216 151.021 98.14 151.517 98.14C152.333 98.14 152.961 98.344 153.401 98.752C153.849 99.152 154.073 99.764 154.073 100.588V104.5H153.257ZM151.085 104.56C150.613 104.56 150.201 104.484 149.849 104.332C149.505 104.172 149.241 103.956 149.057 103.684C148.873 103.404 148.781 103.084 148.781 102.724C148.781 102.396 148.857 102.1 149.009 101.836C149.169 101.564 149.425 101.348 149.777 101.188C150.137 101.02 150.617 100.936 151.217 100.936H153.389V101.572H151.241C150.633 101.572 150.209 101.68 149.969 101.896C149.737 102.112 149.621 102.38 149.621 102.7C149.621 103.06 149.761 103.348 150.041 103.564C150.321 103.78 150.713 103.888 151.217 103.888C151.697 103.888 152.109 103.78 152.453 103.564C152.805 103.34 153.061 103.02 153.221 102.604L153.413 103.192C153.253 103.608 152.973 103.94 152.573 104.188C152.181 104.436 151.685 104.56 151.085 104.56ZM156.387 104.5V98.2H157.203V99.916L157.119 99.616C157.295 99.136 157.591 98.772 158.007 98.524C158.423 98.268 158.939 98.14 159.555 98.14V98.968C159.523 98.968 159.491 98.968 159.459 98.968C159.427 98.96 159.395 98.956 159.363 98.956C158.699 98.956 158.179 99.16 157.803 99.568C157.427 99.968 157.239 100.54 157.239 101.284V104.5H156.387ZM163.559 104.56C162.959 104.56 162.419 104.424 161.939 104.152C161.467 103.88 161.095 103.504 160.823 103.024C160.551 102.536 160.415 101.976 160.415 101.344C160.415 100.704 160.551 100.144 160.823 99.664C161.095 99.184 161.467 98.812 161.939 98.548C162.419 98.276 162.959 98.14 163.559 98.14C164.111 98.14 164.603 98.264 165.035 98.512C165.475 98.76 165.823 99.124 166.079 99.604C166.343 100.076 166.475 100.656 166.475 101.344C166.475 102.024 166.347 102.604 166.091 103.084C165.835 103.564 165.487 103.932 165.047 104.188C164.615 104.436 164.119 104.56 163.559 104.56ZM163.619 103.804C164.067 103.804 164.467 103.704 164.819 103.504C165.179 103.296 165.459 103.008 165.659 102.64C165.867 102.264 165.971 101.832 165.971 101.344C165.971 100.848 165.867 100.416 165.659 100.048C165.459 99.68 165.179 99.396 164.819 99.196C164.467 98.988 164.067 98.884 163.619 98.884C163.179 98.884 162.783 98.988 162.431 99.196C162.079 99.396 161.799 99.68 161.591 100.048C161.383 100.416 161.279 100.848 161.279 101.344C161.279 101.832 161.383 102.264 161.591 102.64C161.799 103.008 162.079 103.296 162.431 103.504C162.783 103.704 163.179 103.804 163.619 103.804ZM165.995 104.5V102.604L166.079 101.332L165.959 100.06V95.596H166.811V104.5H165.995ZM175.577 104.56C175.033 104.56 174.541 104.436 174.101 104.188C173.661 103.932 173.309 103.568 173.045 103.096C172.789 102.616 172.661 102.032 172.661 101.344C172.661 100.656 172.789 100.076 173.045 99.604C173.301 99.124 173.649 98.76 174.089 98.512C174.529 98.264 175.025 98.14 175.577 98.14C176.177 98.14 176.713 98.276 177.185 98.548C177.665 98.812 178.041 99.188 178.313 99.676C178.585 100.156 178.721 100.712 178.721 101.344C178.721 101.984 178.585 102.544 178.313 103.024C178.041 103.504 177.665 103.88 177.185 104.152C176.713 104.424 176.177 104.56 175.577 104.56ZM172.325 106.828V98.2H173.141V100.096L173.057 101.356L173.177 102.628V106.828H172.325ZM175.517 103.804C175.965 103.804 176.365 103.704 176.717 103.504C177.069 103.296 177.349 103.008 177.557 102.64C177.765 102.264 177.869 101.832 177.869 101.344C177.869 100.856 177.765 100.428 177.557 100.06C177.349 99.692 177.069 99.404 176.717 99.196C176.365 98.988 175.965 98.884 175.517 98.884C175.069 98.884 174.665 98.988 174.305 99.196C173.953 99.404 173.673 99.692 173.465 100.06C173.265 100.428 173.165 100.856 173.165 101.344C173.165 101.832 173.265 102.264 173.465 102.64C173.673 103.008 173.953 103.296 174.305 103.504C174.665 103.704 175.069 103.804 175.517 103.804ZM184.37 104.5V103.108L184.334 102.88V100.552C184.334 100.016 184.182 99.604 183.878 99.316C183.582 99.028 183.138 98.884 182.546 98.884C182.138 98.884 181.75 98.952 181.382 99.088C181.014 99.224 180.702 99.404 180.446 99.628L180.062 98.992C180.382 98.72 180.766 98.512 181.214 98.368C181.662 98.216 182.134 98.14 182.63 98.14C183.446 98.14 184.074 98.344 184.514 98.752C184.962 99.152 185.186 99.764 185.186 100.588V104.5H184.37ZM182.198 104.56C181.726 104.56 181.314 104.484 180.962 104.332C180.618 104.172 180.354 103.956 180.17 103.684C179.986 103.404 179.894 103.084 179.894 102.724C179.894 102.396 179.97 102.1 180.122 101.836C180.282 101.564 180.538 101.348 180.89 101.188C181.25 101.02 181.73 100.936 182.33 100.936H184.502V101.572H182.354C181.746 101.572 181.322 101.68 181.082 101.896C180.85 102.112 180.734 102.38 180.734 102.7C180.734 103.06 180.874 103.348 181.154 103.564C181.434 103.78 181.826 103.888 182.33 103.888C182.81 103.888 183.222 103.78 183.566 103.564C183.918 103.34 184.174 103.02 184.334 102.604L184.526 103.192C184.366 103.608 184.086 103.94 183.686 104.188C183.294 104.436 182.798 104.56 182.198 104.56ZM187.431 106.888C187.135 106.888 186.851 106.84 186.579 106.744C186.315 106.648 186.087 106.504 185.895 106.312L186.291 105.676C186.451 105.828 186.623 105.944 186.807 106.024C186.999 106.112 187.211 106.156 187.443 106.156C187.723 106.156 187.963 106.076 188.163 105.916C188.371 105.764 188.567 105.492 188.751 105.1L189.159 104.176L189.255 104.044L191.847 98.2H192.687L189.531 105.256C189.355 105.664 189.159 105.988 188.943 106.228C188.735 106.468 188.507 106.636 188.259 106.732C188.011 106.836 187.735 106.888 187.431 106.888ZM189.111 104.68L186.207 98.2H187.095L189.663 103.984L189.111 104.68ZM201.759 98.14C202.271 98.14 202.715 98.24 203.091 98.44C203.475 98.632 203.771 98.928 203.979 99.328C204.195 99.728 204.303 100.232 204.303 100.84V104.5H203.451V100.924C203.451 100.26 203.291 99.76 202.971 99.424C202.659 99.08 202.215 98.908 201.639 98.908C201.207 98.908 200.831 99 200.511 99.184C200.199 99.36 199.955 99.62 199.779 99.964C199.611 100.3 199.527 100.708 199.527 101.188V104.5H198.675V100.924C198.675 100.26 198.515 99.76 198.195 99.424C197.875 99.08 197.427 98.908 196.851 98.908C196.427 98.908 196.055 99 195.735 99.184C195.415 99.36 195.167 99.62 194.991 99.964C194.823 100.3 194.739 100.708 194.739 101.188V104.5H193.887V98.2H194.703V99.904L194.571 99.604C194.763 99.148 195.071 98.792 195.495 98.536C195.927 98.272 196.435 98.14 197.019 98.14C197.635 98.14 198.159 98.296 198.591 98.608C199.023 98.912 199.303 99.372 199.431 99.988L199.095 99.856C199.279 99.344 199.603 98.932 200.067 98.62C200.539 98.3 201.103 98.14 201.759 98.14ZM209.29 104.56C208.634 104.56 208.058 104.424 207.562 104.152C207.066 103.872 206.678 103.492 206.398 103.012C206.118 102.524 205.978 101.968 205.978 101.344C205.978 100.72 206.11 100.168 206.374 99.688C206.646 99.208 207.014 98.832 207.478 98.56C207.95 98.28 208.478 98.14 209.062 98.14C209.654 98.14 210.178 98.276 210.634 98.548C211.098 98.812 211.462 99.188 211.726 99.676C211.99 100.156 212.122 100.712 212.122 101.344C212.122 101.384 212.118 101.428 212.11 101.476C212.11 101.516 212.11 101.56 212.11 101.608H206.626V100.972H211.654L211.318 101.224C211.318 100.768 211.218 100.364 211.018 100.012C210.826 99.652 210.562 99.372 210.226 99.172C209.89 98.972 209.502 98.872 209.062 98.872C208.63 98.872 208.242 98.972 207.898 99.172C207.554 99.372 207.286 99.652 207.094 100.012C206.902 100.372 206.806 100.784 206.806 101.248V101.38C206.806 101.86 206.91 102.284 207.118 102.652C207.334 103.012 207.63 103.296 208.006 103.504C208.39 103.704 208.826 103.804 209.314 103.804C209.698 103.804 210.054 103.736 210.382 103.6C210.718 103.464 211.006 103.256 211.246 102.976L211.726 103.528C211.446 103.864 211.094 104.12 210.67 104.296C210.254 104.472 209.794 104.56 209.29 104.56ZM217.072 98.14C217.584 98.14 218.032 98.24 218.416 98.44C218.808 98.632 219.112 98.928 219.328 99.328C219.552 99.728 219.664 100.232 219.664 100.84V104.5H218.812V100.924C218.812 100.26 218.644 99.76 218.308 99.424C217.98 99.08 217.516 98.908 216.916 98.908C216.468 98.908 216.076 99 215.74 99.184C215.412 99.36 215.156 99.62 214.972 99.964C214.796 100.3 214.708 100.708 214.708 101.188V104.5H213.856V98.2H214.672V99.928L214.54 99.604C214.74 99.148 215.06 98.792 215.5 98.536C215.94 98.272 216.464 98.14 217.072 98.14ZM223.957 104.56C223.365 104.56 222.909 104.4 222.589 104.08C222.269 103.76 222.109 103.308 222.109 102.724V96.808H222.961V102.676C222.961 103.044 223.053 103.328 223.237 103.528C223.429 103.728 223.701 103.828 224.053 103.828C224.429 103.828 224.741 103.72 224.989 103.504L225.289 104.116C225.121 104.268 224.917 104.38 224.677 104.452C224.445 104.524 224.205 104.56 223.957 104.56ZM220.981 98.908V98.2H224.881V98.908H220.981ZM228.532 104.56C228.012 104.56 227.52 104.488 227.056 104.344C226.592 104.192 226.228 104.004 225.964 103.78L226.348 103.108C226.604 103.3 226.932 103.468 227.332 103.612C227.732 103.748 228.152 103.816 228.592 103.816C229.192 103.816 229.624 103.724 229.888 103.54C230.152 103.348 230.284 103.096 230.284 102.784C230.284 102.552 230.208 102.372 230.056 102.244C229.912 102.108 229.72 102.008 229.48 101.944C229.24 101.872 228.972 101.812 228.676 101.764C228.38 101.716 228.084 101.66 227.788 101.596C227.5 101.532 227.236 101.44 226.996 101.32C226.756 101.192 226.56 101.02 226.408 100.804C226.264 100.588 226.192 100.3 226.192 99.94C226.192 99.596 226.288 99.288 226.48 99.016C226.672 98.744 226.952 98.532 227.32 98.38C227.696 98.22 228.152 98.14 228.688 98.14C229.096 98.14 229.504 98.196 229.912 98.308C230.32 98.412 230.656 98.552 230.92 98.728L230.548 99.412C230.268 99.22 229.968 99.084 229.648 99.004C229.328 98.916 229.008 98.872 228.688 98.872C228.12 98.872 227.7 98.972 227.428 99.172C227.164 99.364 227.032 99.612 227.032 99.916C227.032 100.156 227.104 100.344 227.248 100.48C227.4 100.616 227.596 100.724 227.836 100.804C228.084 100.876 228.352 100.936 228.64 100.984C228.936 101.032 229.228 101.092 229.516 101.164C229.812 101.228 230.08 101.32 230.32 101.44C230.568 101.552 230.764 101.716 230.908 101.932C231.06 102.14 231.136 102.416 231.136 102.76C231.136 103.128 231.032 103.448 230.824 103.72C230.624 103.984 230.328 104.192 229.936 104.344C229.552 104.488 229.084 104.56 228.532 104.56Z" fill="#05162C"/>
</g>
<g filter="url(#filter2_d_1131_4789)">
<rect x="35.5" y="22" width="279" height="36" rx="4" fill="white" shape-rendering="crispEdges"/>
<path d="M47.1544 37.0276C46.92 37.2968 46.545 37.5092 46.1699 37.4788C46.123 37.1148 46.3066 36.728 46.5215 36.4891C46.7559 36.2124 47.1661 36.0152 47.4982 36C47.5373 36.3792 47.3849 36.7508 47.1544 37.0276ZM47.4943 37.5509C46.9513 37.5206 46.4864 37.8504 46.2285 37.8504C45.9668 37.8504 45.5722 37.5661 45.1425 37.5736C44.5839 37.5812 44.0642 37.8883 43.7791 38.3775C43.193 39.3558 43.6267 40.8044 44.1932 41.6006C44.4705 41.995 44.8026 42.4273 45.2401 42.4121C45.6543 42.3969 45.8184 42.1505 46.3184 42.1505C46.8224 42.1505 46.9669 42.4121 47.4045 42.4045C47.8576 42.3969 48.1428 42.0102 48.4202 41.6158C48.7366 41.1684 48.8656 40.7323 48.8734 40.7095C48.8656 40.702 47.9983 40.3797 47.9905 39.4089C47.9827 38.5975 48.6742 38.2107 48.7054 38.1879C48.3147 37.6267 47.7053 37.5661 47.4943 37.5509ZM50.6314 36.4512V42.3628H51.5768V40.3418H52.8856C54.081 40.3418 54.921 39.5455 54.921 38.3927C54.921 37.24 54.0966 36.4513 52.9168 36.4513L50.6314 36.4512ZM51.5768 37.2248H52.6668C53.4872 37.2248 53.956 37.6495 53.956 38.3965C53.956 39.1435 53.4872 39.572 52.6629 39.572H51.5768V37.2248ZM56.6477 42.4083C57.2415 42.4083 57.7923 42.1164 58.0424 41.6537H58.0619V42.3628H58.937V39.4203C58.937 38.5671 58.2338 38.0173 57.1516 38.0173C56.1476 38.0173 55.4053 38.5747 55.378 39.3407H56.2297C56.3 38.9766 56.6476 38.7377 57.1243 38.7377C57.7025 38.7377 58.0267 38.9994 58.0267 39.481V39.8071L56.8469 39.8753C55.7491 39.9398 55.1553 40.3758 55.1553 41.1343C55.1553 41.9002 55.7687 42.4083 56.6477 42.4083ZM56.9016 41.7068C56.3977 41.7068 56.0773 41.4717 56.0773 41.1115C56.0773 40.7399 56.3859 40.5238 56.9759 40.4896L58.0267 40.4252V40.7588C58.0267 41.3125 57.5423 41.7068 56.9016 41.7068M60.1051 43.9706C61.0271 43.9706 61.4608 43.6293 61.8397 42.5941L63.5 38.0742H62.539L61.4256 41.5665H61.406L60.2926 38.0742H59.3042L60.906 42.378L60.82 42.6396C60.6755 43.0833 60.4411 43.2539 60.0231 43.2539C59.9489 43.2539 59.8043 43.2463 59.7457 43.2387V43.9478C59.8004 43.963 60.0348 43.9706 60.1051 43.9706" fill="black"/>
<path d="M72.54 44.572C71.908 44.572 71.32 44.468 70.776 44.26C70.24 44.044 69.772 43.744 69.372 43.36C68.98 42.968 68.672 42.516 68.448 42.004C68.232 41.484 68.124 40.916 68.124 40.3C68.124 39.684 68.232 39.12 68.448 38.608C68.672 38.088 68.98 37.636 69.372 37.252C69.772 36.86 70.24 36.56 70.776 36.352C71.312 36.136 71.9 36.028 72.54 36.028C73.172 36.028 73.756 36.136 74.292 36.352C74.828 36.56 75.292 36.856 75.684 37.24C76.084 37.624 76.392 38.076 76.608 38.596C76.832 39.116 76.944 39.684 76.944 40.3C76.944 40.916 76.832 41.484 76.608 42.004C76.392 42.524 76.084 42.976 75.684 43.36C75.292 43.744 74.828 44.044 74.292 44.26C73.756 44.468 73.172 44.572 72.54 44.572ZM75.288 46.168C75.032 46.168 74.784 46.136 74.544 46.072C74.304 46.008 74.06 45.904 73.812 45.76C73.572 45.624 73.324 45.444 73.068 45.22C72.812 44.996 72.532 44.724 72.228 44.404L73.2 44.164C73.448 44.46 73.688 44.704 73.92 44.896C74.16 45.088 74.392 45.228 74.616 45.316C74.848 45.412 75.076 45.46 75.3 45.46C75.924 45.46 76.456 45.204 76.896 44.692L77.328 45.208C76.8 45.848 76.12 46.168 75.288 46.168ZM72.54 43.78C73.044 43.78 73.508 43.696 73.932 43.528C74.364 43.352 74.736 43.104 75.048 42.784C75.368 42.464 75.616 42.096 75.792 41.68C75.968 41.256 76.056 40.796 76.056 40.3C76.056 39.796 75.968 39.336 75.792 38.92C75.616 38.496 75.368 38.128 75.048 37.816C74.736 37.496 74.364 37.252 73.932 37.084C73.508 36.908 73.044 36.82 72.54 36.82C72.036 36.82 71.568 36.908 71.136 37.084C70.704 37.252 70.328 37.496 70.008 37.816C69.696 38.128 69.448 38.496 69.264 38.92C69.088 39.336 69 39.796 69 40.3C69 40.796 69.088 41.256 69.264 41.68C69.448 42.096 69.696 42.464 70.008 42.784C70.328 43.104 70.704 43.352 71.136 43.528C71.568 43.696 72.036 43.78 72.54 43.78ZM81.3584 44.56C80.8224 44.56 80.3544 44.46 79.9544 44.26C79.5544 44.06 79.2424 43.76 79.0184 43.36C78.8024 42.96 78.6944 42.46 78.6944 41.86V38.2H79.5464V41.764C79.5464 42.436 79.7104 42.944 80.0384 43.288C80.3744 43.624 80.8424 43.792 81.4424 43.792C81.8824 43.792 82.2624 43.704 82.5824 43.528C82.9104 43.344 83.1584 43.08 83.3264 42.736C83.5024 42.392 83.5904 41.98 83.5904 41.5V38.2H84.4424V44.5H83.6264V42.772L83.7584 43.084C83.5584 43.548 83.2464 43.912 82.8224 44.176C82.4064 44.432 81.9184 44.56 81.3584 44.56ZM86.8169 44.5V38.2H87.6689V44.5H86.8169ZM87.2489 36.808C87.0729 36.808 86.9249 36.748 86.8049 36.628C86.6849 36.508 86.6249 36.364 86.6249 36.196C86.6249 36.028 86.6849 35.888 86.8049 35.776C86.9249 35.656 87.0729 35.596 87.2489 35.596C87.4249 35.596 87.5729 35.652 87.6929 35.764C87.8129 35.876 87.8729 36.016 87.8729 36.184C87.8729 36.36 87.8129 36.508 87.6929 36.628C87.5809 36.748 87.4329 36.808 87.2489 36.808ZM92.6556 44.56C92.0316 44.56 91.4716 44.424 90.9756 44.152C90.4876 43.872 90.1036 43.492 89.8236 43.012C89.5436 42.524 89.4036 41.968 89.4036 41.344C89.4036 40.712 89.5436 40.156 89.8236 39.676C90.1036 39.196 90.4876 38.82 90.9756 38.548C91.4716 38.276 92.0316 38.14 92.6556 38.14C93.1916 38.14 93.6756 38.244 94.1076 38.452C94.5396 38.66 94.8796 38.972 95.1276 39.388L94.4916 39.82C94.2756 39.5 94.0076 39.264 93.6876 39.112C93.3676 38.96 93.0196 38.884 92.6436 38.884C92.1956 38.884 91.7916 38.988 91.4316 39.196C91.0716 39.396 90.7876 39.68 90.5796 40.048C90.3716 40.416 90.2676 40.848 90.2676 41.344C90.2676 41.84 90.3716 42.272 90.5796 42.64C90.7876 43.008 91.0716 43.296 91.4316 43.504C91.7916 43.704 92.1956 43.804 92.6436 43.804C93.0196 43.804 93.3676 43.728 93.6876 43.576C94.0076 43.424 94.2756 43.192 94.4916 42.88L95.1276 43.312C94.8796 43.72 94.5396 44.032 94.1076 44.248C93.6756 44.456 93.1916 44.56 92.6556 44.56ZM97.3795 42.868L97.4035 41.776L101.328 38.2H102.372L99.5995 40.852L99.1195 41.26L97.3795 42.868ZM96.7075 44.5V35.596H97.5595V44.5H96.7075ZM101.592 44.5L98.9635 41.224L99.5155 40.564L102.636 44.5H101.592ZM109.671 44.56C109.047 44.56 108.487 44.424 107.991 44.152C107.503 43.872 107.119 43.492 106.839 43.012C106.559 42.524 106.419 41.968 106.419 41.344C106.419 40.712 106.559 40.156 106.839 39.676C107.119 39.196 107.503 38.82 107.991 38.548C108.487 38.276 109.047 38.14 109.671 38.14C110.207 38.14 110.691 38.244 111.123 38.452C111.555 38.66 111.895 38.972 112.143 39.388L111.507 39.82C111.291 39.5 111.023 39.264 110.703 39.112C110.383 38.96 110.035 38.884 109.659 38.884C109.211 38.884 108.807 38.988 108.447 39.196C108.087 39.396 107.803 39.68 107.595 40.048C107.387 40.416 107.283 40.848 107.283 41.344C107.283 41.84 107.387 42.272 107.595 42.64C107.803 43.008 108.087 43.296 108.447 43.504C108.807 43.704 109.211 43.804 109.659 43.804C110.035 43.804 110.383 43.728 110.703 43.576C111.023 43.424 111.291 43.192 111.507 42.88L112.143 43.312C111.895 43.72 111.555 44.032 111.123 44.248C110.691 44.456 110.207 44.56 109.671 44.56ZM116.939 38.14C117.451 38.14 117.899 38.24 118.283 38.44C118.675 38.632 118.979 38.928 119.195 39.328C119.419 39.728 119.531 40.232 119.531 40.84V44.5H118.679V40.924C118.679 40.26 118.511 39.76 118.175 39.424C117.847 39.08 117.383 38.908 116.783 38.908C116.335 38.908 115.943 39 115.607 39.184C115.279 39.36 115.023 39.62 114.839 39.964C114.663 40.3 114.575 40.708 114.575 41.188V44.5H113.723V35.596H114.575V39.928L114.407 39.604C114.607 39.148 114.927 38.792 115.367 38.536C115.807 38.272 116.331 38.14 116.939 38.14ZM124.509 44.56C123.853 44.56 123.277 44.424 122.781 44.152C122.285 43.872 121.897 43.492 121.617 43.012C121.337 42.524 121.197 41.968 121.197 41.344C121.197 40.72 121.329 40.168 121.593 39.688C121.865 39.208 122.233 38.832 122.697 38.56C123.169 38.28 123.697 38.14 124.281 38.14C124.873 38.14 125.397 38.276 125.853 38.548C126.317 38.812 126.681 39.188 126.945 39.676C127.209 40.156 127.341 40.712 127.341 41.344C127.341 41.384 127.337 41.428 127.329 41.476C127.329 41.516 127.329 41.56 127.329 41.608H121.845V40.972H126.873L126.537 41.224C126.537 40.768 126.437 40.364 126.237 40.012C126.045 39.652 125.781 39.372 125.445 39.172C125.109 38.972 124.721 38.872 124.281 38.872C123.849 38.872 123.461 38.972 123.117 39.172C122.773 39.372 122.505 39.652 122.313 40.012C122.121 40.372 122.025 40.784 122.025 41.248V41.38C122.025 41.86 122.129 42.284 122.337 42.652C122.553 43.012 122.849 43.296 123.225 43.504C123.609 43.704 124.045 43.804 124.533 43.804C124.917 43.804 125.273 43.736 125.601 43.6C125.937 43.464 126.225 43.256 126.465 42.976L126.945 43.528C126.665 43.864 126.313 44.12 125.889 44.296C125.473 44.472 125.013 44.56 124.509 44.56ZM131.691 44.56C131.067 44.56 130.507 44.424 130.011 44.152C129.523 43.872 129.139 43.492 128.859 43.012C128.579 42.524 128.439 41.968 128.439 41.344C128.439 40.712 128.579 40.156 128.859 39.676C129.139 39.196 129.523 38.82 130.011 38.548C130.507 38.276 131.067 38.14 131.691 38.14C132.227 38.14 132.711 38.244 133.143 38.452C133.575 38.66 133.915 38.972 134.163 39.388L133.527 39.82C133.311 39.5 133.043 39.264 132.723 39.112C132.403 38.96 132.055 38.884 131.679 38.884C131.231 38.884 130.827 38.988 130.467 39.196C130.107 39.396 129.823 39.68 129.615 40.048C129.407 40.416 129.303 40.848 129.303 41.344C129.303 41.84 129.407 42.272 129.615 42.64C129.823 43.008 130.107 43.296 130.467 43.504C130.827 43.704 131.231 43.804 131.679 43.804C132.055 43.804 132.403 43.728 132.723 43.576C133.043 43.424 133.311 43.192 133.527 42.88L134.163 43.312C133.915 43.72 133.575 44.032 133.143 44.248C132.711 44.456 132.227 44.56 131.691 44.56ZM136.415 42.868L136.439 41.776L140.363 38.2H141.407L138.635 40.852L138.155 41.26L136.415 42.868ZM135.743 44.5V35.596H136.595V44.5H135.743ZM140.627 44.5L137.999 41.224L138.551 40.564L141.671 44.5H140.627ZM145.272 44.56C144.664 44.56 144.116 44.424 143.628 44.152C143.148 43.872 142.768 43.492 142.488 43.012C142.208 42.524 142.068 41.968 142.068 41.344C142.068 40.712 142.208 40.156 142.488 39.676C142.768 39.196 143.148 38.82 143.628 38.548C144.108 38.276 144.656 38.14 145.272 38.14C145.896 38.14 146.448 38.276 146.928 38.548C147.416 38.82 147.796 39.196 148.068 39.676C148.348 40.156 148.488 40.712 148.488 41.344C148.488 41.968 148.348 42.524 148.068 43.012C147.796 43.492 147.416 43.872 146.928 44.152C146.44 44.424 145.888 44.56 145.272 44.56ZM145.272 43.804C145.728 43.804 146.132 43.704 146.484 43.504C146.836 43.296 147.112 43.008 147.312 42.64C147.52 42.264 147.624 41.832 147.624 41.344C147.624 40.848 147.52 40.416 147.312 40.048C147.112 39.68 146.836 39.396 146.484 39.196C146.132 38.988 145.732 38.884 145.284 38.884C144.836 38.884 144.436 38.988 144.084 39.196C143.732 39.396 143.452 39.68 143.244 40.048C143.036 40.416 142.932 40.848 142.932 41.344C142.932 41.832 143.036 42.264 143.244 42.64C143.452 43.008 143.732 43.296 144.084 43.504C144.436 43.704 144.832 43.804 145.272 43.804ZM152.831 44.56C152.295 44.56 151.827 44.46 151.427 44.26C151.027 44.06 150.715 43.76 150.491 43.36C150.275 42.96 150.167 42.46 150.167 41.86V38.2H151.019V41.764C151.019 42.436 151.183 42.944 151.511 43.288C151.847 43.624 152.315 43.792 152.915 43.792C153.355 43.792 153.735 43.704 154.055 43.528C154.383 43.344 154.631 43.08 154.799 42.736C154.975 42.392 155.063 41.98 155.063 41.5V38.2H155.915V44.5H155.099V42.772L155.231 43.084C155.031 43.548 154.719 43.912 154.295 44.176C153.879 44.432 153.391 44.56 152.831 44.56ZM160.282 44.56C159.69 44.56 159.234 44.4 158.914 44.08C158.594 43.76 158.434 43.308 158.434 42.724V36.808H159.286V42.676C159.286 43.044 159.378 43.328 159.562 43.528C159.754 43.728 160.026 43.828 160.378 43.828C160.754 43.828 161.066 43.72 161.314 43.504L161.614 44.116C161.446 44.268 161.242 44.38 161.002 44.452C160.77 44.524 160.53 44.56 160.282 44.56ZM157.306 38.908V38.2H161.206V38.908H157.306ZM167.589 44.5L165.213 38.2H166.029L168.189 44.044H167.817L170.037 38.2H170.769L172.965 44.044H172.593L174.789 38.2H175.569L173.181 44.5H172.377L170.265 39.004H170.517L168.393 44.5H167.589ZM176.852 44.5V38.2H177.704V44.5H176.852ZM177.284 36.808C177.108 36.808 176.96 36.748 176.84 36.628C176.72 36.508 176.66 36.364 176.66 36.196C176.66 36.028 176.72 35.888 176.84 35.776C176.96 35.656 177.108 35.596 177.284 35.596C177.46 35.596 177.608 35.652 177.728 35.764C177.848 35.876 177.908 36.016 177.908 36.184C177.908 36.36 177.848 36.508 177.728 36.628C177.616 36.748 177.468 36.808 177.284 36.808ZM182.067 44.56C181.475 44.56 181.019 44.4 180.699 44.08C180.379 43.76 180.219 43.308 180.219 42.724V36.808H181.071V42.676C181.071 43.044 181.163 43.328 181.347 43.528C181.539 43.728 181.811 43.828 182.163 43.828C182.539 43.828 182.851 43.72 183.099 43.504L183.399 44.116C183.231 44.268 183.027 44.38 182.787 44.452C182.555 44.524 182.315 44.56 182.067 44.56ZM179.091 38.908V38.2H182.991V38.908H179.091ZM188.166 38.14C188.678 38.14 189.126 38.24 189.51 38.44C189.902 38.632 190.206 38.928 190.422 39.328C190.646 39.728 190.758 40.232 190.758 40.84V44.5H189.906V40.924C189.906 40.26 189.738 39.76 189.402 39.424C189.074 39.08 188.61 38.908 188.01 38.908C187.562 38.908 187.17 39 186.834 39.184C186.506 39.36 186.25 39.62 186.066 39.964C185.89 40.3 185.802 40.708 185.802 41.188V44.5H184.95V35.596H185.802V39.928L185.634 39.604C185.834 39.148 186.154 38.792 186.594 38.536C187.034 38.272 187.558 38.14 188.166 38.14ZM196.248 46.888C195.952 46.888 195.668 46.84 195.396 46.744C195.132 46.648 194.904 46.504 194.712 46.312L195.108 45.676C195.268 45.828 195.44 45.944 195.624 46.024C195.816 46.112 196.028 46.156 196.26 46.156C196.54 46.156 196.78 46.076 196.98 45.916C197.188 45.764 197.384 45.492 197.568 45.1L197.976 44.176L198.072 44.044L200.664 38.2H201.504L198.348 45.256C198.172 45.664 197.976 45.988 197.76 46.228C197.552 46.468 197.324 46.636 197.076 46.732C196.828 46.836 196.552 46.888 196.248 46.888ZM197.928 44.68L195.024 38.2H195.912L198.48 43.984L197.928 44.68ZM205.096 44.56C204.488 44.56 203.94 44.424 203.452 44.152C202.972 43.872 202.592 43.492 202.312 43.012C202.032 42.524 201.892 41.968 201.892 41.344C201.892 40.712 202.032 40.156 202.312 39.676C202.592 39.196 202.972 38.82 203.452 38.548C203.932 38.276 204.48 38.14 205.096 38.14C205.72 38.14 206.272 38.276 206.752 38.548C207.24 38.82 207.62 39.196 207.892 39.676C208.172 40.156 208.312 40.712 208.312 41.344C208.312 41.968 208.172 42.524 207.892 43.012C207.62 43.492 207.24 43.872 206.752 44.152C206.264 44.424 205.712 44.56 205.096 44.56ZM205.096 43.804C205.552 43.804 205.956 43.704 206.308 43.504C206.66 43.296 206.936 43.008 207.136 42.64C207.344 42.264 207.448 41.832 207.448 41.344C207.448 40.848 207.344 40.416 207.136 40.048C206.936 39.68 206.66 39.396 206.308 39.196C205.956 38.988 205.556 38.884 205.108 38.884C204.66 38.884 204.26 38.988 203.908 39.196C203.556 39.396 203.276 39.68 203.068 40.048C202.86 40.416 202.756 40.848 202.756 41.344C202.756 41.832 202.86 42.264 203.068 42.64C203.276 43.008 203.556 43.296 203.908 43.504C204.26 43.704 204.656 43.804 205.096 43.804ZM212.655 44.56C212.119 44.56 211.651 44.46 211.251 44.26C210.851 44.06 210.539 43.76 210.315 43.36C210.099 42.96 209.991 42.46 209.991 41.86V38.2H210.843V41.764C210.843 42.436 211.007 42.944 211.335 43.288C211.671 43.624 212.139 43.792 212.739 43.792C213.179 43.792 213.559 43.704 213.879 43.528C214.207 43.344 214.455 43.08 214.623 42.736C214.799 42.392 214.887 41.98 214.887 41.5V38.2H215.739V44.5H214.923V42.772L215.055 43.084C214.855 43.548 214.543 43.912 214.119 44.176C213.703 44.432 213.215 44.56 212.655 44.56ZM218.114 44.5V38.2H218.93V39.916L218.846 39.616C219.022 39.136 219.318 38.772 219.734 38.524C220.15 38.268 220.666 38.14 221.282 38.14V38.968C221.25 38.968 221.218 38.968 221.186 38.968C221.154 38.96 221.122 38.956 221.09 38.956C220.426 38.956 219.906 39.16 219.53 39.568C219.154 39.968 218.966 40.54 218.966 41.284V44.5H218.114ZM224.907 44.5L228.747 36.1H229.623L233.463 44.5H232.527L228.999 36.616H229.359L225.831 44.5H224.907ZM226.419 42.256L226.683 41.536H231.567L231.831 42.256H226.419ZM237.924 44.56C237.38 44.56 236.888 44.436 236.448 44.188C236.008 43.932 235.656 43.568 235.392 43.096C235.136 42.616 235.008 42.032 235.008 41.344C235.008 40.656 235.136 40.076 235.392 39.604C235.648 39.124 235.996 38.76 236.436 38.512C236.876 38.264 237.372 38.14 237.924 38.14C238.524 38.14 239.06 38.276 239.532 38.548C240.012 38.812 240.388 39.188 240.66 39.676C240.932 40.156 241.068 40.712 241.068 41.344C241.068 41.984 240.932 42.544 240.66 43.024C240.388 43.504 240.012 43.88 239.532 44.152C239.06 44.424 238.524 44.56 237.924 44.56ZM234.672 46.828V38.2H235.488V40.096L235.404 41.356L235.524 42.628V46.828H234.672ZM237.864 43.804C238.312 43.804 238.712 43.704 239.064 43.504C239.416 43.296 239.696 43.008 239.904 42.64C240.112 42.264 240.216 41.832 240.216 41.344C240.216 40.856 240.112 40.428 239.904 40.06C239.696 39.692 239.416 39.404 239.064 39.196C238.712 38.988 238.312 38.884 237.864 38.884C237.416 38.884 237.012 38.988 236.652 39.196C236.3 39.404 236.02 39.692 235.812 40.06C235.612 40.428 235.512 40.856 235.512 41.344C235.512 41.832 235.612 42.264 235.812 42.64C236.02 43.008 236.3 43.296 236.652 43.504C237.012 43.704 237.416 43.804 237.864 43.804ZM246.057 44.56C245.513 44.56 245.021 44.436 244.581 44.188C244.141 43.932 243.789 43.568 243.525 43.096C243.269 42.616 243.141 42.032 243.141 41.344C243.141 40.656 243.269 40.076 243.525 39.604C243.781 39.124 244.129 38.76 244.569 38.512C245.009 38.264 245.505 38.14 246.057 38.14C246.657 38.14 247.193 38.276 247.665 38.548C248.145 38.812 248.521 39.188 248.793 39.676C249.065 40.156 249.201 40.712 249.201 41.344C249.201 41.984 249.065 42.544 248.793 43.024C248.521 43.504 248.145 43.88 247.665 44.152C247.193 44.424 246.657 44.56 246.057 44.56ZM242.805 46.828V38.2H243.621V40.096L243.537 41.356L243.657 42.628V46.828H242.805ZM245.997 43.804C246.445 43.804 246.845 43.704 247.197 43.504C247.549 43.296 247.829 43.008 248.037 42.64C248.245 42.264 248.349 41.832 248.349 41.344C248.349 40.856 248.245 40.428 248.037 40.06C247.829 39.692 247.549 39.404 247.197 39.196C246.845 38.988 246.445 38.884 245.997 38.884C245.549 38.884 245.145 38.988 244.785 39.196C244.433 39.404 244.153 39.692 243.945 40.06C243.745 40.428 243.645 40.856 243.645 41.344C243.645 41.832 243.745 42.264 243.945 42.64C244.153 43.008 244.433 43.296 244.785 43.504C245.145 43.704 245.549 43.804 245.997 43.804ZM250.938 44.5V35.596H251.79V44.5H250.938ZM256.837 44.56C256.181 44.56 255.605 44.424 255.109 44.152C254.613 43.872 254.225 43.492 253.945 43.012C253.665 42.524 253.525 41.968 253.525 41.344C253.525 40.72 253.657 40.168 253.921 39.688C254.193 39.208 254.561 38.832 255.025 38.56C255.497 38.28 256.025 38.14 256.609 38.14C257.201 38.14 257.725 38.276 258.181 38.548C258.645 38.812 259.009 39.188 259.273 39.676C259.537 40.156 259.669 40.712 259.669 41.344C259.669 41.384 259.665 41.428 259.657 41.476C259.657 41.516 259.657 41.56 259.657 41.608H254.173V40.972H259.201L258.865 41.224C258.865 40.768 258.765 40.364 258.565 40.012C258.373 39.652 258.109 39.372 257.773 39.172C257.437 38.972 257.049 38.872 256.609 38.872C256.177 38.872 255.789 38.972 255.445 39.172C255.101 39.372 254.833 39.652 254.641 40.012C254.449 40.372 254.353 40.784 254.353 41.248V41.38C254.353 41.86 254.457 42.284 254.665 42.652C254.881 43.012 255.177 43.296 255.553 43.504C255.937 43.704 256.373 43.804 256.861 43.804C257.245 43.804 257.601 43.736 257.929 43.6C258.265 43.464 258.553 43.256 258.793 42.976L259.273 43.528C258.993 43.864 258.641 44.12 258.217 44.296C257.801 44.472 257.341 44.56 256.837 44.56ZM267.051 44.56C266.451 44.56 265.911 44.424 265.431 44.152C264.959 43.88 264.587 43.504 264.315 43.024C264.043 42.536 263.907 41.976 263.907 41.344C263.907 40.704 264.043 40.144 264.315 39.664C264.587 39.184 264.959 38.812 265.431 38.548C265.911 38.276 266.451 38.14 267.051 38.14C267.603 38.14 268.095 38.264 268.527 38.512C268.967 38.76 269.315 39.124 269.571 39.604C269.835 40.076 269.967 40.656 269.967 41.344C269.967 42.024 269.839 42.604 269.583 43.084C269.327 43.564 268.979 43.932 268.539 44.188C268.107 44.436 267.611 44.56 267.051 44.56ZM267.111 43.804C267.559 43.804 267.959 43.704 268.311 43.504C268.671 43.296 268.951 43.008 269.151 42.64C269.359 42.264 269.463 41.832 269.463 41.344C269.463 40.848 269.359 40.416 269.151 40.048C268.951 39.68 268.671 39.396 268.311 39.196C267.959 38.988 267.559 38.884 267.111 38.884C266.671 38.884 266.275 38.988 265.923 39.196C265.571 39.396 265.291 39.68 265.083 40.048C264.875 40.416 264.771 40.848 264.771 41.344C264.771 41.832 264.875 42.264 265.083 42.64C265.291 43.008 265.571 43.296 265.923 43.504C266.275 43.704 266.671 43.804 267.111 43.804ZM269.487 44.5V42.604L269.571 41.332L269.451 40.06V35.596H270.303V44.5H269.487ZM275.352 44.56C274.696 44.56 274.12 44.424 273.624 44.152C273.128 43.872 272.74 43.492 272.46 43.012C272.18 42.524 272.04 41.968 272.04 41.344C272.04 40.72 272.172 40.168 272.436 39.688C272.708 39.208 273.076 38.832 273.54 38.56C274.012 38.28 274.54 38.14 275.124 38.14C275.716 38.14 276.24 38.276 276.696 38.548C277.16 38.812 277.524 39.188 277.788 39.676C278.052 40.156 278.184 40.712 278.184 41.344C278.184 41.384 278.18 41.428 278.172 41.476C278.172 41.516 278.172 41.56 278.172 41.608H272.688V40.972H277.716L277.38 41.224C277.38 40.768 277.28 40.364 277.08 40.012C276.888 39.652 276.624 39.372 276.288 39.172C275.952 38.972 275.564 38.872 275.124 38.872C274.692 38.872 274.304 38.972 273.96 39.172C273.616 39.372 273.348 39.652 273.156 40.012C272.964 40.372 272.868 40.784 272.868 41.248V41.38C272.868 41.86 272.972 42.284 273.18 42.652C273.396 43.012 273.692 43.296 274.068 43.504C274.452 43.704 274.888 43.804 275.376 43.804C275.76 43.804 276.116 43.736 276.444 43.6C276.78 43.464 277.068 43.256 277.308 42.976L277.788 43.528C277.508 43.864 277.156 44.12 276.732 44.296C276.316 44.472 275.856 44.56 275.352 44.56ZM281.421 44.5L278.625 38.2H279.513L282.081 44.044H281.661L284.265 38.2H285.105L282.297 44.5H281.421ZM286.305 44.5V38.2H287.157V44.5H286.305ZM286.737 36.808C286.561 36.808 286.413 36.748 286.293 36.628C286.173 36.508 286.113 36.364 286.113 36.196C286.113 36.028 286.173 35.888 286.293 35.776C286.413 35.656 286.561 35.596 286.737 35.596C286.913 35.596 287.061 35.652 287.181 35.764C287.301 35.876 287.361 36.016 287.361 36.184C287.361 36.36 287.301 36.508 287.181 36.628C287.069 36.748 286.921 36.808 286.737 36.808ZM292.144 44.56C291.52 44.56 290.96 44.424 290.464 44.152C289.976 43.872 289.592 43.492 289.312 43.012C289.032 42.524 288.892 41.968 288.892 41.344C288.892 40.712 289.032 40.156 289.312 39.676C289.592 39.196 289.976 38.82 290.464 38.548C290.96 38.276 291.52 38.14 292.144 38.14C292.68 38.14 293.164 38.244 293.596 38.452C294.028 38.66 294.368 38.972 294.616 39.388L293.98 39.82C293.764 39.5 293.496 39.264 293.176 39.112C292.856 38.96 292.508 38.884 292.132 38.884C291.684 38.884 291.28 38.988 290.92 39.196C290.56 39.396 290.276 39.68 290.068 40.048C289.86 40.416 289.756 40.848 289.756 41.344C289.756 41.84 289.86 42.272 290.068 42.64C290.276 43.008 290.56 43.296 290.92 43.504C291.28 43.704 291.684 43.804 292.132 43.804C292.508 43.804 292.856 43.728 293.176 43.576C293.496 43.424 293.764 43.192 293.98 42.88L294.616 43.312C294.368 43.72 294.028 44.032 293.596 44.248C293.164 44.456 292.68 44.56 292.144 44.56ZM298.86 44.56C298.204 44.56 297.628 44.424 297.132 44.152C296.636 43.872 296.248 43.492 295.968 43.012C295.688 42.524 295.548 41.968 295.548 41.344C295.548 40.72 295.68 40.168 295.944 39.688C296.216 39.208 296.584 38.832 297.048 38.56C297.52 38.28 298.048 38.14 298.632 38.14C299.224 38.14 299.748 38.276 300.204 38.548C300.668 38.812 301.032 39.188 301.296 39.676C301.56 40.156 301.692 40.712 301.692 41.344C301.692 41.384 301.688 41.428 301.68 41.476C301.68 41.516 301.68 41.56 301.68 41.608H296.196V40.972H301.224L300.888 41.224C300.888 40.768 300.788 40.364 300.588 40.012C300.396 39.652 300.132 39.372 299.796 39.172C299.46 38.972 299.072 38.872 298.632 38.872C298.2 38.872 297.812 38.972 297.468 39.172C297.124 39.372 296.856 39.652 296.664 40.012C296.472 40.372 296.376 40.784 296.376 41.248V41.38C296.376 41.86 296.48 42.284 296.688 42.652C296.904 43.012 297.2 43.296 297.576 43.504C297.96 43.704 298.396 43.804 298.884 43.804C299.268 43.804 299.624 43.736 299.952 43.6C300.288 43.464 300.576 43.256 300.816 42.976L301.296 43.528C301.016 43.864 300.664 44.12 300.24 44.296C299.824 44.472 299.364 44.56 298.86 44.56Z" fill="#05162C"/>
</g>
<defs>
<filter id="filter0_d_1131_4789" x="16.5" y="129.5" width="305" height="60" filterUnits="userSpaceOnUse" color-interpolation-filters="sRGB">
<feFlood flood-opacity="0" result="BackgroundImageFix"/>
<feColorMatrix in="SourceAlpha" type="matrix" values="0 0 0 0 0 0 0 0 0 0 0 0 0 0 0 0 0 0 127 0" result="hardAlpha"/>
<feOffset/>
<feGaussianBlur stdDeviation="6"/>
<feComposite in2="hardAlpha" operator="out"/>
<feColorMatrix type="matrix" values="0 0 0 0 0.125 0 0 0 0 0.125 0 0 0 0 0.125 0 0 0 0.1 0"/>
<feBlend mode="normal" in2="BackgroundImageFix" result="effect1_dropShadow_1131_4789"/>
<feBlend mode="normal" in="SourceGraphic" in2="effect1_dropShadow_1131_4789" result="shape"/>
</filter>
<filter id="filter1_d_1131_4789" x="1.5" y="70" width="255" height="60" filterUnits="userSpaceOnUse" color-interpolation-filters="sRGB">
<feFlood flood-opacity="0" result="BackgroundImageFix"/>
<feColorMatrix in="SourceAlpha" type="matrix" values="0 0 0 0 0 0 0 0 0 0 0 0 0 0 0 0 0 0 127 0" result="hardAlpha"/>
<feOffset/>
<feGaussianBlur stdDeviation="6"/>
<feComposite in2="hardAlpha" operator="out"/>
<feColorMatrix type="matrix" values="0 0 0 0 0.125 0 0 0 0 0.125 0 0 0 0 0.125 0 0 0 0.1 0"/>
<feBlend mode="normal" in2="BackgroundImageFix" result="effect1_dropShadow_1131_4789"/>
<feBlend mode="normal" in="SourceGraphic" in2="effect1_dropShadow_1131_4789" result="shape"/>
</filter>
<filter id="filter2_d_1131_4789" x="23.5" y="10" width="303" height="60" filterUnits="userSpaceOnUse" color-interpolation-filters="sRGB">
<feFlood flood-opacity="0" result="BackgroundImageFix"/>
<feColorMatrix in="SourceAlpha" type="matrix" values="0 0 0 0 0 0 0 0 0 0 0 0 0 0 0 0 0 0 127 0" result="hardAlpha"/>
<feOffset/>
<feGaussianBlur stdDeviation="6"/>
<feComposite in2="hardAlpha" operator="out"/>
<feColorMatrix type="matrix" values="0 0 0 0 0.125 0 0 0 0 0.125 0 0 0 0 0.125 0 0 0 0.1 0"/>
<feBlend mode="normal" in2="BackgroundImageFix" result="effect1_dropShadow_1131_4789"/>
<feBlend mode="normal" in="SourceGraphic" in2="effect1_dropShadow_1131_4789" result="shape"/>
</filter>
<linearGradient id="paint0_linear_1131_4789" x1="71.8293" y1="48.5285" x2="132.343" y2="178.559" gradientUnits="userSpaceOnUse">
<stop offset="0.0961538" stop-color="#76B0F0"/>
<stop offset="0.677885" stop-color="#1877F2"/>
<stop offset="0.855769" stop-color="#A3CBEF"/>
</linearGradient>
<clipPath id="clip0_1131_4789">
<rect width="20" height="20" fill="white" transform="translate(21.5 90)"/>
</clipPath>
</defs>
</svg>
