<svg width="370" height="234" viewBox="0 0 370 234" fill="none" xmlns="http://www.w3.org/2000/svg">
<rect x="0.5" y="0.5" width="369" height="232.29" rx="23.5" fill="white"/>
<rect x="0.5" y="0.5" width="369" height="232.29" rx="23.5" stroke="#99A2AB"/>
<rect x="24.5" y="16.5" width="47" height="47" rx="11.5" stroke="white"/>
<path d="M45.57 33.93L39.5 40L45.57 46.07" stroke="#05162C" stroke-width="1.5" stroke-miterlimit="10" stroke-linecap="round" stroke-linejoin="round"/>
<path d="M56.5 40H39.67" stroke="#05162C" stroke-width="1.5" stroke-miterlimit="10" stroke-linecap="round" stroke-linejoin="round"/>
<path d="M150.643 46.128C149.982 46.128 149.363 45.9893 148.787 45.712C148.211 45.4347 147.742 45.0347 147.379 44.512L148.307 43.424C148.617 43.8507 148.963 44.1813 149.347 44.416C149.742 44.64 150.174 44.752 150.643 44.752C151.923 44.752 152.563 43.9947 152.563 42.48V36.192H148.515V34.8H154.147V42.4C154.147 43.648 153.849 44.5813 153.251 45.2C152.665 45.8187 151.795 46.128 150.643 46.128ZM160.751 46.096C160.025 46.096 159.385 45.9627 158.831 45.696C158.287 45.4293 157.86 45.024 157.551 44.48C157.252 43.9253 157.103 43.232 157.103 42.4V37.52H158.639V42.224C158.639 43.056 158.836 43.68 159.231 44.096C159.636 44.512 160.201 44.72 160.927 44.72C161.46 44.72 161.924 44.6133 162.319 44.4C162.713 44.176 163.017 43.856 163.231 43.44C163.444 43.0133 163.551 42.5013 163.551 41.904V37.52H165.087V46H163.631V43.712L163.871 44.32C163.593 44.8853 163.177 45.3227 162.623 45.632C162.068 45.9413 161.444 46.096 160.751 46.096ZM168.011 46V34.128H169.547V46H168.011ZM172.847 49.2C172.442 49.2 172.047 49.1307 171.663 48.992C171.279 48.864 170.949 48.672 170.671 48.416L171.327 47.264C171.541 47.4667 171.775 47.6213 172.031 47.728C172.287 47.8347 172.559 47.888 172.847 47.888C173.221 47.888 173.53 47.792 173.775 47.6C174.021 47.408 174.25 47.0667 174.463 46.576L174.991 45.408L175.151 45.216L178.479 37.52H179.983L175.871 46.848C175.626 47.4453 175.349 47.9147 175.039 48.256C174.741 48.5973 174.41 48.8373 174.047 48.976C173.685 49.1253 173.285 49.2 172.847 49.2ZM174.863 46.272L170.991 37.52H172.591L175.887 45.072L174.863 46.272ZM184.85 46V44.912L189.41 40.512C189.815 40.128 190.114 39.792 190.306 39.504C190.508 39.2053 190.642 38.9333 190.706 38.688C190.78 38.432 190.818 38.1867 190.818 37.952C190.818 37.376 190.615 36.9227 190.21 36.592C189.804 36.2613 189.212 36.096 188.434 36.096C187.836 36.096 187.298 36.1973 186.818 36.4C186.338 36.592 185.922 36.896 185.57 37.312L184.482 36.368C184.908 35.824 185.479 35.408 186.194 35.12C186.919 34.8213 187.714 34.672 188.578 34.672C189.356 34.672 190.034 34.8 190.61 35.056C191.186 35.3013 191.628 35.6587 191.938 36.128C192.258 36.5973 192.418 37.152 192.418 37.792C192.418 38.1547 192.37 38.512 192.274 38.864C192.178 39.216 191.996 39.5893 191.73 39.984C191.463 40.3787 191.079 40.8213 190.578 41.312L186.514 45.232L186.13 44.608H192.898V46H184.85ZM198.774 46.128C197.899 46.128 197.115 45.904 196.422 45.456C195.739 45.008 195.195 44.3573 194.79 43.504C194.395 42.6507 194.198 41.616 194.198 40.4C194.198 39.184 194.395 38.1493 194.79 37.296C195.195 36.4427 195.739 35.792 196.422 35.344C197.115 34.896 197.899 34.672 198.774 34.672C199.638 34.672 200.416 34.896 201.11 35.344C201.803 35.792 202.347 36.4427 202.742 37.296C203.136 38.1493 203.334 39.184 203.334 40.4C203.334 41.616 203.136 42.6507 202.742 43.504C202.347 44.3573 201.803 45.008 201.11 45.456C200.416 45.904 199.638 46.128 198.774 46.128ZM198.774 44.704C199.36 44.704 199.872 44.544 200.31 44.224C200.758 43.904 201.104 43.424 201.35 42.784C201.606 42.144 201.734 41.3493 201.734 40.4C201.734 39.4507 201.606 38.656 201.35 38.016C201.104 37.376 200.758 36.896 200.31 36.576C199.872 36.256 199.36 36.096 198.774 36.096C198.187 36.096 197.67 36.256 197.222 36.576C196.774 36.896 196.422 37.376 196.166 38.016C195.92 38.656 195.798 39.4507 195.798 40.4C195.798 41.3493 195.92 42.144 196.166 42.784C196.422 43.424 196.774 43.904 197.222 44.224C197.67 44.544 198.187 44.704 198.774 44.704ZM204.694 46V44.912L209.254 40.512C209.659 40.128 209.958 39.792 210.15 39.504C210.352 39.2053 210.486 38.9333 210.55 38.688C210.624 38.432 210.662 38.1867 210.662 37.952C210.662 37.376 210.459 36.9227 210.054 36.592C209.648 36.2613 209.056 36.096 208.278 36.096C207.68 36.096 207.142 36.1973 206.662 36.4C206.182 36.592 205.766 36.896 205.414 37.312L204.326 36.368C204.752 35.824 205.323 35.408 206.038 35.12C206.763 34.8213 207.558 34.672 208.422 34.672C209.2 34.672 209.878 34.8 210.454 35.056C211.03 35.3013 211.472 35.6587 211.782 36.128C212.102 36.5973 212.262 37.152 212.262 37.792C212.262 38.1547 212.214 38.512 212.118 38.864C212.022 39.216 211.84 39.5893 211.574 39.984C211.307 40.3787 210.923 40.8213 210.422 41.312L206.358 45.232L205.974 44.608H212.742V46H204.694ZM217.673 46.128C216.884 46.128 216.116 46.0053 215.369 45.76C214.633 45.5147 214.03 45.184 213.561 44.768L214.297 43.504C214.67 43.856 215.156 44.144 215.753 44.368C216.35 44.592 216.985 44.704 217.657 44.704C218.51 44.704 219.166 44.5227 219.625 44.16C220.084 43.7973 220.313 43.312 220.313 42.704C220.313 42.288 220.212 41.9253 220.009 41.616C219.806 41.3067 219.454 41.072 218.953 40.912C218.462 40.7413 217.785 40.656 216.921 40.656H214.377L214.969 34.8H221.289V36.192H215.561L216.393 35.408L215.929 40.032L215.097 39.264H217.257C218.377 39.264 219.278 39.408 219.961 39.696C220.644 39.984 221.14 40.384 221.449 40.896C221.758 41.3973 221.913 41.9787 221.913 42.64C221.913 43.28 221.758 43.8667 221.449 44.4C221.14 44.9227 220.67 45.344 220.041 45.664C219.422 45.9733 218.633 46.128 217.673 46.128Z" fill="#05162C"/>
<rect x="298.5" y="16.5" width="47" height="47" rx="11.5" stroke="white"/>
<path d="M324.43 33.93L330.5 40L324.43 46.07" stroke="#05162C" stroke-width="1.5" stroke-miterlimit="10" stroke-linecap="round" stroke-linejoin="round"/>
<path d="M313.5 40H330.33" stroke="#05162C" stroke-width="1.5" stroke-miterlimit="10" stroke-linecap="round" stroke-linejoin="round"/>
<path d="M35.4083 100.096C34.7684 100.096 34.1563 100 33.5723 99.808C32.9883 99.608 32.5283 99.352 32.1923 99.04L32.6363 98.104C32.9563 98.384 33.3643 98.616 33.8603 98.8C34.3563 98.984 34.8723 99.076 35.4083 99.076C35.8963 99.076 36.2923 99.02 36.5964 98.908C36.9003 98.796 37.1243 98.644 37.2684 98.452C37.4124 98.252 37.4844 98.028 37.4844 97.78C37.4844 97.492 37.3884 97.26 37.1964 97.084C37.0124 96.908 36.7684 96.768 36.4643 96.664C36.1683 96.552 35.8404 96.456 35.4804 96.376C35.1204 96.296 34.7563 96.204 34.3883 96.1C34.0283 95.988 33.6963 95.848 33.3923 95.68C33.0963 95.512 32.8563 95.288 32.6723 95.008C32.4883 94.72 32.3963 94.352 32.3963 93.904C32.3963 93.472 32.5083 93.076 32.7323 92.716C32.9643 92.348 33.3163 92.056 33.7883 91.84C34.2683 91.616 34.8763 91.504 35.6123 91.504C36.1004 91.504 36.5844 91.568 37.0644 91.696C37.5444 91.824 37.9604 92.008 38.3123 92.248L37.9163 93.208C37.5563 92.968 37.1763 92.796 36.7763 92.692C36.3764 92.58 35.9884 92.524 35.6123 92.524C35.1403 92.524 34.7524 92.584 34.4484 92.704C34.1443 92.824 33.9203 92.984 33.7763 93.184C33.6403 93.384 33.5723 93.608 33.5723 93.856C33.5723 94.152 33.6643 94.388 33.8483 94.564C34.0403 94.74 34.2843 94.88 34.5803 94.984C34.8844 95.088 35.2164 95.184 35.5763 95.272C35.9364 95.352 36.2964 95.444 36.6564 95.548C37.0244 95.652 37.3564 95.788 37.6524 95.956C37.9564 96.124 38.2004 96.348 38.3844 96.628C38.5684 96.908 38.6604 97.268 38.6604 97.708C38.6604 98.132 38.5444 98.528 38.3123 98.896C38.0803 99.256 37.7204 99.548 37.2324 99.772C36.7524 99.988 36.1444 100.096 35.4083 100.096ZM42.9215 100.072C42.3775 100.072 41.8975 99.972 41.4815 99.772C41.0735 99.572 40.7535 99.268 40.5215 98.86C40.2975 98.444 40.1855 97.924 40.1855 97.3V93.64H41.3375V97.168C41.3375 97.792 41.4855 98.26 41.7815 98.572C42.0855 98.884 42.5095 99.04 43.0535 99.04C43.4535 99.04 43.8015 98.96 44.0975 98.8C44.3935 98.632 44.6215 98.392 44.7815 98.08C44.9415 97.76 45.0215 97.376 45.0215 96.928V93.64H46.1735V100H45.0815V98.284L45.2615 98.74C45.0535 99.164 44.7415 99.492 44.3255 99.724C43.9095 99.956 43.4415 100.072 42.9215 100.072ZM51.7626 93.58C52.2826 93.58 52.7386 93.68 53.1306 93.88C53.5306 94.08 53.8426 94.384 54.0666 94.792C54.2906 95.2 54.4026 95.716 54.4026 96.34V100H53.2506V96.472C53.2506 95.856 53.0986 95.392 52.7946 95.08C52.4986 94.768 52.0786 94.612 51.5346 94.612C51.1266 94.612 50.7706 94.692 50.4666 94.852C50.1626 95.012 49.9266 95.248 49.7586 95.56C49.5986 95.872 49.5186 96.26 49.5186 96.724V100H48.3666V93.64H49.4706V95.356L49.2906 94.9C49.4986 94.484 49.8186 94.16 50.2506 93.928C50.6826 93.696 51.1866 93.58 51.7626 93.58Z" fill="#145DB8"/>
<path d="M78.3512 100V91.6H79.3352L83.1032 97.948H82.5752L86.2952 91.6H87.2792L87.2912 100H86.1392L86.1272 93.412H86.4032L83.0912 98.98H82.5392L79.2032 93.412H79.5032V100H78.3512ZM92.3682 100.072C91.7282 100.072 91.1602 99.932 90.6642 99.652C90.1682 99.372 89.7762 98.988 89.4882 98.5C89.2002 98.004 89.0562 97.444 89.0562 96.82C89.0562 96.188 89.2002 95.628 89.4882 95.14C89.7762 94.652 90.1682 94.272 90.6642 94C91.1602 93.72 91.7282 93.58 92.3682 93.58C93.0002 93.58 93.5642 93.72 94.0602 94C94.5642 94.272 94.9562 94.652 95.2362 95.14C95.5242 95.62 95.6682 96.18 95.6682 96.82C95.6682 97.452 95.5242 98.012 95.2362 98.5C94.9562 98.988 94.5642 99.372 94.0602 99.652C93.5642 99.932 93.0002 100.072 92.3682 100.072ZM92.3682 99.064C92.7762 99.064 93.1402 98.972 93.4602 98.788C93.7882 98.604 94.0442 98.344 94.2282 98.008C94.4122 97.664 94.5042 97.268 94.5042 96.82C94.5042 96.364 94.4122 95.972 94.2282 95.644C94.0442 95.308 93.7882 95.048 93.4602 94.864C93.1402 94.68 92.7762 94.588 92.3682 94.588C91.9602 94.588 91.5962 94.68 91.2762 94.864C90.9562 95.048 90.7002 95.308 90.5082 95.644C90.3162 95.972 90.2202 96.364 90.2202 96.82C90.2202 97.268 90.3162 97.664 90.5082 98.008C90.7002 98.344 90.9562 98.604 91.2762 98.788C91.5962 98.972 91.9602 99.064 92.3682 99.064ZM100.657 93.58C101.177 93.58 101.633 93.68 102.025 93.88C102.425 94.08 102.737 94.384 102.961 94.792C103.185 95.2 103.297 95.716 103.297 96.34V100H102.145V96.472C102.145 95.856 101.993 95.392 101.689 95.08C101.393 94.768 100.973 94.612 100.429 94.612C100.021 94.612 99.6654 94.692 99.3614 94.852C99.0574 95.012 98.8214 95.248 98.6534 95.56C98.4934 95.872 98.4134 96.26 98.4134 96.724V100H97.2614V93.64H98.3654V95.356L98.1854 94.9C98.3934 94.484 98.7134 94.16 99.1454 93.928C99.5774 93.696 100.081 93.58 100.657 93.58Z" fill="#145DB8"/>
<path d="M129.605 100V92.644H126.725V91.6H133.673V92.644H130.793V100H129.605ZM137.336 100.072C136.792 100.072 136.312 99.972 135.896 99.772C135.488 99.572 135.168 99.268 134.936 98.86C134.712 98.444 134.6 97.924 134.6 97.3V93.64H135.752V97.168C135.752 97.792 135.9 98.26 136.196 98.572C136.5 98.884 136.924 99.04 137.468 99.04C137.868 99.04 138.216 98.96 138.512 98.8C138.808 98.632 139.036 98.392 139.196 98.08C139.356 97.76 139.436 97.376 139.436 96.928V93.64H140.588V100H139.496V98.284L139.676 98.74C139.468 99.164 139.156 99.492 138.74 99.724C138.324 99.956 137.856 100.072 137.336 100.072ZM145.613 100.072C144.933 100.072 144.333 99.932 143.813 99.652C143.301 99.372 142.901 98.988 142.613 98.5C142.333 98.012 142.193 97.452 142.193 96.82C142.193 96.188 142.329 95.628 142.601 95.14C142.881 94.652 143.261 94.272 143.741 94C144.229 93.72 144.777 93.58 145.385 93.58C146.001 93.58 146.545 93.716 147.017 93.988C147.489 94.26 147.857 94.644 148.121 95.14C148.393 95.628 148.529 96.2 148.529 96.856C148.529 96.904 148.525 96.96 148.517 97.024C148.517 97.088 148.513 97.148 148.505 97.204H143.093V96.376H147.905L147.437 96.664C147.445 96.256 147.361 95.892 147.185 95.572C147.009 95.252 146.765 95.004 146.453 94.828C146.149 94.644 145.793 94.552 145.385 94.552C144.985 94.552 144.629 94.644 144.317 94.828C144.005 95.004 143.761 95.256 143.585 95.584C143.409 95.904 143.321 96.272 143.321 96.688V96.88C143.321 97.304 143.417 97.684 143.609 98.02C143.809 98.348 144.085 98.604 144.437 98.788C144.789 98.972 145.193 99.064 145.649 99.064C146.025 99.064 146.365 99 146.669 98.872C146.981 98.744 147.253 98.552 147.485 98.296L148.121 99.04C147.833 99.376 147.473 99.632 147.041 99.808C146.617 99.984 146.141 100.072 145.613 100.072Z" fill="#145DB8"/>
<path d="M174.001 100L171.193 91.6H172.429L175.009 99.352H174.385L177.061 91.6H178.165L180.781 99.352H180.181L182.797 91.6H183.937L181.129 100H179.869L177.421 92.812H177.745L175.285 100H174.001ZM187.588 100.072C186.908 100.072 186.308 99.932 185.788 99.652C185.276 99.372 184.876 98.988 184.588 98.5C184.308 98.012 184.168 97.452 184.168 96.82C184.168 96.188 184.304 95.628 184.576 95.14C184.856 94.652 185.236 94.272 185.716 94C186.204 93.72 186.752 93.58 187.36 93.58C187.976 93.58 188.52 93.716 188.992 93.988C189.464 94.26 189.832 94.644 190.096 95.14C190.368 95.628 190.504 96.2 190.504 96.856C190.504 96.904 190.5 96.96 190.492 97.024C190.492 97.088 190.488 97.148 190.48 97.204H185.068V96.376H189.88L189.412 96.664C189.42 96.256 189.336 95.892 189.16 95.572C188.984 95.252 188.74 95.004 188.428 94.828C188.124 94.644 187.768 94.552 187.36 94.552C186.96 94.552 186.604 94.644 186.292 94.828C185.98 95.004 185.736 95.256 185.56 95.584C185.384 95.904 185.296 96.272 185.296 96.688V96.88C185.296 97.304 185.392 97.684 185.584 98.02C185.784 98.348 186.06 98.604 186.412 98.788C186.764 98.972 187.168 99.064 187.624 99.064C188 99.064 188.34 99 188.644 98.872C188.956 98.744 189.228 98.552 189.46 98.296L190.096 99.04C189.808 99.376 189.448 99.632 189.016 99.808C188.592 99.984 188.116 100.072 187.588 100.072ZM194.732 100.072C194.116 100.072 193.564 99.936 193.076 99.664C192.596 99.392 192.216 99.012 191.936 98.524C191.656 98.036 191.516 97.468 191.516 96.82C191.516 96.172 191.656 95.608 191.936 95.128C192.216 94.64 192.596 94.26 193.076 93.988C193.564 93.716 194.116 93.58 194.732 93.58C195.268 93.58 195.752 93.7 196.184 93.94C196.616 94.18 196.96 94.54 197.216 95.02C197.48 95.5 197.612 96.1 197.612 96.82C197.612 97.54 197.484 98.14 197.228 98.62C196.98 99.1 196.64 99.464 196.208 99.712C195.776 99.952 195.284 100.072 194.732 100.072ZM194.828 99.064C195.228 99.064 195.588 98.972 195.908 98.788C196.236 98.604 196.492 98.344 196.676 98.008C196.868 97.664 196.964 97.268 196.964 96.82C196.964 96.364 196.868 95.972 196.676 95.644C196.492 95.308 196.236 95.048 195.908 94.864C195.588 94.68 195.228 94.588 194.828 94.588C194.42 94.588 194.056 94.68 193.736 94.864C193.416 95.048 193.16 95.308 192.968 95.644C192.776 95.972 192.68 96.364 192.68 96.82C192.68 97.268 192.776 97.664 192.968 98.008C193.16 98.344 193.416 98.604 193.736 98.788C194.056 98.972 194.42 99.064 194.828 99.064ZM197 100V98.284L197.072 96.808L196.952 95.332V91.096H198.104V100H197Z" fill="#145DB8"/>
<path d="M223.405 100V92.644H220.525V91.6H227.473V92.644H224.593V100H223.405ZM232.008 93.58C232.528 93.58 232.984 93.68 233.376 93.88C233.776 94.08 234.088 94.384 234.312 94.792C234.536 95.2 234.648 95.716 234.648 96.34V100H233.496V96.472C233.496 95.856 233.344 95.392 233.04 95.08C232.744 94.768 232.324 94.612 231.78 94.612C231.372 94.612 231.016 94.692 230.712 94.852C230.408 95.012 230.172 95.248 230.004 95.56C229.844 95.872 229.764 96.26 229.764 96.724V100H228.612V91.096H229.764V95.356L229.536 94.9C229.744 94.484 230.064 94.16 230.496 93.928C230.928 93.696 231.432 93.58 232.008 93.58ZM239.456 100.072C238.912 100.072 238.432 99.972 238.016 99.772C237.608 99.572 237.288 99.268 237.056 98.86C236.832 98.444 236.72 97.924 236.72 97.3V93.64H237.872V97.168C237.872 97.792 238.02 98.26 238.316 98.572C238.62 98.884 239.044 99.04 239.588 99.04C239.988 99.04 240.336 98.96 240.632 98.8C240.928 98.632 241.156 98.392 241.316 98.08C241.476 97.76 241.556 97.376 241.556 96.928V93.64H242.708V100H241.616V98.284L241.796 98.74C241.588 99.164 241.276 99.492 240.86 99.724C240.444 99.956 239.976 100.072 239.456 100.072Z" fill="#145DB8"/>
<path d="M273.78 95.572H278.112V96.604H273.78V95.572ZM273.9 100H272.7V91.6H278.628V92.644H273.9V100ZM280.032 100V93.64H281.136V95.368L281.028 94.936C281.204 94.496 281.5 94.16 281.916 93.928C282.332 93.696 282.844 93.58 283.452 93.58V94.696C283.404 94.688 283.356 94.684 283.308 94.684C283.268 94.684 283.228 94.684 283.188 94.684C282.572 94.684 282.084 94.868 281.724 95.236C281.364 95.604 281.184 96.136 281.184 96.832V100H280.032ZM284.872 100V93.64H286.024V100H284.872ZM285.448 92.416C285.224 92.416 285.036 92.344 284.884 92.2C284.74 92.056 284.668 91.88 284.668 91.672C284.668 91.456 284.74 91.276 284.884 91.132C285.036 90.988 285.224 90.916 285.448 90.916C285.672 90.916 285.856 90.988 286 91.132C286.152 91.268 286.228 91.44 286.228 91.648C286.228 91.864 286.156 92.048 286.012 92.2C285.868 92.344 285.68 92.416 285.448 92.416Z" fill="#145DB8"/>
<path d="M320.34 100.096C319.7 100.096 319.088 100 318.504 99.808C317.92 99.608 317.46 99.352 317.124 99.04L317.568 98.104C317.888 98.384 318.296 98.616 318.792 98.8C319.288 98.984 319.804 99.076 320.34 99.076C320.828 99.076 321.224 99.02 321.528 98.908C321.832 98.796 322.056 98.644 322.2 98.452C322.344 98.252 322.416 98.028 322.416 97.78C322.416 97.492 322.32 97.26 322.128 97.084C321.944 96.908 321.7 96.768 321.396 96.664C321.1 96.552 320.772 96.456 320.412 96.376C320.052 96.296 319.688 96.204 319.32 96.1C318.96 95.988 318.628 95.848 318.324 95.68C318.028 95.512 317.788 95.288 317.604 95.008C317.42 94.72 317.328 94.352 317.328 93.904C317.328 93.472 317.44 93.076 317.664 92.716C317.896 92.348 318.248 92.056 318.72 91.84C319.2 91.616 319.808 91.504 320.544 91.504C321.032 91.504 321.516 91.568 321.996 91.696C322.476 91.824 322.892 92.008 323.244 92.248L322.848 93.208C322.488 92.968 322.108 92.796 321.708 92.692C321.308 92.58 320.92 92.524 320.544 92.524C320.072 92.524 319.684 92.584 319.38 92.704C319.076 92.824 318.852 92.984 318.708 93.184C318.572 93.384 318.504 93.608 318.504 93.856C318.504 94.152 318.596 94.388 318.78 94.564C318.972 94.74 319.216 94.88 319.512 94.984C319.816 95.088 320.148 95.184 320.508 95.272C320.868 95.352 321.228 95.444 321.588 95.548C321.956 95.652 322.288 95.788 322.584 95.956C322.888 96.124 323.132 96.348 323.316 96.628C323.5 96.908 323.592 97.268 323.592 97.708C323.592 98.132 323.476 98.528 323.244 98.896C323.012 99.256 322.652 99.548 322.164 99.772C321.684 99.988 321.076 100.096 320.34 100.096ZM329.125 100V98.656L329.065 98.404V96.112C329.065 95.624 328.921 95.248 328.633 94.984C328.353 94.712 327.929 94.576 327.361 94.576C326.985 94.576 326.617 94.64 326.257 94.768C325.897 94.888 325.593 95.052 325.345 95.26L324.865 94.396C325.193 94.132 325.585 93.932 326.041 93.796C326.505 93.652 326.989 93.58 327.493 93.58C328.365 93.58 329.037 93.792 329.509 94.216C329.981 94.64 330.217 95.288 330.217 96.16V100H329.125ZM327.037 100.072C326.565 100.072 326.149 99.992 325.789 99.832C325.437 99.672 325.165 99.452 324.973 99.172C324.781 98.884 324.685 98.56 324.685 98.2C324.685 97.856 324.765 97.544 324.925 97.264C325.093 96.984 325.361 96.76 325.729 96.592C326.105 96.424 326.609 96.34 327.241 96.34H329.257V97.168H327.289C326.713 97.168 326.325 97.264 326.125 97.456C325.925 97.648 325.825 97.88 325.825 98.152C325.825 98.464 325.949 98.716 326.197 98.908C326.445 99.092 326.789 99.184 327.229 99.184C327.661 99.184 328.037 99.088 328.357 98.896C328.685 98.704 328.921 98.424 329.065 98.056L329.293 98.848C329.141 99.224 328.873 99.524 328.489 99.748C328.105 99.964 327.621 100.072 327.037 100.072ZM334.533 100.072C333.893 100.072 333.397 99.9 333.045 99.556C332.693 99.212 332.517 98.72 332.517 98.08V92.248H333.669V98.032C333.669 98.376 333.753 98.64 333.921 98.824C334.097 99.008 334.345 99.1 334.665 99.1C335.025 99.1 335.325 99 335.565 98.8L335.925 99.628C335.749 99.78 335.537 99.892 335.289 99.964C335.049 100.036 334.797 100.072 334.533 100.072ZM331.437 94.588V93.64H335.493V94.588H331.437Z" fill="#145DB8"/>
<rect x="24" y="124.43" width="42.4286" height="42.43" rx="12" fill="#F5F6F7"/>
<path d="M44.8112 141.934C45.5712 141.934 46.2112 142.098 46.7312 142.426C47.2592 142.754 47.6592 143.23 47.9312 143.854C48.2032 144.47 48.3392 145.226 48.3392 146.122C48.3392 147.074 48.1712 147.878 47.8352 148.534C47.4992 149.19 47.0352 149.686 46.4432 150.022C45.8512 150.358 45.1592 150.526 44.3672 150.526C43.9752 150.526 43.5952 150.486 43.2272 150.406C42.8672 150.326 42.5512 150.202 42.2792 150.034L42.7352 149.098C42.9592 149.242 43.2072 149.346 43.4792 149.41C43.7592 149.466 44.0512 149.494 44.3552 149.494C45.2032 149.494 45.8792 149.23 46.3832 148.702C46.8872 148.166 47.1392 147.374 47.1392 146.326C47.1392 146.158 47.1312 145.958 47.1152 145.726C47.0992 145.494 47.0632 145.266 47.0072 145.042L47.4032 145.45C47.2912 145.818 47.1032 146.13 46.8392 146.386C46.5832 146.634 46.2712 146.822 45.9032 146.95C45.5432 147.07 45.1472 147.13 44.7152 147.13C44.1632 147.13 43.6712 147.026 43.2392 146.818C42.8072 146.61 42.4672 146.318 42.2192 145.942C41.9712 145.558 41.8472 145.106 41.8472 144.586C41.8472 144.042 41.9752 143.574 42.2312 143.182C42.4952 142.782 42.8512 142.474 43.2992 142.258C43.7552 142.042 44.2592 141.934 44.8112 141.934ZM44.8592 142.906C44.4992 142.906 44.1792 142.974 43.8992 143.11C43.6192 143.246 43.3992 143.434 43.2392 143.674C43.0872 143.914 43.0112 144.202 43.0112 144.538C43.0112 145.034 43.1832 145.43 43.5272 145.726C43.8712 146.014 44.3352 146.158 44.9192 146.158C45.3032 146.158 45.6392 146.086 45.9272 145.942C46.2232 145.798 46.4512 145.602 46.6112 145.354C46.7792 145.106 46.8632 144.83 46.8632 144.526C46.8632 144.23 46.7872 143.962 46.6352 143.722C46.4832 143.482 46.2592 143.286 45.9632 143.134C45.6672 142.982 45.2992 142.906 44.8592 142.906Z" fill="#99A2AB"/>
<rect x="79.4286" y="124.43" width="42.4286" height="42.43" rx="12" fill="#F5F6F7"/>
<path d="M98.1935 150.43V142.51L98.7095 143.074H96.2975V142.03H99.3815V150.43H98.1935ZM102.635 150.43V142.51L103.151 143.074H100.739V142.03H103.823V150.43H102.635Z" fill="#99A2AB"/>
<rect x="134.857" y="124.43" width="42.4286" height="42.43" rx="12" fill="#F5F6F7"/>
<path d="M152.397 150.43V142.51L152.913 143.074H150.501V142.03H153.585V150.43H152.397ZM155.291 150.43V149.614L158.711 146.314C159.015 146.026 159.239 145.774 159.383 145.558C159.535 145.334 159.635 145.13 159.683 144.946C159.739 144.754 159.767 144.57 159.767 144.394C159.767 143.962 159.615 143.622 159.311 143.374C159.007 143.126 158.563 143.002 157.979 143.002C157.531 143.002 157.127 143.078 156.767 143.23C156.407 143.374 156.095 143.602 155.831 143.914L155.015 143.206C155.335 142.798 155.763 142.486 156.299 142.27C156.843 142.046 157.439 141.934 158.087 141.934C158.671 141.934 159.179 142.03 159.611 142.222C160.043 142.406 160.375 142.674 160.607 143.026C160.847 143.378 160.967 143.794 160.967 144.274C160.967 144.546 160.931 144.814 160.859 145.078C160.787 145.342 160.651 145.622 160.451 145.918C160.251 146.214 159.963 146.546 159.587 146.914L156.539 149.854L156.251 149.386H161.327V150.43H155.291Z" fill="#99A2AB"/>
<rect x="190.286" y="124.43" width="42.4286" height="42.43" rx="12" fill="#F5F6F7"/>
<path d="M207.838 150.43V142.51L208.354 143.074H205.942V142.03H209.026V150.43H207.838ZM213.431 150.526C212.839 150.526 212.263 150.434 211.703 150.25C211.151 150.066 210.699 149.818 210.347 149.506L210.899 148.558C211.179 148.822 211.543 149.038 211.991 149.206C212.439 149.374 212.919 149.458 213.431 149.458C214.055 149.458 214.539 149.326 214.883 149.062C215.235 148.79 215.411 148.426 215.411 147.97C215.411 147.53 215.243 147.178 214.907 146.914C214.579 146.642 214.055 146.506 213.335 146.506H212.663V145.666L215.159 142.594L215.327 143.074H210.731V142.03H216.275V142.846L213.791 145.906L213.167 145.534H213.563C214.579 145.534 215.339 145.762 215.843 146.218C216.355 146.674 216.611 147.254 216.611 147.958C216.611 148.43 216.495 148.862 216.263 149.254C216.031 149.646 215.679 149.958 215.207 150.19C214.743 150.414 214.151 150.526 213.431 150.526Z" fill="#99A2AB"/>
<rect x="245.714" y="124.43" width="42.4286" height="42.43" rx="12" fill="#F5F6F7"/>
<path d="M262.686 150.43V142.51L263.202 143.074H260.79V142.03H263.874V150.43H262.686ZM265.592 148.366V147.526L269.888 142.03H271.184L266.924 147.526L266.312 147.334H273.02V148.366H265.592ZM270.26 150.43V148.366L270.296 147.334V145.51H271.424V150.43H270.26Z" fill="#99A2AB"/>
<rect x="301.143" y="124.43" width="42.4286" height="42.43" rx="12" fill="#E8EFF8"/>
<path d="M318.683 150.43V142.51L319.199 143.074H316.787V142.03H319.871V150.43H318.683ZM324.421 150.526C323.829 150.526 323.253 150.434 322.693 150.25C322.141 150.066 321.689 149.818 321.337 149.506L321.889 148.558C322.169 148.822 322.533 149.038 322.981 149.206C323.429 149.374 323.905 149.458 324.409 149.458C325.049 149.458 325.541 149.322 325.885 149.05C326.229 148.778 326.401 148.414 326.401 147.958C326.401 147.646 326.325 147.374 326.173 147.142C326.021 146.91 325.757 146.734 325.381 146.614C325.013 146.486 324.505 146.422 323.857 146.422H321.949L322.393 142.03H327.133V143.074H322.837L323.461 142.486L323.113 145.954L322.489 145.378H324.109C324.949 145.378 325.625 145.486 326.137 145.702C326.649 145.918 327.021 146.218 327.253 146.602C327.485 146.978 327.601 147.414 327.601 147.91C327.601 148.39 327.485 148.83 327.253 149.23C327.021 149.622 326.669 149.938 326.197 150.178C325.733 150.41 325.141 150.526 324.421 150.526Z" fill="#404448"/>
<rect x="24" y="174.86" width="42.4286" height="42.43" rx="12" fill="#E8EFF8"/>
<path d="M41.2825 200.86V192.94L41.7985 193.504H39.3865V192.46H42.4705V200.86H41.2825ZM47.8359 200.956C47.0919 200.956 46.4559 200.792 45.9279 200.464C45.3999 200.136 44.9959 199.664 44.7159 199.048C44.4439 198.424 44.3079 197.664 44.3079 196.768C44.3079 195.816 44.4759 195.012 44.8119 194.356C45.1479 193.7 45.6159 193.204 46.2159 192.868C46.8159 192.532 47.5039 192.364 48.2799 192.364C48.6799 192.364 49.0599 192.404 49.4199 192.484C49.7879 192.564 50.1039 192.688 50.3679 192.856L49.9119 193.792C49.6959 193.64 49.4479 193.536 49.1679 193.48C48.8959 193.424 48.6079 193.396 48.3039 193.396C47.4479 193.396 46.7679 193.664 46.2639 194.2C45.7599 194.728 45.5079 195.516 45.5079 196.564C45.5079 196.732 45.5159 196.932 45.5319 197.164C45.5479 197.396 45.5879 197.624 45.6519 197.848L45.2439 197.44C45.3639 197.072 45.5519 196.764 45.8079 196.516C46.0719 196.26 46.3839 196.072 46.7439 195.952C47.1119 195.824 47.5079 195.76 47.9319 195.76C48.4919 195.76 48.9879 195.864 49.4199 196.072C49.8519 196.28 50.1919 196.576 50.4399 196.96C50.6879 197.336 50.8119 197.784 50.8119 198.304C50.8119 198.84 50.6799 199.308 50.4159 199.708C50.1519 200.108 49.7959 200.416 49.3479 200.632C48.8999 200.848 48.3959 200.956 47.8359 200.956ZM47.7879 199.984C48.1559 199.984 48.4759 199.916 48.7479 199.78C49.0279 199.644 49.2479 199.456 49.4079 199.216C49.5679 198.968 49.6479 198.68 49.6479 198.352C49.6479 197.856 49.4759 197.464 49.1319 197.176C48.7879 196.88 48.3199 196.732 47.7279 196.732C47.3439 196.732 47.0079 196.804 46.7199 196.948C46.4319 197.092 46.2039 197.288 46.0359 197.536C45.8759 197.776 45.7959 198.052 45.7959 198.364C45.7959 198.652 45.8719 198.92 46.0239 199.168C46.1759 199.408 46.3999 199.604 46.6959 199.756C46.9919 199.908 47.3559 199.984 47.7879 199.984Z" fill="#404448"/>
<rect x="79.4286" y="174.86" width="42.4286" height="42.43" rx="12" fill="#E8EFF8"/>
<path d="M96.8282 200.86V192.94L97.3442 193.504H94.9322V192.46H98.0162V200.86H96.8282ZM101.306 200.86L104.87 192.964L105.182 193.504H100.19L100.79 192.916V195.004H99.6376V192.46H105.974V193.276L102.578 200.86H101.306Z" fill="#404448"/>
<rect x="134.857" y="174.86" width="42.4286" height="42.43" rx="12" fill="#E8EFF8"/>
<path d="M151.981 200.86V192.94L152.497 193.504H150.085V192.46H153.169V200.86H151.981ZM158.283 200.956C157.603 200.956 157.015 200.856 156.519 200.656C156.023 200.456 155.639 200.172 155.367 199.804C155.095 199.428 154.959 198.988 154.959 198.484C154.959 197.988 155.087 197.568 155.343 197.224C155.607 196.872 155.987 196.608 156.483 196.432C156.979 196.248 157.579 196.156 158.283 196.156C158.987 196.156 159.587 196.248 160.083 196.432C160.587 196.608 160.971 196.872 161.235 197.224C161.499 197.576 161.631 197.996 161.631 198.484C161.631 198.988 161.495 199.428 161.223 199.804C160.951 200.172 160.563 200.456 160.059 200.656C159.555 200.856 158.963 200.956 158.283 200.956ZM158.283 199.984C158.955 199.984 159.479 199.848 159.855 199.576C160.239 199.296 160.431 198.92 160.431 198.448C160.431 197.984 160.239 197.62 159.855 197.356C159.479 197.084 158.955 196.948 158.283 196.948C157.619 196.948 157.099 197.084 156.723 197.356C156.347 197.62 156.159 197.984 156.159 198.448C156.159 198.92 156.347 199.296 156.723 199.576C157.099 199.848 157.619 199.984 158.283 199.984ZM158.283 196.804C157.643 196.804 157.099 196.72 156.651 196.552C156.203 196.376 155.859 196.128 155.619 195.808C155.379 195.48 155.259 195.092 155.259 194.644C155.259 194.172 155.383 193.768 155.631 193.432C155.887 193.088 156.243 192.824 156.699 192.64C157.155 192.456 157.683 192.364 158.283 192.364C158.891 192.364 159.423 192.456 159.879 192.64C160.335 192.824 160.691 193.088 160.947 193.432C161.203 193.768 161.331 194.172 161.331 194.644C161.331 195.092 161.211 195.48 160.971 195.808C160.731 196.128 160.383 196.376 159.927 196.552C159.471 196.72 158.923 196.804 158.283 196.804ZM158.283 196.036C158.867 196.036 159.323 195.916 159.651 195.676C159.987 195.436 160.155 195.108 160.155 194.692C160.155 194.268 159.983 193.936 159.639 193.696C159.295 193.456 158.843 193.336 158.283 193.336C157.723 193.336 157.275 193.456 156.939 193.696C156.611 193.936 156.447 194.268 156.447 194.692C156.447 195.108 156.607 195.436 156.927 195.676C157.255 195.916 157.707 196.036 158.283 196.036Z" fill="#404448"/>
<rect x="190.286" y="174.86" width="42.4286" height="42.43" rx="12" fill="#E8EFF8"/>
<path d="M207.568 200.86V192.94L208.084 193.504H205.672V192.46H208.756V200.86H207.568ZM213.318 192.364C214.078 192.364 214.718 192.528 215.238 192.856C215.766 193.184 216.166 193.66 216.438 194.284C216.71 194.9 216.846 195.656 216.846 196.552C216.846 197.504 216.678 198.308 216.342 198.964C216.006 199.62 215.542 200.116 214.95 200.452C214.358 200.788 213.666 200.956 212.874 200.956C212.482 200.956 212.102 200.916 211.734 200.836C211.374 200.756 211.058 200.632 210.786 200.464L211.242 199.528C211.466 199.672 211.714 199.776 211.986 199.84C212.266 199.896 212.558 199.924 212.862 199.924C213.71 199.924 214.386 199.66 214.89 199.132C215.394 198.596 215.646 197.804 215.646 196.756C215.646 196.588 215.638 196.388 215.622 196.156C215.606 195.924 215.57 195.696 215.514 195.472L215.91 195.88C215.798 196.248 215.61 196.56 215.346 196.816C215.09 197.064 214.778 197.252 214.41 197.38C214.05 197.5 213.654 197.56 213.222 197.56C212.67 197.56 212.178 197.456 211.746 197.248C211.314 197.04 210.974 196.748 210.726 196.372C210.478 195.988 210.354 195.536 210.354 195.016C210.354 194.472 210.482 194.004 210.738 193.612C211.002 193.212 211.358 192.904 211.806 192.688C212.262 192.472 212.766 192.364 213.318 192.364ZM213.366 193.336C213.006 193.336 212.686 193.404 212.406 193.54C212.126 193.676 211.906 193.864 211.746 194.104C211.594 194.344 211.518 194.632 211.518 194.968C211.518 195.464 211.69 195.86 212.034 196.156C212.378 196.444 212.842 196.588 213.426 196.588C213.81 196.588 214.146 196.516 214.434 196.372C214.73 196.228 214.958 196.032 215.118 195.784C215.286 195.536 215.37 195.26 215.37 194.956C215.37 194.66 215.294 194.392 215.142 194.152C214.99 193.912 214.766 193.716 214.47 193.564C214.174 193.412 213.806 193.336 213.366 193.336Z" fill="#404448"/>
<rect x="245.714" y="174.86" width="42.4286" height="42.43" rx="12" fill="#E8EFF8"/>
<path d="M259.931 200.86V200.044L263.351 196.744C263.655 196.456 263.879 196.204 264.023 195.988C264.175 195.764 264.275 195.56 264.323 195.376C264.379 195.184 264.407 195 264.407 194.824C264.407 194.392 264.255 194.052 263.951 193.804C263.647 193.556 263.203 193.432 262.619 193.432C262.171 193.432 261.767 193.508 261.407 193.66C261.047 193.804 260.735 194.032 260.471 194.344L259.655 193.636C259.975 193.228 260.403 192.916 260.939 192.7C261.483 192.476 262.079 192.364 262.727 192.364C263.311 192.364 263.819 192.46 264.251 192.652C264.683 192.836 265.015 193.104 265.247 193.456C265.487 193.808 265.607 194.224 265.607 194.704C265.607 194.976 265.571 195.244 265.499 195.508C265.427 195.772 265.291 196.052 265.091 196.348C264.891 196.644 264.603 196.976 264.227 197.344L261.179 200.284L260.891 199.816H265.967V200.86H259.931ZM270.374 200.956C269.718 200.956 269.13 200.788 268.61 200.452C268.098 200.116 267.69 199.628 267.386 198.988C267.09 198.348 266.942 197.572 266.942 196.66C266.942 195.748 267.09 194.972 267.386 194.332C267.69 193.692 268.098 193.204 268.61 192.868C269.13 192.532 269.718 192.364 270.374 192.364C271.022 192.364 271.606 192.532 272.126 192.868C272.646 193.204 273.054 193.692 273.35 194.332C273.646 194.972 273.794 195.748 273.794 196.66C273.794 197.572 273.646 198.348 273.35 198.988C273.054 199.628 272.646 200.116 272.126 200.452C271.606 200.788 271.022 200.956 270.374 200.956ZM270.374 199.888C270.814 199.888 271.198 199.768 271.526 199.528C271.862 199.288 272.122 198.928 272.306 198.448C272.498 197.968 272.594 197.372 272.594 196.66C272.594 195.948 272.498 195.352 272.306 194.872C272.122 194.392 271.862 194.032 271.526 193.792C271.198 193.552 270.814 193.432 270.374 193.432C269.934 193.432 269.546 193.552 269.21 193.792C268.874 194.032 268.61 194.392 268.418 194.872C268.234 195.352 268.142 195.948 268.142 196.66C268.142 197.372 268.234 197.968 268.418 198.448C268.61 198.928 268.874 199.288 269.21 199.528C269.546 199.768 269.934 199.888 270.374 199.888Z" fill="#404448"/>
<rect x="301.143" y="174.86" width="42.4286" height="42.43" rx="12" fill="#F5F6F7"/>
<path d="M317.135 200.86V200.044L320.555 196.744C320.859 196.456 321.083 196.204 321.227 195.988C321.379 195.764 321.479 195.56 321.527 195.376C321.583 195.184 321.611 195 321.611 194.824C321.611 194.392 321.459 194.052 321.155 193.804C320.851 193.556 320.407 193.432 319.823 193.432C319.375 193.432 318.971 193.508 318.611 193.66C318.251 193.804 317.939 194.032 317.675 194.344L316.859 193.636C317.179 193.228 317.607 192.916 318.143 192.7C318.687 192.476 319.283 192.364 319.931 192.364C320.515 192.364 321.023 192.46 321.455 192.652C321.887 192.836 322.219 193.104 322.451 193.456C322.691 193.808 322.811 194.224 322.811 194.704C322.811 194.976 322.775 195.244 322.703 195.508C322.631 195.772 322.495 196.052 322.295 196.348C322.095 196.644 321.807 196.976 321.431 197.344L318.383 200.284L318.095 199.816H323.171V200.86H317.135ZM325.574 200.86V192.94L326.09 193.504H323.678V192.46H326.762V200.86H325.574Z" fill="#99A2AB"/>
</svg>
