<svg width="24" height="10" viewBox="0 0 24 10" fill="none" xmlns="http://www.w3.org/2000/svg">
<path d="M4.38533 1.32514C4.10408 1.65795 3.65399 1.92055 3.20394 1.883C3.14769 1.433 3.36801 0.954781 3.62587 0.659422C3.90712 0.317234 4.3994 0.0734375 4.79788 0.0546875C4.84476 0.523484 4.6619 0.982906 4.38533 1.32514ZM4.79324 1.97211C4.14158 1.93461 3.58373 2.34242 3.2743 2.34242C2.96024 2.34242 2.48671 1.99086 1.97104 2.00023C1.30068 2.00961 0.677147 2.3893 0.334913 2.99408C-0.368306 4.20359 0.1521 5.99445 0.831834 6.97892C1.16469 7.46647 1.56318 8.00089 2.08823 7.98214C2.58519 7.96339 2.78207 7.6587 3.38216 7.6587C3.9869 7.6587 4.16038 7.98214 4.68543 7.97277C5.22923 7.96339 5.57146 7.48527 5.90432 6.99767C6.28401 6.4445 6.43874 5.90534 6.44812 5.87722C6.43874 5.86784 5.39802 5.46941 5.38865 4.26922C5.37927 3.266 6.20905 2.78783 6.24655 2.7597C5.77771 2.06586 5.04641 1.99086 4.79324 1.97211ZM8.55777 0.612547V7.92125H9.69224V5.42253H11.2627C12.6973 5.42253 13.7052 4.43806 13.7052 3.01288C13.7052 1.58773 12.716 0.612594 11.3002 0.612594L8.55777 0.612547ZM9.69224 1.56894H11.0002C11.9847 1.56894 12.5473 2.09398 12.5473 3.01752C12.5473 3.94105 11.9847 4.47083 10.9955 4.47083H9.69224V1.56894ZM15.7773 7.97745C16.4899 7.97745 17.1509 7.61652 17.4509 7.04455H17.4743V7.9212H18.5245V4.28328C18.5245 3.2285 17.6806 2.54872 16.382 2.54872C15.1772 2.54872 14.2865 3.23787 14.2536 4.18484H15.2757C15.36 3.7348 15.7772 3.43944 16.3492 3.43944C17.043 3.43944 17.4321 3.76292 17.4321 4.35833V4.76145L16.0163 4.84583C14.699 4.92552 13.9865 5.46467 13.9865 6.40231C13.9865 7.34928 14.7224 7.97745 15.7773 7.97745ZM16.082 7.11017C15.4773 7.11017 15.0928 6.81955 15.0928 6.37414C15.0928 5.91477 15.4632 5.64753 16.1711 5.60534L17.4321 5.52566V5.93816C17.4321 6.62262 16.8509 7.11017 16.082 7.11017M19.9262 9.90894C21.0326 9.90894 21.553 9.48706 22.0077 8.20719L24.0001 2.61903H22.8468L21.5107 6.93669H21.4873L20.1512 2.61903H18.9651L20.8872 7.93995L20.7841 8.26344C20.6106 8.81192 20.3294 9.02291 19.8277 9.02291C19.7387 9.02291 19.5652 9.01353 19.4949 9.00416V9.88081C19.5605 9.89956 19.8418 9.90894 19.9262 9.90894" fill="black"/>
</svg>
