<svg width="20" height="21" viewBox="0 0 20 21" fill="none" xmlns="http://www.w3.org/2000/svg">
<path fill-rule="evenodd" clip-rule="evenodd" d="M9.99999 2.79163C5.74279 2.79163 2.29166 6.24276 2.29166 10.5C2.29166 14.7572 5.74279 18.2083 9.99999 18.2083C14.2572 18.2083 17.7083 14.7572 17.7083 10.5C17.7083 6.24276 14.2572 2.79163 9.99999 2.79163ZM1.04166 10.5C1.04166 5.55241 5.05244 1.54163 9.99999 1.54163C14.9475 1.54163 18.9583 5.55241 18.9583 10.5C18.9583 15.4475 14.9475 19.4583 9.99999 19.4583C5.05244 19.4583 1.04166 15.4475 1.04166 10.5ZM9.99999 6.54163C10.3452 6.54163 10.625 6.82145 10.625 7.16663V10.2411L12.5253 12.1414C12.7693 12.3854 12.7693 12.7812 12.5253 13.0252C12.2812 13.2693 11.8855 13.2693 11.6414 13.0252L9.55805 10.9419C9.44084 10.8247 9.37499 10.6657 9.37499 10.5V7.16663C9.37499 6.82145 9.65481 6.54163 9.99999 6.54163Z" fill="#6D7379"/>
</svg>
