<svg width="16" height="22" viewBox="0 0 16 22" fill="none" xmlns="http://www.w3.org/2000/svg">
<path d="M1 6.37225C9 2.24278 7.5 9.0046 15 6.37228" stroke="#05162C" stroke-width="1.5" stroke-linecap="round"/>
<path d="M1 8C1 5.19108 1 3.78661 1.67412 2.77772C1.96596 2.34096 2.34096 1.96596 2.77772 1.67412C3.78661 1 5.19108 1 8 1C10.8089 1 12.2134 1 13.2223 1.67412C13.659 1.96596 14.034 2.34096 14.3259 2.77772C15 3.78661 15 5.19108 15 8V10C15 12.8089 15 14.2134 14.3259 15.2223C14.034 15.659 13.659 16.034 13.2223 16.3259C12.2134 17 10.8089 17 8 17C5.19108 17 3.78661 17 2.77772 16.3259C2.34096 16.034 1.96596 15.659 1.67412 15.2223C1 14.2134 1 12.8089 1 10L1 8Z" stroke="#05162C" stroke-width="1.5" stroke-linejoin="round"/>
<path d="M8.01419 9L6.5736 10.4876C5.79996 11.3003 5.81331 12.6088 6.58695 13.4077C7.37394 14.2066 8.64111 14.1928 9.41475 13.3939C10.2017 12.5812 10.1884 11.2727 9.41475 10.4738L8.01419 9Z" stroke="#05162C" stroke-width="1.5" stroke-linejoin="round"/>
<path d="M4 21C6.20914 21 8 19.2091 8 17" stroke="#05162C" stroke-width="1.5" stroke-linecap="round" stroke-linejoin="round"/>
</svg>
