<svg width="32" height="33" viewBox="0 0 32 33" fill="none" xmlns="http://www.w3.org/2000/svg">
<path d="M7.65331 21.8334C7.79997 21.1801 7.53331 20.2467 7.06664 19.7801L3.82664 16.5401C2.81331 15.5267 2.41331 14.4467 2.70664 13.5134C3.01331 12.5801 3.95998 11.9401 5.37331 11.7001L9.53331 11.0067C10.1333 10.9001 10.8666 10.3667 11.1466 9.82008L13.44 5.22008C14.1066 3.90008 15.0133 3.16675 16 3.16675C16.9866 3.16675 17.8933 3.90008 18.56 5.22008L20.8533 9.82008C21.0266 10.1667 21.3866 10.5001 21.7733 10.7267L7.41331 25.0868C7.22664 25.2734 6.90664 25.1001 6.95997 24.8334L7.65331 21.8334Z" fill="#BBC1C7"/>
<path d="M24.9334 19.78C24.4534 20.26 24.1867 21.18 24.3467 21.8334L25.2667 25.8467C25.6534 27.5134 25.4134 28.7667 24.5867 29.3667C24.2534 29.6067 23.8534 29.7267 23.3867 29.7267C22.7067 29.7267 21.9067 29.4734 21.0267 28.9534L17.1201 26.6334C16.5067 26.2734 15.4934 26.2734 14.8801 26.6334L10.9734 28.9534C9.4934 29.82 8.22673 29.9667 7.4134 29.3667C7.10673 29.14 6.88007 28.8334 6.7334 28.4334L22.9467 12.22C23.5601 11.6067 24.4267 11.3267 25.2667 11.4734L26.6134 11.7C28.0267 11.94 28.9734 12.58 29.2801 13.5134C29.5734 14.4467 29.1734 15.5267 28.1601 16.54L24.9334 19.78Z" fill="#BBC1C7"/>
</svg>
