<svg width="10" height="15" viewBox="0 0 10 15" fill="none" xmlns="http://www.w3.org/2000/svg">
<path d="M8.21331 9.82348C7.97007 9.70125 7.67374 9.79608 7.54665 10.0368C7.4292 10.2821 7.5263 10.5763 7.76665 10.7035C8.35331 11.0035 8.68665 11.3702 8.68665 11.7235C8.68665 12.4768 7.11331 13.3168 5.00665 13.3168C2.89998 13.3168 1.31998 12.4835 1.31998 11.7502C1.31998 11.4035 1.65331 11.0302 2.23998 10.7302C2.41591 10.6596 2.53683 10.4956 2.55224 10.3067C2.56766 10.1178 2.47491 9.93641 2.31274 9.83828C2.15056 9.74015 1.94685 9.74217 1.78665 9.84348C0.977245 10.1486 0.412965 10.8888 0.333313 11.7502C0.333313 13.2302 2.33331 14.3435 4.99998 14.3435C7.66665 14.3435 9.66665 13.2302 9.66665 11.7502C9.59435 10.8814 9.02881 10.1316 8.21331 9.82348Z" fill="#6D7379"/>
<path fill-rule="evenodd" clip-rule="evenodd" d="M4.49998 12.0435V9.16348C2.30458 8.89898 0.694998 6.97036 0.82749 4.76305C0.959981 2.55574 2.7887 0.833496 4.99998 0.833496C7.21126 0.833496 9.03998 2.55574 9.17247 4.76305C9.30496 6.97036 7.69538 8.89898 5.49998 9.16348V12.0435C5.49998 12.3196 5.27612 12.5435 4.99998 12.5435C4.72384 12.5435 4.49998 12.3196 4.49998 12.0435ZM7.94946 3.79425C7.45452 2.60287 6.29008 1.82745 4.99998 1.83015C3.24524 1.83382 1.82365 3.25541 1.81998 5.01015C1.81729 6.30025 2.5927 7.46469 3.78408 7.95963C4.97546 8.45457 6.34772 8.18236 7.25995 7.27012C8.17219 6.35789 8.4444 4.98563 7.94946 3.79425Z" fill="#6D7379"/>
<path d="M3.39331 5.75015C3.66946 5.75015 3.89331 5.52629 3.89331 5.25015C3.89331 4.48432 4.51415 3.86348 5.27998 3.86348C5.55612 3.86348 5.77998 3.63963 5.77998 3.36348C5.77998 3.08734 5.55612 2.86348 5.27998 2.86348C4.64523 2.86525 4.03718 3.1191 3.58959 3.56919C3.142 4.01927 2.89154 4.62873 2.89331 5.26348C2.89507 5.39433 2.94874 5.51911 3.04251 5.61038C3.13628 5.70165 3.26247 5.75193 3.39331 5.75015Z" fill="#6D7379"/>
</svg>
