<svg width="32" height="33" viewBox="0 0 32 33" fill="none" xmlns="http://www.w3.org/2000/svg">
<g clip-path="url(#clip0_1077_4329)">
<path d="M16.0002 5.9962L14.5662 4.5222C11.2002 1.0622 5.02824 2.2562 2.80025 6.6062C1.83625 8.4902 1.56025 11.1462 3.01625 14.5002H0.860245C-3.39575 3.1062 9.19024 -3.1598 15.6482 2.7862C15.7682 2.89687 15.8856 3.01087 16.0002 3.1282C16.1129 3.01013 16.2303 2.8967 16.3522 2.7882C22.8122 -3.1598 35.3962 3.1062 31.1402 14.5002H28.9842C30.4402 11.1462 30.1642 8.4902 29.2002 6.6062C26.9722 2.2562 20.8002 1.0602 17.4342 4.5202L16.0002 5.9962ZM4.42424 20.5002H7.05424C9.18624 22.8662 12.1002 25.4162 16.0002 28.0902C19.8982 25.4162 22.8142 22.8662 24.9462 20.5002H27.5762C25.0462 23.6322 21.2962 27.0002 16.0002 30.5002C10.7042 27.0002 6.95424 23.6322 4.42424 20.5002Z" fill="#145DB8"/>
<path d="M20.928 7.12799C20.8504 6.93437 20.7142 6.76985 20.5385 6.65747C20.3628 6.54509 20.1563 6.49048 19.948 6.50128C19.7397 6.51208 19.5399 6.58776 19.3768 6.71771C19.2136 6.84766 19.0951 7.02538 19.038 7.22599L15.842 18.412L12.928 11.128C12.8601 10.959 12.7474 10.8118 12.602 10.7022C12.4566 10.5926 12.284 10.5247 12.1029 10.506C11.9218 10.4873 11.739 10.5184 11.5742 10.5959C11.4095 10.6734 11.269 10.7945 11.168 10.946L7.464 16.5H1C0.734784 16.5 0.48043 16.6054 0.292893 16.7929C0.105357 16.9804 0 17.2348 0 17.5C0 17.7652 0.105357 18.0196 0.292893 18.2071C0.48043 18.3946 0.734784 18.5 1 18.5H8C8.16468 18.4999 8.3268 18.4592 8.47194 18.3813C8.61708 18.3035 8.74077 18.1911 8.832 18.054L11.778 13.636L15.072 21.872C15.1496 22.0656 15.2858 22.2301 15.4615 22.3425C15.6372 22.4549 15.8437 22.5095 16.052 22.4987C16.2603 22.4879 16.4601 22.4122 16.6232 22.2823C16.7864 22.1523 16.9049 21.9746 16.962 21.774L20.158 10.588L23.072 17.872C23.1463 18.0574 23.2744 18.2163 23.4398 18.3282C23.6052 18.4401 23.8003 18.4999 24 18.5H31C31.2652 18.5 31.5196 18.3946 31.7071 18.2071C31.8946 18.0196 32 17.7652 32 17.5C32 17.2348 31.8946 16.9804 31.7071 16.7929C31.5196 16.6054 31.2652 16.5 31 16.5H24.676L20.928 7.12799Z" fill="#145DB8"/>
</g>
<defs>
<clipPath id="clip0_1077_4329">
<rect width="32" height="32" fill="white" transform="translate(0 0.5)"/>
</clipPath>
</defs>
</svg>
