<svg width="24" height="20" viewBox="0 0 24 20" fill="none" xmlns="http://www.w3.org/2000/svg">
<g clip-path="url(#clip0_1903_3816)">
<path d="M4.36311 19.2352V18.0004C4.36311 17.527 4.07492 17.2184 3.58095 17.2184C3.33401 17.2184 3.06645 17.3007 2.8812 17.5682C2.7372 17.3418 2.53142 17.2184 2.2227 17.2184C2.01683 17.2184 1.81114 17.28 1.64642 17.5064V17.2595H1.21423V19.2352H1.64642V18.1444C1.64642 17.7946 1.83167 17.6299 2.11986 17.6299C2.40786 17.6299 2.55205 17.8152 2.55205 18.1444V19.2352H2.98423V18.1444C2.98423 17.7946 3.18992 17.6299 3.45748 17.6299C3.74567 17.6299 3.88967 17.8152 3.88967 18.1444V19.2352H4.36311ZM10.7635 17.2595H10.0639V16.6627H9.63167V17.2595H9.24064V17.6504H9.63158V18.5561C9.63158 19.0089 9.81683 19.2764 10.3108 19.2764C10.496 19.2764 10.7017 19.2147 10.8459 19.1324L10.7224 18.7619C10.5989 18.8442 10.4549 18.8648 10.352 18.8648C10.1462 18.8648 10.0639 18.7413 10.0639 18.5354V17.6504H10.7635V17.2595ZM14.4269 17.2183C14.18 17.2183 14.0153 17.3418 13.9124 17.5064V17.2595H13.4802V19.2352H13.9124V18.1239C13.9124 17.7946 14.0564 17.6094 14.324 17.6094C14.4063 17.6094 14.5092 17.63 14.5915 17.6505L14.715 17.239C14.6327 17.2184 14.5092 17.2184 14.4269 17.2184M8.89076 17.4242C8.68489 17.2801 8.3968 17.2184 8.08808 17.2184C7.5942 17.2184 7.26495 17.4654 7.26495 17.8564C7.26495 18.1858 7.51189 18.3709 7.94408 18.4327L8.14986 18.4533C8.37626 18.4944 8.49973 18.5562 8.49973 18.6591C8.49973 18.8031 8.33511 18.906 8.04692 18.906C7.75873 18.906 7.53242 18.8031 7.38833 18.7003L7.18255 19.0295C7.40895 19.1941 7.71767 19.2764 8.0263 19.2764C8.60258 19.2764 8.93192 19.009 8.93192 18.6385C8.93192 18.2886 8.66436 18.1034 8.2527 18.0417L8.04692 18.021C7.86167 18.0004 7.71767 17.9594 7.71767 17.8359C7.71767 17.6918 7.86167 17.6095 8.08808 17.6095C8.33511 17.6095 8.58205 17.7123 8.70551 17.7741L8.89076 17.4242ZM20.3747 17.2184C20.1276 17.2184 19.963 17.3419 19.8601 17.5065V17.2596H19.4279V19.2353H19.8601V18.124C19.8601 17.7947 20.0042 17.6095 20.2716 17.6095C20.354 17.6095 20.457 17.6301 20.5393 17.6506L20.6628 17.2391C20.5805 17.2184 20.457 17.2184 20.3747 17.2184ZM14.8591 18.2474C14.8591 18.8443 15.2706 19.2764 15.9087 19.2764C16.1968 19.2764 16.4026 19.2148 16.6084 19.0501L16.4026 18.7003C16.238 18.8237 16.0733 18.8854 15.8881 18.8854C15.5382 18.8854 15.2913 18.6385 15.2913 18.2474C15.2913 17.877 15.5382 17.63 15.8881 17.6095C16.0733 17.6095 16.238 17.6712 16.4026 17.7947L16.6084 17.4449C16.4026 17.2801 16.1968 17.2184 15.9087 17.2184C15.2706 17.2184 14.8591 17.6506 14.8591 18.2474ZM18.8517 18.2474V17.2596H18.4195V17.5065C18.2754 17.3214 18.0696 17.2184 17.8021 17.2184C17.2464 17.2184 16.8142 17.6506 16.8142 18.2474C16.8142 18.8443 17.2464 19.2764 17.8021 19.2764C18.0902 19.2764 18.296 19.1736 18.4195 18.9884V19.2353H18.8517V18.2474ZM17.267 18.2474C17.267 17.8976 17.4934 17.6095 17.8638 17.6095C18.2136 17.6095 18.4607 17.877 18.4607 18.2474C18.4607 18.5973 18.2136 18.8854 17.8638 18.8854C17.4934 18.8648 17.267 18.5973 17.267 18.2474ZM12.1013 17.2184C11.525 17.2184 11.1134 17.63 11.1134 18.2474C11.1134 18.8649 11.525 19.2764 12.1219 19.2764C12.41 19.2764 12.6981 19.1941 12.9245 19.009L12.7187 18.7003C12.554 18.8237 12.3483 18.906 12.1425 18.906C11.8749 18.906 11.6074 18.7826 11.5456 18.4326H13.0069V18.2681C13.0275 17.63 12.6571 17.2184 12.1013 17.2184ZM12.1012 17.5889C12.3687 17.5889 12.554 17.7536 12.5951 18.0623H11.5661C11.6073 17.7947 11.7925 17.5889 12.1012 17.5889ZM22.8236 18.2474V16.4775H22.3914V17.5065C22.2473 17.3214 22.0415 17.2184 21.774 17.2184C21.2183 17.2184 20.7861 17.6506 20.7861 18.2474C20.7861 18.8443 21.2183 19.2764 21.774 19.2764C22.0622 19.2764 22.268 19.1736 22.3914 18.9884V19.2353H22.8236V18.2474ZM21.239 18.2474C21.239 17.8976 21.4653 17.6095 21.8358 17.6095C22.1856 17.6095 22.4326 17.877 22.4326 18.2474C22.4326 18.5973 22.1856 18.8854 21.8358 18.8854C21.4653 18.8648 21.239 18.5973 21.239 18.2474ZM6.79142 18.2474V17.2596H6.35923V17.5065C6.21514 17.3214 6.00936 17.2184 5.7418 17.2184C5.18614 17.2184 4.75395 17.6506 4.75395 18.2474C4.75395 18.8443 5.18614 19.2764 5.7418 19.2764C6.02998 19.2764 6.23576 19.1736 6.35923 18.9884V19.2353H6.79142V18.2474ZM5.18614 18.2474C5.18614 17.8976 5.41255 17.6095 5.78295 17.6095C6.13283 17.6095 6.37986 17.877 6.37986 18.2474C6.37986 18.5973 6.13283 18.8854 5.78295 18.8854C5.41255 18.8648 5.18614 18.5973 5.18614 18.2474Z" fill="black"/>
<path d="M8.7467 2.25635H15.2295V13.9049H8.7467V2.25635Z" fill="#FF5F00"/>
<path d="M9.15834 8.08084C9.15834 5.71412 10.2697 3.61488 11.9778 2.25653C10.7225 1.26869 9.13781 0.671875 7.40906 0.671875C3.31341 0.671875 0 3.98528 0 8.08084C0 12.1764 3.31341 15.4898 7.40897 15.4898C9.13772 15.4898 10.7224 14.893 11.9778 13.9051C10.2697 12.5673 9.15834 10.4476 9.15834 8.08084Z" fill="#EB001B"/>
<path d="M23.9762 8.08084C23.9762 12.1763 20.6628 15.4898 16.5672 15.4898C14.8385 15.4898 13.2538 14.893 11.9984 13.9051C13.7272 12.5468 14.8179 10.4476 14.8179 8.08084C14.8179 5.71412 13.7065 3.61488 11.9984 2.25653C13.2537 1.26869 14.8385 0.671875 16.5672 0.671875C20.6628 0.671875 23.9762 4.00591 23.9762 8.08084Z" fill="#F79E1B"/>
</g>
<defs>
<clipPath id="clip0_1903_3816">
<rect width="24" height="18.6562" fill="white" transform="translate(0 0.671875)"/>
</clipPath>
</defs>
</svg>
