<svg width="32" height="32" viewBox="0 0 32 32" fill="none" xmlns="http://www.w3.org/2000/svg">
<path d="M16.0286 19.8182C20.7732 19.8182 24.6195 16.1143 24.6195 11.5454C24.6195 6.97653 20.7732 3.27271 16.0286 3.27271C11.284 3.27271 7.43768 6.97653 7.43768 11.5454C7.43768 16.1143 11.284 19.8182 16.0286 19.8182Z" fill="#05162C"/>
<path d="M20.8522 20.5946C21.2722 20.3783 21.7559 20.6965 21.7559 21.1674V27.3401C21.7559 28.4855 20.9541 29.0455 19.9613 28.5746L16.5504 26.9583C16.2577 26.831 15.7995 26.831 15.5068 26.9583L12.0959 28.5746C11.1031 29.0328 10.3013 28.4728 10.3013 27.3274L10.3268 21.1674C10.3268 20.6965 10.8231 20.391 11.2304 20.5946C12.6686 21.3201 14.2977 21.7274 16.0286 21.7274C17.7595 21.7274 19.4013 21.3201 20.8522 20.5946Z" fill="#05162C"/>
</svg>
