<svg width="32" height="32" viewBox="0 0 32 32" fill="none" xmlns="http://www.w3.org/2000/svg">
<path d="M17.5145 8.36353H9.36907C9.03816 8.36353 8.71998 8.37625 8.41452 8.41443C4.99089 8.70716 3.27271 10.7308 3.27271 14.4599V19.5508C3.27271 24.6417 5.30907 25.6472 9.36907 25.6472H9.87816C10.1582 25.6472 10.5273 25.8381 10.6927 26.0544L12.22 28.0908C12.8945 28.9944 13.9891 28.9944 14.6636 28.0908L16.1909 26.0544C16.3818 25.7999 16.6873 25.6472 17.0054 25.6472H17.5145C21.2436 25.6472 23.2673 23.9417 23.56 20.5053C23.5982 20.1999 23.6109 19.8817 23.6109 19.5508V14.4599C23.6109 10.3999 21.5745 8.36353 17.5145 8.36353ZM8.99998 18.5453C8.28725 18.5453 7.72725 17.9726 7.72725 17.2726C7.72725 16.5726 8.29998 15.9999 8.99998 15.9999C9.69998 15.9999 10.2727 16.5726 10.2727 17.2726C10.2727 17.9726 9.69998 18.5453 8.99998 18.5453ZM13.4418 18.5453C12.7291 18.5453 12.1691 17.9726 12.1691 17.2726C12.1691 16.5726 12.7418 15.9999 13.4418 15.9999C14.1418 15.9999 14.7145 16.5726 14.7145 17.2726C14.7145 17.9726 14.1545 18.5453 13.4418 18.5453ZM17.8963 18.5453C17.1836 18.5453 16.6236 17.9726 16.6236 17.2726C16.6236 16.5726 17.1963 15.9999 17.8963 15.9999C18.5963 15.9999 19.1691 16.5726 19.1691 17.2726C19.1691 17.9726 18.5963 18.5453 17.8963 18.5453Z" fill="#05162C"/>
<path d="M28.7019 9.36907V14.46C28.7019 17.0054 27.9128 18.7363 26.3346 19.6909C25.9528 19.92 25.5073 19.6145 25.5073 19.1691L25.5201 14.46C25.5201 9.36907 22.6055 6.45452 17.5146 6.45452L9.76371 6.46725C9.31825 6.46725 9.0128 6.0218 9.24189 5.63998C10.1964 4.0618 11.9273 3.27271 14.4601 3.27271H22.6055C26.6655 3.27271 28.7019 5.30907 28.7019 9.36907Z" fill="#05162C"/>
</svg>
