<svg width="32" height="32" viewBox="0 0 32 32" fill="none" xmlns="http://www.w3.org/2000/svg">
<path d="M12.1818 3.27271C8.84726 3.27271 6.13635 5.98361 6.13635 9.31816C6.13635 12.5891 8.69453 15.2363 12.0291 15.3509C12.1309 15.3382 12.2327 15.3382 12.3091 15.3509C12.3345 15.3509 12.3473 15.3509 12.3727 15.3509C12.3854 15.3509 12.3854 15.3509 12.3982 15.3509C15.6564 15.2363 18.2145 12.5891 18.2273 9.31816C18.2273 5.98361 15.5164 3.27271 12.1818 3.27271Z" fill="#05162C"/>
<path d="M18.6473 18.7361C15.0964 16.3689 9.3055 16.3689 5.72914 18.7361C4.11277 19.818 3.22186 21.2816 3.22186 22.8471C3.22186 24.4125 4.11277 25.8634 5.71641 26.9325C7.49823 28.1289 9.84004 28.7271 12.1819 28.7271C14.5237 28.7271 16.8655 28.1289 18.6473 26.9325C20.251 25.8507 21.1419 24.3998 21.1419 22.8216C21.1291 21.2561 20.251 19.8052 18.6473 18.7361Z" fill="#05162C"/>
<path d="M26.1691 10.0693C26.3728 12.5384 24.6164 14.7021 22.1855 14.9948C22.1728 14.9948 22.1728 14.9948 22.16 14.9948H22.1218C22.0455 14.9948 21.9691 14.9948 21.9055 15.0202C20.6709 15.0839 19.5382 14.6893 18.6855 13.9639C19.9964 12.793 20.7473 11.0366 20.5946 9.12751C20.5055 8.0966 20.1491 7.15478 19.6146 6.35297C20.0982 6.11115 20.6582 5.95842 21.2309 5.90751C23.7255 5.69115 25.9528 7.54933 26.1691 10.0693Z" fill="#05162C"/>
<path d="M28.7146 21.8417C28.6128 23.0762 27.8237 24.1453 26.5 24.8708C25.2273 25.5708 23.6237 25.9017 22.0328 25.8635C22.9491 25.0362 23.4837 24.0053 23.5855 22.9108C23.7128 21.3326 22.9619 19.8181 21.4601 18.609C20.6073 17.9344 19.6146 17.3999 18.5328 17.0053C21.3455 16.1908 24.8837 16.7381 27.06 18.4944C28.231 19.4362 28.8291 20.6199 28.7146 21.8417Z" fill="#05162C"/>
</svg>
