<svg width="20" height="20" viewBox="0 0 20 20" fill="none" xmlns="http://www.w3.org/2000/svg">
<g clip-path="url(#clip0_1251_4612)">
<path d="M1.66675 4.3811C1.66675 2.88196 2.97258 1.66667 4.58342 1.66667C6.19425 1.66667 7.50008 2.88196 7.50008 4.3811C7.50008 5.86849 6.56918 7.60414 5.11678 8.22482C4.7782 8.36951 4.38863 8.36951 4.05005 8.22482C2.59765 7.60414 1.66675 5.86849 1.66675 4.3811Z" stroke="#6D7379" stroke-width="1.5"/>
<path d="M12.5 14.3811C12.5 12.882 13.8058 11.6667 15.4167 11.6667C17.0275 11.6667 18.3333 12.882 18.3333 14.3811C18.3333 15.8685 17.4024 17.6041 15.95 18.2248C15.6114 18.3695 15.2219 18.3695 14.8833 18.2248C13.4309 17.6041 12.5 15.8685 12.5 14.3811Z" stroke="#6D7379" stroke-width="1.5"/>
<path d="M15.4165 14.5833H15.424" stroke="#6D7379" stroke-width="2" stroke-linecap="round" stroke-linejoin="round"/>
<path d="M4.57568 4.58334H4.58318" stroke="#6D7379" stroke-width="2" stroke-linecap="round" stroke-linejoin="round"/>
<path d="M10.0001 3.41666C9.58589 3.41666 9.2501 3.75245 9.2501 4.16666C9.2501 4.58088 9.58589 4.91666 10.0001 4.91666V4.16666V3.41666ZM10.0001 15.8333L10.5304 16.3637C10.8233 16.0708 10.8233 15.5959 10.5304 15.303L10.0001 15.8333ZM14.3381 7.23943L14.7408 7.87218L14.3381 7.23943ZM5.66208 12.7606L6.06473 13.3933H6.06473L5.66208 12.7606ZM9.28043 14.053C8.98754 13.7601 8.51266 13.7601 8.21977 14.053C7.92688 14.3459 7.92688 14.8208 8.21977 15.1137L8.7501 14.5833L9.28043 14.053ZM8.21977 16.553C7.92688 16.8459 7.92688 17.3208 8.21977 17.6137C8.51266 17.9066 8.98754 17.9066 9.28043 17.6137L8.7501 17.0833L8.21977 16.553ZM13.4433 4.16666V3.41666H10.0001V4.16666V4.91666H13.4433V4.16666ZM10.0001 15.8333V15.0833H6.55686V15.8333V16.5833H10.0001V15.8333ZM14.3381 7.23943L13.9355 6.60669L5.25942 12.1278L5.66208 12.7606L6.06473 13.3933L14.7408 7.87218L14.3381 7.23943ZM10.0001 15.8333L10.5304 15.303L9.28043 14.053L8.7501 14.5833L8.21977 15.1137L9.46977 16.3637L10.0001 15.8333ZM10.0001 15.8333L9.46977 15.303L8.21977 16.553L8.7501 17.0833L9.28043 17.6137L10.5304 16.3637L10.0001 15.8333ZM6.55686 15.8333V15.0833C5.63979 15.0833 5.29102 13.8857 6.06473 13.3933L5.66208 12.7606L5.25942 12.1278C3.21967 13.4258 4.13911 16.5833 6.55686 16.5833V15.8333ZM13.4433 4.16666V4.91666C14.3604 4.91666 14.7092 6.11433 13.9355 6.60669L14.3381 7.23943L14.7408 7.87218C16.7805 6.57415 15.8611 3.41666 13.4433 3.41666V4.16666Z" fill="#6D7379"/>
</g>
<defs>
<clipPath id="clip0_1251_4612">
<rect width="20" height="20" fill="white"/>
</clipPath>
</defs>
</svg>
