<svg width="20" height="21" viewBox="0 0 20 21" fill="none" xmlns="http://www.w3.org/2000/svg">
<path d="M7.62763 5.00694C8.68317 3.1134 9.21094 2.16663 9.99999 2.16663C10.789 2.16663 11.3168 3.1134 12.3724 5.00694L12.6454 5.49682C12.9454 6.0349 13.0954 6.30395 13.3292 6.48146C13.563 6.65898 13.8543 6.72488 14.4367 6.85667L14.967 6.97665C17.0168 7.44042 18.0416 7.67231 18.2855 8.4564C18.5293 9.24049 17.8306 10.0575 16.4332 11.6916L16.0717 12.1143C15.6746 12.5787 15.4761 12.8108 15.3868 13.0981C15.2974 13.3853 15.3275 13.6951 15.3875 14.3146L15.4422 14.8786C15.6534 17.0588 15.7591 18.1489 15.1207 18.6335C14.4823 19.1181 13.5228 18.6762 11.6036 17.7926L11.1071 17.564C10.5617 17.3129 10.289 17.1873 9.99999 17.1873C9.71094 17.1873 9.43826 17.3129 8.89289 17.564L8.39638 17.7926C6.47722 18.6762 5.51764 19.1181 4.87928 18.6335C4.24092 18.1489 4.34656 17.0588 4.55782 14.8786L4.61248 14.3146C4.67251 13.6951 4.70253 13.3853 4.61321 13.0981C4.52389 12.8108 4.32534 12.5787 3.92825 12.1143L3.56674 11.6916C2.16936 10.0575 1.47068 9.24049 1.71451 8.4564C1.95834 7.67231 2.9832 7.44042 5.03294 6.97665L5.56323 6.85667C6.1457 6.72488 6.43693 6.65898 6.67077 6.48146C6.90462 6.30395 7.05459 6.0349 7.35454 5.49682L7.62763 5.00694Z" fill="#F9E000"/>
</svg>
