<svg width="18" height="18" viewBox="0 0 18 18" fill="none" xmlns="http://www.w3.org/2000/svg">
<path d="M6.62766 3.50694C7.6832 1.6134 8.21097 0.666626 9.00002 0.666626C9.78907 0.666626 10.3168 1.6134 11.3724 3.50694L11.6455 3.99682C11.9454 4.5349 12.0954 4.80395 12.3292 4.98146C12.5631 5.15898 12.8543 5.22488 13.4368 5.35667L13.9671 5.47665C16.0168 5.94042 17.0417 6.17231 17.2855 6.9564C17.5293 7.74049 16.8306 8.55752 15.4333 10.1916L15.0718 10.6143C14.6747 11.0787 14.4761 11.3108 14.3868 11.5981C14.2975 11.8853 14.3275 12.1951 14.3875 12.8146L14.4422 13.3786C14.6535 15.5588 14.7591 16.6489 14.1207 17.1335C13.4824 17.6181 12.5228 17.1762 10.6036 16.2926L10.1071 16.064C9.56175 15.8129 9.28906 15.6873 9.00002 15.6873C8.71097 15.6873 8.43829 15.8129 7.89292 16.064L7.39641 16.2926C5.47725 17.1762 4.51767 17.6181 3.87931 17.1335C3.24095 16.6489 3.34659 15.5588 3.55785 13.3786L3.61251 12.8146C3.67254 12.1951 3.70256 11.8853 3.61324 11.5981C3.52392 11.3108 3.32537 11.0787 2.92829 10.6143L2.56677 10.1916C1.16939 8.55752 0.470707 7.74049 0.714538 6.9564C0.958368 6.17231 1.98323 5.94042 4.03297 5.47665L4.56326 5.35667C5.14573 5.22488 5.43696 5.15898 5.67081 4.98146C5.90465 4.80395 6.05462 4.5349 6.35458 3.99682L6.62766 3.50694Z" fill="#F9E000"/>
</svg>
