<svg width="21" height="20" viewBox="0 0 21 20" fill="none" xmlns="http://www.w3.org/2000/svg">
<path d="M8.41663 11.6666C9.79734 11.6666 10.9166 12.7859 10.9166 14.1666C10.9166 15.5474 9.79734 16.6666 8.41663 16.6666C7.03591 16.6666 5.91663 15.5474 5.91663 14.1666C5.91663 12.7859 7.03591 11.6666 8.41663 11.6666Z" stroke="#6D7379" stroke-width="1.5"/>
<path d="M12.5834 3.33331C11.2027 3.33331 10.0834 4.4526 10.0834 5.83331C10.0834 7.21402 11.2027 8.33331 12.5834 8.33331C13.9641 8.33331 15.0834 7.21402 15.0834 5.83331C15.0834 4.4526 13.9641 3.33331 12.5834 3.33331Z" stroke="#6D7379" stroke-width="1.5"/>
<path d="M13 14.1321L18.8333 14.1321" stroke="#6D7379" stroke-width="1.5" stroke-linecap="round"/>
<path d="M8 5.79874L2.16667 5.79874" stroke="#6D7379" stroke-width="1.5" stroke-linecap="round"/>
<path d="M2.16663 14.1321L3.83329 14.1321" stroke="#6D7379" stroke-width="1.5" stroke-linecap="round"/>
<path d="M18.8334 5.79874L17.1667 5.79874" stroke="#6D7379" stroke-width="1.5" stroke-linecap="round"/>
</svg>
