<svg width="22" height="22" viewBox="0 0 22 22" fill="none" xmlns="http://www.w3.org/2000/svg">
<path fill-rule="evenodd" clip-rule="evenodd" d="M11 0.25C11.4142 0.25 11.75 0.585786 11.75 1V1.25143C11.8612 1.25311 11.9561 1.25675 12.0446 1.26458C13.8548 1.42465 15.2896 2.85953 15.4497 4.66968C15.4643 4.83512 15.4643 5.02256 15.4643 5.29785L15.4643 6.521C15.4643 10.3903 12.5202 13.5719 8.75001 13.9481V16.0001C8.75001 18.3473 10.6528 20.2501 13 20.2501H13.8824C15.1325 20.2501 16.2247 19.5684 16.8057 18.5558C15.3202 18.0571 14.25 16.6535 14.25 15C14.25 12.9289 15.9289 11.25 18 11.25C20.0711 11.25 21.75 12.9289 21.75 15C21.75 16.9405 20.2761 18.5367 18.3868 18.7303C17.6592 20.5018 15.9174 21.7501 13.8824 21.7501H13C9.82437 21.7501 7.25001 19.1757 7.25001 16.0001V13.9495C3.3217 13.5722 0.250006 10.2625 0.250006 6.23529L0.250003 5.29791C0.249972 5.02259 0.249951 4.83514 0.264582 4.66968C0.424652 2.85953 1.85954 1.42465 3.66969 1.26458C3.82536 1.25081 4.00051 1.25002 4.25001 1.24999V1C4.25001 0.585786 4.58579 0.25 5.00001 0.25C5.41422 0.25 5.75001 0.585786 5.75001 1V3C5.75001 3.41421 5.41422 3.75 5.00001 3.75C4.58579 3.75 4.25001 3.41421 4.25001 3V2.75002C3.9866 2.7502 3.88393 2.75148 3.80181 2.75875C2.71573 2.85479 1.85479 3.71572 1.75875 4.80181C1.75074 4.8924 1.75001 5.00802 1.75001 5.3369V6.23529C1.75001 9.68707 4.54823 12.4853 8.00001 12.4853C11.294 12.4853 13.9643 9.81499 13.9643 6.521V5.3369C13.9643 5.00802 13.9636 4.8924 13.9555 4.80181C13.8595 3.71572 12.9986 2.85479 11.9125 2.75875C11.8702 2.755 11.8224 2.75285 11.75 2.75162V3C11.75 3.41421 11.4142 3.75 11 3.75C10.5858 3.75 10.25 3.41421 10.25 3V1C10.25 0.585786 10.5858 0.25 11 0.25ZM15.75 15C15.75 13.7574 16.7574 12.75 18 12.75C19.2426 12.75 20.25 13.7574 20.25 15C20.25 16.2426 19.2426 17.25 18 17.25C16.7574 17.25 15.75 16.2426 15.75 15Z" fill="#05162C"/>
</svg>
