<svg width="24" height="17" viewBox="0 0 24 17" fill="none" xmlns="http://www.w3.org/2000/svg">
<path d="M12 3.99996C11.5584 4.0069 11.12 4.07705 10.6983 4.20829C10.8934 4.55134 10.9972 4.93867 11 5.33329C11 5.63971 10.9396 5.94313 10.8224 6.22622C10.7051 6.50931 10.5332 6.76654 10.3166 6.98321C10.0999 7.19988 9.84267 7.37175 9.55957 7.48901C9.27648 7.60627 8.97306 7.66663 8.66664 7.66663C8.27202 7.66389 7.88469 7.56003 7.54164 7.36496C7.27099 8.30362 7.30254 9.30365 7.63181 10.2234C7.96109 11.1431 8.5714 11.936 9.3763 12.4896C10.1812 13.0432 11.1399 13.3295 12.1165 13.308C13.0932 13.2865 14.0384 12.9582 14.8181 12.3697C15.5978 11.7812 16.1726 10.9622 16.4611 10.0289C16.7495 9.09552 16.737 8.09507 16.4253 7.16924C16.1135 6.2434 15.5184 5.43912 14.7242 4.87031C13.9299 4.30151 12.9769 3.99701 12 3.99996ZM23.855 8.05829C21.5954 3.64954 17.1221 0.666626 12 0.666626C6.87789 0.666626 2.40331 3.65163 0.144977 8.05871C0.0496613 8.24726 0 8.45557 0 8.66683C0 8.8781 0.0496613 9.08641 0.144977 9.27496C2.40456 13.6837 6.87789 16.6666 12 16.6666C17.1221 16.6666 21.5966 13.6816 23.855 9.27454C23.9503 9.086 24 8.87769 24 8.66642C24 8.45515 23.9503 8.24684 23.855 8.05829ZM12 14.6666C7.88956 14.6666 4.12123 12.375 2.08623 8.66663C4.12123 4.95829 7.88914 2.66663 12 2.66663C16.1108 2.66663 19.8787 4.95829 21.9137 8.66663C19.8791 12.375 16.1108 14.6666 12 14.6666Z" fill="#05162C"/>
</svg>
