<svg width="24" height="22" viewBox="0 0 24 22" fill="none" xmlns="http://www.w3.org/2000/svg">
<path d="M12.75 1.25C12.75 1.05109 12.6709 0.860322 12.5303 0.71967C12.3896 0.579018 12.1989 0.5 12 0.5C11.8011 0.5 11.6103 0.579018 11.4696 0.71967C11.329 0.860322 11.25 1.05109 11.25 1.25V9.1145L10.5 9.65V6.08C10.5 4.655 9.34496 3.5 7.91997 3.5C7.13397 3.5 6.38546 3.905 5.75546 4.388C5.10896 4.886 4.48496 5.5475 3.93146 6.2315C2.82747 7.5935 1.91097 9.1505 1.56147 9.9515C1.29747 10.559 0.971965 11.6915 0.727465 12.968C0.479965 14.2535 0.302965 15.7535 0.365965 17.1065C0.425965 18.407 0.715465 19.7915 1.62297 20.6015C2.62796 21.5015 4.05596 21.4355 5.73446 20.5955L8.42696 19.25C9.04986 18.9386 9.57372 18.4598 9.93986 17.8674C10.306 17.2751 10.4999 16.5924 10.5 15.896V14.75C10.5 14.5511 10.4209 14.3603 10.2803 14.2197C10.1396 14.079 9.94888 14 9.74996 14C9.55105 14 9.36029 14.079 9.21964 14.2197C9.07898 14.3603 8.99996 14.5511 8.99996 14.75V15.896C8.99995 16.3141 8.88346 16.7239 8.66355 17.0794C8.44364 17.435 8.12901 17.7223 7.75496 17.909L5.06396 19.2545C3.59696 19.988 2.94147 19.769 2.62197 19.4825C2.20197 19.1075 1.92147 18.281 1.86447 17.0375C1.80897 15.845 1.96647 14.4725 2.20047 13.25C2.43597 12.02 2.73597 11.0135 2.93696 10.55C3.22196 9.893 4.06196 8.45 5.09696 7.175C5.60996 6.542 6.15146 5.9765 6.67046 5.5775C7.20747 5.1635 7.62897 5 7.91997 5C8.2064 5 8.4811 5.11379 8.68364 5.31633C8.88618 5.51886 8.99996 5.79357 8.99996 6.08V10.721L6.31496 12.641C6.16439 12.7605 6.06547 12.9333 6.03863 13.1237C6.01179 13.3141 6.05907 13.5075 6.17073 13.664C6.28238 13.8205 6.44987 13.9281 6.63862 13.9647C6.82736 14.0013 7.02294 13.964 7.18496 13.8605L12 10.421L16.815 13.8605C16.8949 13.9214 16.9863 13.9656 17.0837 13.9904C17.181 14.0153 17.2824 14.0204 17.3817 14.0053C17.4811 13.9903 17.5764 13.9554 17.662 13.9028C17.7476 13.8501 17.8218 13.7809 17.8801 13.699C17.9384 13.6172 17.9797 13.5244 18.0015 13.4263C18.0233 13.3282 18.0251 13.2268 18.0069 13.1279C17.9887 13.0291 17.9508 12.9349 17.8955 12.851C17.8402 12.7671 17.7686 12.6952 17.685 12.6395L15 10.721V6.08C15 5.79357 15.1137 5.51886 15.3163 5.31633C15.5188 5.11379 15.7935 5 16.08 5C16.371 5 16.7925 5.165 17.3295 5.5775C17.8485 5.9765 18.3885 6.542 18.9045 7.1765C19.9365 8.4515 20.7765 9.893 21.063 10.55C21.264 11.0135 21.564 12.02 21.7995 13.25C22.0335 14.471 22.1895 15.845 22.1355 17.0375C22.0785 18.281 21.7995 19.1075 21.378 19.4825C21.0585 19.7675 20.403 19.988 18.936 19.2545L16.2435 17.909C15.8697 17.7221 15.5554 17.4347 15.3357 17.0792C15.1161 16.7236 14.9998 16.3139 15 15.896V14.75C15 14.5511 14.9209 14.3603 14.7803 14.2197C14.6396 14.079 14.4489 14 14.25 14C14.0511 14 13.8603 14.079 13.7196 14.2197C13.579 14.3603 13.5 14.5511 13.5 14.75V15.896C13.5 16.5924 13.6939 17.2751 14.0601 17.8674C14.4262 18.4598 14.9501 18.9386 15.573 19.25L18.2655 20.5955C19.9455 21.4355 21.3705 21.5 22.377 20.6015C23.2845 19.7915 23.574 18.407 23.634 17.1065C23.697 15.7535 23.52 14.2535 23.274 12.968C23.028 11.69 22.704 10.559 22.437 9.95C22.089 9.1505 21.1725 7.5935 20.0685 6.2315C19.5135 5.5475 18.891 4.886 18.2445 4.388C17.6145 3.905 16.866 3.5 16.08 3.5C14.655 3.5 13.5 4.655 13.5 6.08V9.65L12.75 9.1145V1.25Z" fill="#05162C"/>
</svg>
