<svg width="22" height="22" viewBox="0 0 22 22" fill="none" xmlns="http://www.w3.org/2000/svg">
<path d="M9.125 17C9.125 17 9.875 16.25 11 16.25C12.125 16.25 12.875 17 12.875 17M20.75 11C20.75 16.385 16.385 20.75 11 20.75C5.615 20.75 1.25 16.385 1.25 11C1.25 5.615 5.615 1.25 11 1.25C16.385 1.25 20.75 5.615 20.75 11ZM16.25 12.5C16.25 12.6989 16.171 12.8897 16.0303 13.0303C15.8897 13.171 15.6989 13.25 15.5 13.25C15.3011 13.25 15.1103 13.171 14.9697 13.0303C14.829 12.8897 14.75 12.6989 14.75 12.5C14.75 12.3011 14.829 12.1103 14.9697 11.9697C15.1103 11.829 15.3011 11.75 15.5 11.75C15.6989 11.75 15.8897 11.829 16.0303 11.9697C16.171 12.1103 16.25 12.3011 16.25 12.5ZM7.25 12.5C7.25 12.6989 7.17098 12.8897 7.03033 13.0303C6.88968 13.171 6.69891 13.25 6.5 13.25C6.30109 13.25 6.11032 13.171 5.96967 13.0303C5.82902 12.8897 5.75 12.6989 5.75 12.5C5.75 12.3011 5.82902 12.1103 5.96967 11.9697C6.11032 11.829 6.30109 11.75 6.5 11.75C6.69891 11.75 6.88968 11.829 7.03033 11.9697C7.17098 12.1103 7.25 12.3011 7.25 12.5Z" stroke="#05162C" stroke-linecap="round" stroke-linejoin="round"/>
</svg>
