<svg width="22" height="22" viewBox="0 0 22 22" fill="none" xmlns="http://www.w3.org/2000/svg">
<path fill-rule="evenodd" clip-rule="evenodd" d="M18.1732 3.82683C18.2612 2.89084 17.9468 1.92416 17.2302 1.20746C15.9535 -0.0691547 13.8837 -0.0691547 12.6071 1.20746C11.6884 2.12621 11.2086 3.69568 11.5667 4.98972C11.6251 5.20068 11.6496 5.40371 11.6352 5.56696C11.6212 5.72662 11.5756 5.80135 11.5384 5.83857L10.2589 7.11804C9.81404 7.56291 9.95916 8.31642 10.5374 8.56426C11.8398 9.12242 12.8776 10.1602 13.4357 11.4626C13.6836 12.0408 14.4371 12.186 14.882 11.7411L16.1614 10.4616C16.1986 10.4244 16.2734 10.3788 16.433 10.3648C16.5963 10.3504 16.7993 10.3749 17.0103 10.4333C18.3043 10.7914 19.8738 10.3116 20.7925 9.3929C22.0692 8.11628 22.0692 6.04647 20.7925 4.76985C20.0758 4.05316 19.1092 3.73882 18.1732 3.82683ZM16.1695 2.26812C15.4787 1.57729 14.3586 1.57729 13.6678 2.26812C13.1001 2.83582 12.8097 3.85724 13.0124 4.58968C13.1024 4.91505 13.1642 5.30487 13.1294 5.69876C13.0944 6.09625 12.9553 6.54295 12.599 6.89923L11.9153 7.58302C12.949 8.18949 13.8105 9.05104 14.417 10.0847L15.1008 9.40095C15.457 9.04468 15.9037 8.90562 16.3012 8.87056C16.6951 8.83581 17.0849 8.89758 17.4103 8.98762C18.1428 9.1903 19.1642 8.89993 19.7319 8.33224C20.4227 7.64141 20.4227 6.52134 19.7319 5.83051C19.041 5.13968 17.921 5.13968 17.2302 5.83051C16.9373 6.1234 16.4624 6.1234 16.1695 5.83051C15.8766 5.53762 15.8766 5.06274 16.1695 4.76985C16.8603 4.07902 16.8603 2.95896 16.1695 2.26812Z" fill="#05162C"/>
<path d="M16.1269 16.1264C16.4198 15.8335 16.8947 15.8335 17.1876 16.1264L18.6018 17.5406C18.8947 17.8335 18.8947 18.3084 18.6018 18.6013C18.3089 18.8942 17.834 18.8942 17.5411 18.6013L16.1269 17.1871C15.834 16.8942 15.834 16.4193 16.1269 16.1264Z" fill="#05162C"/>
<path d="M5.87359 4.81293C6.16648 5.10582 6.16648 5.5807 5.87359 5.87359C5.5807 6.16648 5.10582 6.16648 4.81293 5.87359L3.39872 4.45938C3.10582 4.16649 3.10582 3.69161 3.39872 3.39872C3.69161 3.10582 4.16649 3.10582 4.45938 3.39872L5.87359 4.81293Z" fill="#05162C"/>
<path d="M14 17.25C14.4142 17.25 14.75 17.5858 14.75 18V19C14.75 19.4142 14.4142 19.75 14 19.75C13.5858 19.75 13.25 19.4142 13.25 19V18C13.25 17.5858 13.5858 17.25 14 17.25Z" fill="#05162C"/>
<path d="M4 8.75C4.41421 8.75 4.75 8.41421 4.75 8C4.75 7.58579 4.41421 7.25 4 7.25H3C2.58579 7.25 2.25 7.58579 2.25 8C2.25 8.41421 2.58579 8.75 3 8.75H4Z" fill="#05162C"/>
<path d="M17.25 14C17.25 13.5858 17.5858 13.25 18 13.25H19C19.4142 13.25 19.75 13.5858 19.75 14C19.75 14.4142 19.4142 14.75 19 14.75H18C17.5858 14.75 17.25 14.4142 17.25 14Z" fill="#05162C"/>
<path d="M7.25 4C7.25 4.41421 7.58579 4.75 8 4.75C8.41421 4.75 8.75 4.41421 8.75 4V3C8.75 2.58579 8.41421 2.25 8 2.25C7.58579 2.25 7.25 2.58579 7.25 3L7.25 4Z" fill="#05162C"/>
<path fill-rule="evenodd" clip-rule="evenodd" d="M11.4626 13.4357C10.1602 12.8776 9.12242 11.8398 8.56426 10.5374C8.31643 9.95917 7.56292 9.81403 7.11804 10.2589L5.83857 11.5384C5.80135 11.5756 5.72662 11.6212 5.56696 11.6352C5.40371 11.6496 5.20068 11.6251 4.98972 11.5667C3.69568 11.2086 2.12621 11.6884 1.20746 12.6071C-0.0691541 13.8837 -0.0691553 15.9535 1.20746 17.2302C1.92416 17.9468 2.89084 18.2612 3.82683 18.1732C3.73882 19.1092 4.05316 20.0758 4.76985 20.7925C6.04647 22.0692 8.11628 22.0692 9.3929 20.7925C10.3116 19.8738 10.7914 18.3043 10.4333 17.0103C10.3749 16.7993 10.3504 16.5963 10.3648 16.433C10.3788 16.2734 10.4244 16.1986 10.4616 16.1614L11.7411 14.882C12.186 14.4371 12.0408 13.6836 11.4626 13.4357ZM7.58302 11.9153L6.90291 12.5954L6.89923 12.599L6.87648 12.6214C6.52406 12.9612 6.08784 13.0951 5.69876 13.1294C5.30487 13.1642 4.91505 13.1024 4.58968 13.0124C3.85724 12.8097 2.83582 13.1001 2.26812 13.6678C1.57729 14.3586 1.57729 15.4787 2.26812 16.1695C2.95896 16.8603 4.07902 16.8603 4.76985 16.1695C4.84308 16.0963 4.92768 16.0413 5.01798 16.0047L5.02403 16.0023C5.29361 15.8957 5.61248 15.9515 5.83051 16.1695C6.1234 16.4624 6.1234 16.9373 5.83051 17.2302C5.13968 17.921 5.13968 19.041 5.83051 19.7319C6.52134 20.4227 7.64141 20.4227 8.33224 19.7319C8.89993 19.1642 9.1903 18.1428 8.98762 17.4103C8.89758 17.085 8.83581 16.6951 8.87056 16.3012C8.90562 15.9037 9.04468 15.457 9.40095 15.1008L10.0847 14.417C9.05104 13.8105 8.18949 12.949 7.58302 11.9153Z" fill="#05162C"/>
</svg>
