<svg width="15" height="20" viewBox="0 0 15 20" fill="none" xmlns="http://www.w3.org/2000/svg">
<path fill-rule="evenodd" clip-rule="evenodd" d="M10.974 0.120029C11.2073 0.245832 11.3811 0.45911 11.4572 0.712999C11.5334 0.966887 11.5056 1.24061 11.38 1.47403L8.40599 6.99803C7.47299 8.73003 6.04899 10.541 4.48799 11.791C3.84399 12.306 3.16099 12.953 2.76199 13.626C2.37699 14.274 2.33599 14.783 2.62199 15.26C2.93399 15.78 3.44199 16.149 4.02999 16.285C4.48698 15.8106 5.03321 15.4311 5.6373 15.1684C6.24139 14.9057 6.89144 14.765 7.55009 14.7543C8.20874 14.7436 8.86301 14.8632 9.47531 15.1061C10.0876 15.3491 10.6459 15.7107 11.118 16.17L9.72499 17.605C9.30492 17.1959 8.77416 16.9189 8.19833 16.8081C7.62249 16.6974 7.02684 16.7579 6.48499 16.982C6.79899 17.129 7.10499 17.301 7.38899 17.498C8.11899 18.006 8.90499 18.84 8.90499 20H6.90499C6.90499 19.815 6.77099 19.505 6.24499 19.14C5.74799 18.792 5.08499 18.537 4.52899 18.425L3.70499 18.261C3.12695 18.1454 2.57945 17.9103 2.09761 17.5707C1.61576 17.2311 1.21022 16.7945 0.906994 16.289C0.105994 14.953 0.440993 13.617 1.04199 12.605C1.62799 11.617 2.53799 10.789 3.23799 10.229C4.55999 9.17203 5.81999 7.58203 6.64499 6.05003L9.61999 0.526029C9.74562 0.292557 9.95883 0.11853 10.2127 0.0422092C10.4666 -0.0341121 10.7405 -0.0054806 10.974 0.120029ZM13 15.645C13.0018 14.9141 12.7349 14.208 12.25 13.661L13.75 12.337C14.24 12.8923 14.6004 13.5496 14.8054 14.2612C15.0104 14.9728 15.0547 15.7211 14.9352 16.452C14.8157 17.1828 14.5353 17.878 14.1143 18.4873C13.6934 19.0966 13.1423 19.6047 12.501 19.975L11.499 18.244C12.399 17.724 13 16.754 13 15.644" fill="#05162C"/>
</svg>
