<svg width="14" height="9" viewBox="0 0 14 9" fill="none" xmlns="http://www.w3.org/2000/svg">
<path d="M5.1135 5.6075C3.8115 4.4885 2.3 6.9225 1.8885 8.1035C1.46188 7.37065 1.32541 6.50452 1.506 5.676C1.9795 3.948 2.489 2.229 2.9645 0.572998H5.9535C5.66672 0.820054 5.4207 1.11079 5.2245 1.4345C4.91139 1.94903 4.7075 2.52248 4.62552 3.11919C4.54355 3.7159 4.58524 4.32309 4.748 4.903C4.8415 5.1515 4.9645 5.388 5.1135 5.6075ZM12.303 4.619C12.9366 5.25206 13.2965 6.1084 13.3055 7.004C13.3065 7.18 13.3545 7.929 13.198 7.953C12.3747 8.12384 11.521 8.07679 10.7215 7.8165C9.682 7.435 9.8095 7.0425 10.2705 6.4765C10.8719 5.77883 11.5542 5.15528 12.303 4.619Z" stroke="#05162C" stroke-linecap="round" stroke-linejoin="round"/>
</svg>
