<svg width="22" height="22" viewBox="0 0 22 22" fill="none" xmlns="http://www.w3.org/2000/svg">
<path d="M7.6671 21C8.20107 20.466 8.73505 19.9321 8.24127 17M7.6671 14.3336C6.33381 9.00039 7.33378 8.00042 7.6671 7.6671C8.00042 7.33378 9.00039 6.33381 14.3336 7.6671M7.6671 14.3336C2.33394 13.0003 1.66664 13.6663 1 14.3329M7.6671 14.3336C13.0003 15.6668 13.9996 14.6662 14.3329 14.3329C14.6662 13.9996 15.6668 13.0003 14.3336 7.6671M21 7.6671C20.3334 8.33375 19.6667 9.00039 14.3336 7.6671M14.3329 1C13.799 1.53394 13.2654 2.06829 13.7592 5" stroke="#05162C" stroke-width="1.5" stroke-linecap="round"/>
</svg>
