<svg width="24" height="23" viewBox="0 0 24 23" fill="none" xmlns="http://www.w3.org/2000/svg">
<path d="M24 12.5332C24 12.0622 23.9662 11.6062 23.9145 11.1637C23.2342 5.30025 18.261 0.7515 12.2167 0.75H11.2928C5.055 0.75075 0.00075 5.805 0 12.0427C0 12.6281 0.11529 13.2077 0.339288 13.7485C0.563286 14.2892 0.891604 14.7806 1.3055 15.1945C2.14139 16.0304 3.27511 16.5 4.45725 16.5H5.388C5.64024 17.567 6.24513 18.5177 7.10479 19.1982C7.96444 19.8788 9.02858 20.2494 10.125 20.25H15.453L17.79 22.587C17.8687 22.6656 17.9688 22.7191 18.0779 22.7407C18.1869 22.7624 18.3 22.7512 18.4027 22.7087C18.5054 22.6662 18.5932 22.5942 18.655 22.5017C18.7169 22.4093 18.7499 22.3007 18.75 22.1895V20.1877C19.9028 20.044 20.989 19.5683 21.8763 18.8185C22.7637 18.0687 23.4139 17.0771 23.748 15.9645C23.8552 15.606 23.9167 15.228 23.9557 14.8432L23.958 14.8372C23.979 14.7682 24 14.7 24 14.625C23.9995 14.579 23.9975 14.5335 23.994 14.4885L23.9888 14.4022C23.9893 14.3782 23.991 14.355 23.994 14.3325C23.998 14.305 24 14.2775 24 14.25V12.5332ZM22.311 15.5362C22.0341 16.4646 21.465 17.2788 20.6883 17.8578C19.9116 18.4368 18.9688 18.7497 18 18.75H10.125C9.28342 18.7496 8.47237 18.4347 7.85091 17.8673C7.22945 17.2998 6.84243 16.5206 6.76575 15.6825L6.76125 15.6345C6.78632 14.6604 7.19153 13.7348 7.89021 13.0556C8.58889 12.3764 9.52559 11.9975 10.5 12C10.6989 12 10.8897 11.921 11.0303 11.7803C11.171 11.6397 11.25 11.4489 11.25 11.25C11.25 11.0511 11.171 10.8603 11.0303 10.7197C10.8897 10.579 10.6989 10.5 10.5 10.5C9.61926 10.5 8.75266 10.7215 7.98 11.1442C7.83253 10.8129 7.62619 10.511 7.371 10.2532C7.23037 10.1126 7.03963 10.0336 6.84075 10.0336C6.64187 10.0336 6.45113 10.1126 6.3105 10.2532C6.16987 10.3939 6.09086 10.5846 6.09086 10.7835C6.09086 10.9824 6.16987 11.1731 6.3105 11.3137C6.5235 11.5275 6.66825 11.8012 6.723 12.108C5.96082 12.9003 5.46658 13.9118 5.31 15H4.45725C4.0687 15.0006 3.68387 14.9244 3.32489 14.7757C2.9659 14.6271 2.63986 14.4089 2.3655 14.1337C2.09059 13.8594 1.87261 13.5335 1.72408 13.1746C1.57554 12.8158 1.49939 12.4311 1.5 12.0427C1.5 9.336 2.595 6.8925 4.368 5.118C5.27598 4.20678 6.3553 3.48423 7.54378 2.99201C8.73225 2.49978 10.0064 2.2476 11.2928 2.25H12.2167C17.2342 2.2485 21.4012 5.85 22.305 10.6042C21.478 9.79769 20.4227 9.26532 19.2825 9.0795C19.6597 8.388 19.875 7.59375 19.875 6.75C19.875 6.55109 19.796 6.36032 19.6553 6.21967C19.5147 6.07902 19.3239 6 19.125 6C18.9261 6 18.7353 6.07902 18.5947 6.21967C18.454 6.36032 18.375 6.55109 18.375 6.75C18.3758 7.19333 18.2889 7.63245 18.1193 8.04204C17.9496 8.45163 17.7006 8.82359 17.3865 9.1365C17.0736 9.45056 16.7016 9.6996 16.292 9.86925C15.8824 10.0389 15.4433 10.1258 15 10.125C14.8011 10.125 14.6103 10.204 14.4697 10.3447C14.329 10.4853 14.25 10.6761 14.25 10.875C14.25 11.0739 14.329 11.2647 14.4697 11.4053C14.6103 11.546 14.8011 11.625 15 11.625C16.1595 11.6257 17.281 11.2112 18.1613 10.4565L18.1733 10.4602C18.2384 10.4827 18.3062 10.4961 18.375 10.5C19.5165 10.5 20.5432 10.9605 21.2917 11.7082C22.0102 12.4273 22.4366 13.3871 22.4888 14.4022C22.4782 14.7863 22.4184 15.1674 22.311 15.5362Z" fill="#05162C"/>
</svg>
